<?xml version="1.0" encoding="UTF-8"?>
<svg id="Layer_2" data-name="Layer 2" xmlns="http://www.w3.org/2000/svg" viewBox="0 0 94.99 96.04">
  <defs>
    <style>
      .cls-1 {
        fill: #1e81ce;
      }

      .cls-1, .cls-2 {
        stroke-width: 0px;
      }

      .cls-2 {
        fill: #227aa8;
      }
    </style>
  </defs>
  <g id="Layer_1-2" data-name="Layer 1">
    <g>
      <path class="cls-1" d="m93.21,40.23c.89,0,1.61.73,1.61,1.61s-.73,1.61-1.61,1.61-1.61-.73-1.61-1.61.73-1.61,1.61-1.61Z"/>
      <path class="cls-2" d="m88.19,16.63c-3.76,0-6.8,3.04-6.8,6.8s3.04,6.79,6.8,6.79,6.8-3.03,6.8-6.79-3.04-6.8-6.8-6.8Zm0,11.26c-2.5,0-4.47-1.96-4.47-4.46s1.97-4.47,4.47-4.47,4.47,1.97,4.47,4.47-1.97,4.46-4.47,4.46Z"/>
      <path class="cls-2" d="m85.51,88.32c.89,0,1.61.73,1.61,1.61s-.73,1.61-1.61,1.61-1.61-.73-1.61-1.61.73-1.61,1.61-1.61Z"/>
      <path class="cls-2" d="m84.8,4.47c.89,0,1.61.73,1.61,1.61s-.73,1.61-1.61,1.61-1.61-.73-1.61-1.61.73-1.61,1.61-1.61Z"/>
      <path class="cls-2" d="m59.22,43.62c.59,0,1.06.48,1.06,1.06s-.48,1.08-1.06,1.08-1.08-.48-1.08-1.08.48-1.06,1.08-1.06Z"/>
      <path class="cls-2" d="m53.13,79.92c.18.18.18.53.18.89s0,.71-.18,1.08c-.18.35-.35.53-.53.71-.18.18-.53.35-.89.35-.35.18-.71.18-.89.18v1.08h-.71v-1.26c-.53,0-.89-.18-1.44-.35-.53-.18-.89-.35-1.26-.53l.71-1.61.18.18c.18,0,.35.18.53.18s.35.18.71.18c.18,0,.53.18.71.18v-1.44l-.53-.18c-.35-.18-.71-.18-.89-.35-.18-.18-.53-.35-.71-.35-.18-.18-.35-.35-.35-.53s-.18-.53-.18-.71c0-.35,0-.71.18-.89.18-.35.35-.53.53-.71.18-.18.53-.35.71-.53.35-.18.53-.18.89-.18v-1.08h.71v1.08c.53,0,.89.18,1.26.35.35.18.71.35,1.06.53l-.71,1.44-.18-.18c-.18,0-.18-.18-.35-.18s-.35-.18-.53-.18-.35-.18-.53-.18v1.44h.35c.35.18.71.18.89.35.35.18.53.18.71.35.18.35.35.53.53.89l.02-.02Zm-2.5,1.61c.53,0,.89-.18.89-.53,0-.18,0-.35-.18-.35-.18-.18-.35-.18-.53-.35l-.18,1.26v-.02Zm-.53-3.21v-1.26c-.53,0-.71.18-.71.53,0,.18,0,.35.18.35,0,.18.18.18.53.35v.02Z"/>
      <path class="cls-2" d="m49.01,58.11c.59,0,1.06.48,1.06,1.08s-.48,1.06-1.06,1.06-1.08-.48-1.08-1.06.48-1.08,1.08-1.08Z"/>
      <path class="cls-2" d="m10.56,88.32c.89,0,1.61.73,1.61,1.61s-.73,1.61-1.61,1.61-1.61-.73-1.61-1.61.73-1.61,1.61-1.61Z"/>
      <path class="cls-2" d="m2.68,0c.89,0,1.61.73,1.61,1.61s-.73,1.61-1.61,1.61-1.61-.73-1.61-1.61.73-1.61,1.61-1.61Z"/>
      <path class="cls-2" d="m2.68,58.11c.89,0,1.61.73,1.61,1.61s-.73,1.61-1.61,1.61-1.61-.73-1.61-1.61.73-1.61,1.61-1.61Z"/>
      <polygon class="cls-2" points="75.86 45.77 75.84 45.77 75.84 45.75 75.86 45.77"/>
      <path class="cls-2" d="m91.42,53.86c.11-.26.16-.51.04-.77l-3.41-8.94c-.2-.35-.55-.7-1.08-.7h-9.87V13.94c0-5.18-4.29-9.47-9.47-9.47H11.08c-4.28.02-7.85,3.59-7.85,7.87v40.24c0,.53.54,1.06,1.07,1.06h11.9v41.12c0,.53.18.89.54,1.07.37.17.72.17,1.08,0l5.91-3.94,3.76,3.76c.55.35,1.26.35,1.61,0l3.77-3.76,3.76,3.76c.55.35,1.26.35,1.61,0l3.76-3.76,3.77,3.76c.53.35,1.26.35,1.61,0l3.76-3.76,3.76,3.76c.55.35,1.26.35,1.62,0l3.76-3.76,3.76,3.76c.55.35,1.26.35,1.62,0l3.76-3.76,5.91,3.94c.17.17.35.17.53.17l-.02.04h1.08c.36-.37.54-.73.54-1.08v-16.83h13.07c.54,0,1.07-.53.89-1.07v-23.2Zm-15.58-8.11l.02.02h10.38l2.5,6.79h-8.64c-.16-.1-.33-.16-.5-.16h-6.79c-.18,0-.35.06-.51.16h-9.32l2.5-6.79h10.36v-.02Zm2.15,8.96v9.11l-1.62-1.06c-.17-.18-.35-.18-.53-.18s-.35,0-.71.18l-1.61,1.06v-9.11h4.47Zm-6.25,0v3.4h-9.3v-3.4h9.3Zm-54.93-3.39H5.7V12.34c0-3.05,2.52-5.55,5.55-5.55,1.44,0,2.88.55,3.94,1.62,1.09,1.08,1.62,2.5,1.62,3.93v38.98Zm58.5,41.67l-5-3.41c-.55-.17-1.09-.17-1.44.18l-3.76,3.76-3.77-3.76c-.53-.35-1.26-.35-1.61,0l-3.76,3.76-3.76-3.76c-.55-.35-1.26-.35-1.62,0l-3.76,3.76-3.76-3.76c-.55-.35-1.26-.35-1.62,0l-3.76,3.76-3.76-3.76c-.53-.35-1.26-.35-1.61,0l-3.77,3.76-3.76-3.76c-.35-.35-1.08-.53-1.43-.18l-5.01,3.41v-39.51c.38-.19.62-.54.62-.9V12.34c0-2.14-.88-4.11-2.32-5.55-.06-.06-.13-.13-.19-.17h51.18c3.92,0,7.15,3.21,7.15,7.14v29.69h-10.18c-.55,0-.91.35-1.08.7l-3.41,8.94c0,.37,0,.73.18,1.08v22.89c0,.54.55,1.07,1.08,1.07h13.93v14.86Zm13.96-17.01h-26.83v-15.72h9.3v5.55c0,.53.18.88.53,1.06.38.18.73.18,1.09,0l2.48-1.66.2-.13,2.68,1.79c.17.18.35.18.53.18h.02c.17,0,.35,0,.88-.18.36-.36.53-.71.53-1.06v-5.55h8.59v15.72Zm0-17.87h-8.59v-3.4h8.59v3.4Z"/>
      <polygon class="cls-2" points="75.86 45.77 75.84 45.77 75.84 45.75 75.86 45.77"/>
      <path class="cls-2" d="m50.98,71.32h-.71c-4.29,0-7.88,3.58-7.88,7.87s3.59,7.88,7.88,7.88h.71c3.94-.38,7.15-3.76,7.15-7.88s-3.21-7.52-7.15-7.87Zm-.18,13.42h-.53c-3.05,0-5.55-2.48-5.55-5.53s2.52-5.55,5.55-5.55h.53c2.86.2,5.19,2.7,5.19,5.55s-2.33,5.36-5.19,5.53Z"/>
      <path class="cls-2" d="m60.3,58.99v.4c-.01-.07-.02-.13-.02-.2s.01-.13.02-.2Z"/>
      <path class="cls-2" d="m91.6,59.19c0,.19-.07.39-.18.55v-1.1c.11.16.18.36.18.55Z"/>
      <path class="cls-2" d="m46.53,27.89c-.53-.53-1.44-.88-2.33-.88s-1.61.18-2.32.88l-1.92,1.92c-2-1.63-4.37-2.45-6.86-2.45-6.09,0-10.92,4.83-10.92,10.91s4.83,10.9,10.92,10.9,10.91-5,10.91-10.9c0-1.03-.12-1.93-.36-2.81l2.88-2.92c1.26-1.24,1.26-3.39,0-4.65Zm-13.43,18.96c-4.65,0-8.59-3.94-8.59-8.58s3.76-8.58,8.59-8.58c1.93,0,3.74.61,5.22,1.76l-4.32,4.32-.71-.71c-.53-.53-1.44-.89-2.32-.89s-1.62.18-2.33.89c-.53.53-.88,1.43-.88,2.32s.17,1.61.88,2.32l4.65,4.65c.18.18.36.35.71.35h.02c.35-.01.71-.19.89-.37l6.73-6.83c.03.26.04.51.04.77,0,4.64-3.93,8.58-8.58,8.58Zm12.01-15.92l-10.91,10.9-3.94-3.93c-.18-.18-.36-.36-.36-.71,0-.18.18-.54.36-.71.17-.18.35-.36.71-.36l.03-.02c.18,0,.53.18.89.36l1.61,1.61c.18.18.36.36.71.36.18,0,.54-.18.71-.36l5.71-5.7.13-.13.04-.05,2.89-2.88c.18-.17.53-.35.71-.35s.53.18.71.35c.35.54.35,1.26,0,1.62Z"/>
      <path class="cls-2" d="m55.83,45.77h-10.03c-.53,0-1.08-.53-1.08-1.08s.53-1.06,1.08-1.06h10.03c.53,0,1.08.53,1.08,1.06s-.53,1.08-1.08,1.08Z"/>
      <path class="cls-2" d="m69.24,41.3h-22.36c-.53,0-1.06-.53-1.06-1.06s.53-1.06,1.06-1.06h22.36c.53,0,1.08.53,1.08,1.06s-.53,1.06-1.08,1.06Z"/>
      <path class="cls-2" d="m69.24,36.83h-21.29c-.53,0-1.06-.53-1.06-1.06s.53-1.06,1.06-1.06h21.29c.53,0,1.08.53,1.08,1.06s-.53,1.06-1.08,1.06Z"/>
      <path class="cls-2" d="m69.24,32.36h-18.97c-.53,0-1.08-.53-1.08-1.06s.53-1.06,1.08-1.06h18.97c.53,0,1.08.53,1.08,1.06s-.53,1.06-1.08,1.06Z"/>
      <path class="cls-2" d="m69.24,27.89h-18.97c-.53,0-1.08-.53-1.08-1.06s.53-1.08,1.08-1.08h18.97c.53,0,1.08.53,1.08,1.08s-.53,1.06-1.08,1.06Z"/>
      <path class="cls-2" d="m69.24,23.42H25.59c-.53,0-1.06-.53-1.06-1.08s.53-1.06,1.06-1.06h43.65c.53,0,1.08.53,1.08,1.06s-.53,1.08-1.08,1.08Z"/>
      <path class="cls-2" d="m69.24,18.96H25.59c-.53,0-1.06-.53-1.06-1.06s.53-1.06,1.06-1.06h43.65c.53,0,1.08.53,1.08,1.06s-.53,1.06-1.08,1.06Z"/>
      <path class="cls-2" d="m53.5,69.19h-28.99c-.53,0-1.08-.53-1.08-1.06s.53-1.06,1.08-1.06h29.15c.53,0,1.08.53,1.08,1.06s-.53,1.06-1.26,1.06h.02Z"/>
      <path class="cls-2" d="m53.5,64.72h-28.99c-.53,0-1.08-.53-1.08-1.06s.53-1.08,1.08-1.08h29.15c.53,0,1.08.53,1.08,1.08s-.53,1.06-1.26,1.06h.02Z"/>
      <path class="cls-2" d="m45.8,60.25h-21.29c-.53,0-1.08-.53-1.08-1.06s.53-1.08,1.08-1.08h21.29c.53,0,1.06.53,1.06,1.08s-.53,1.06-1.06,1.06Z"/>
      <path class="cls-2" d="m53.5,55.78h-28.99c-.53,0-1.08-.53-1.08-1.06s.53-1.08,1.08-1.08h29.15c.53,0,1.08.53,1.08,1.08s-.53,1.06-1.26,1.06h.02Z"/>
      <path class="cls-2" d="m5.54,70.43c-3.03,0-5.54,2.52-5.54,5.55s2.51,5.54,5.54,5.54,5.55-2.49,5.55-5.54-2.52-5.55-5.55-5.55Zm0,8.96c-1.97,0-3.41-1.62-3.41-3.41,0-1.97,1.62-3.4,3.41-3.4s3.41,1.43,3.41,3.4-1.62,3.41-3.41,3.41Z"/>
    </g>
  </g>
</svg>