<svg width="96" height="95" viewBox="0 0 96 95" fill="none" xmlns="http://www.w3.org/2000/svg">
<path d="M94.6942 22.5356H87.5365V17.475C87.5365 16.8283 86.8917 16.3271 86.2307 16.4888C84.2801 16.9738 82.007 17.1355 79.5567 16.9738C78.9118 15.3409 77.9285 14.0313 76.7839 12.7379L76.6227 12.5762C71.2544 7.0306 62.3073 7.0306 56.7778 12.5762L56.6166 12.7379C55.9718 13.3846 55.3108 14.2091 54.8272 15.0175C52.8766 15.3409 50.265 15.8259 47.8307 16.4888C26.0191 10.6199 22.4403 19.4314 9.43073 16.4888C8.78589 16.3271 8.12494 16.8122 8.12494 17.475V22.5356H0.983375C0.499748 22.5356 0 23.0206 0 23.5218V76.2291C0 80.3034 3.25642 83.731 7.4801 83.731H34.8212C36.4494 83.731 37.9164 84.3777 39.0448 85.5256C40.5118 86.9969 42.6237 87.8053 44.7355 87.8053H51.2484C53.3602 87.8053 55.3108 86.9969 56.939 85.5256C58.0836 84.3777 59.5506 83.731 61.1627 83.731H88.5038C92.5663 83.731 95.9839 80.4651 95.9839 76.2291V23.5218C95.6615 23.0368 95.1778 22.5356 94.6781 22.5356H94.6942ZM78.4282 21.0643H74.3657C74.3657 19.4314 74.0433 17.7984 73.7209 16.3271C74.527 15.8421 75.1879 15.3409 75.8327 14.6942C77.2998 16.4888 78.267 18.6068 78.4282 21.0643ZM67.6917 33.6267V27.9195C68.9975 28.0812 70.1259 28.2428 71.2705 28.7279C70.4645 31.3471 69.1587 33.1417 67.6917 33.6267ZM65.7411 16.1654C64.4353 16.0038 63.3068 15.8421 62.1622 15.3571C62.9683 12.9157 64.2741 11.1211 65.7411 10.6199V16.1654ZM65.7411 18.1218V21.0643H61.0176C61.0176 19.7547 61.1788 18.4451 61.5013 17.1517C62.8071 17.7984 64.2741 18.1379 65.7249 18.1379L65.7411 18.1218ZM65.7411 23.0206V25.9632C64.2741 26.1249 62.9683 26.4482 61.6786 26.9494C61.3562 25.8015 61.195 24.5081 61.195 23.0368H65.7572L65.7411 23.0206ZM65.7411 28.0812V33.7884C64.2741 33.1417 62.9683 31.5088 62.1622 29.0512C63.3068 28.4045 64.4353 28.065 65.7411 28.065V28.0812ZM67.6917 25.9632V23.0206H72.4151C72.4151 24.3302 72.2539 25.6398 71.9315 26.9332C70.6257 26.4482 69.1587 26.1249 67.7078 25.947L67.6917 25.9632ZM67.6917 21.0643V18.1218C69.1587 17.9601 70.4645 17.6367 71.7542 17.1355C72.0766 18.2834 72.2378 19.5769 72.2378 21.0481C72.399 21.0481 67.6756 21.0481 67.6756 21.0481L67.6917 21.0643ZM67.6917 16.1654V10.4582C69.1587 11.1049 70.4645 12.7379 71.2705 15.1954C70.2872 15.6804 68.9975 16.0038 67.6917 16.1816V16.1654ZM73.2212 14.2091C72.7375 13.0612 72.2378 12.0911 71.7542 11.2666C72.7375 11.7516 73.7048 12.4145 74.527 13.0612C74.0433 13.5462 73.7209 13.8696 73.2212 14.2091ZM60.3728 14.2091C59.8892 13.8858 59.3894 13.5624 59.067 13.2229C59.873 12.4145 60.8564 11.9133 61.8398 11.4283C61.195 12.2367 60.6952 13.2229 60.3728 14.2091ZM59.728 16.3271C59.4055 17.7984 59.0831 19.4314 59.0831 21.0643H55.0207C55.1819 18.623 56.1652 16.4888 57.6322 14.6942C58.2771 15.3409 58.938 15.8421 59.7441 16.3271H59.728ZM59.0831 23.0206C59.0831 24.6536 59.4055 26.2865 59.728 27.7578C58.9219 28.2428 58.261 28.744 57.6161 29.3908C56.1491 27.5961 55.3431 25.4781 55.0045 23.0206H59.067H59.0831ZM60.3889 29.8758C60.8725 31.0237 61.3723 31.9938 61.8559 32.8184C60.8725 32.3333 59.9053 31.6704 59.0831 31.0237C59.4055 30.5387 59.8892 30.2153 60.3889 29.8758ZM73.2373 29.8758C73.7209 30.1992 74.2207 30.5225 74.5431 30.862C73.737 31.6704 72.7537 32.1716 71.7703 32.6567C72.2539 32.01 72.7537 31.0237 73.2373 29.8758ZM76.0101 29.3908C75.3652 28.744 74.5431 28.2428 73.8982 27.7578C74.2207 26.2865 74.5431 24.6536 74.5431 23.0206H78.6055C78.2831 25.462 77.2998 27.7578 75.994 29.3908H76.0101ZM52.9088 22.0506C52.9088 29.7141 59.0992 35.9226 66.7406 35.9226C75.5265 35.9226 82.2005 27.5961 80.2499 18.9463C82.2005 18.9463 83.9899 18.9463 85.4569 18.623V73.7877C73.2534 76.2291 69.3521 70.0368 48.8463 75.259V18.1379C50.4746 17.6529 52.264 17.3295 53.731 17.1517C53.2474 18.623 52.9249 20.4176 52.9249 22.0506H52.9088ZM10.2851 18.623C22.9723 20.9026 26.5511 12.9157 46.8957 18.1379V75.259C26.3899 70.0368 22.4887 76.2452 10.2851 73.7877V18.623ZM93.598 76.2291C93.598 79.1716 91.1637 81.613 88.2297 81.613H60.8887C58.7768 81.613 56.8262 82.4214 55.198 83.8927C54.0534 85.0406 52.5864 85.6873 50.9743 85.6873H44.4615C42.8332 85.6873 41.3662 85.0406 40.2378 83.8927C38.7708 82.4214 36.6589 81.613 34.5471 81.613H7.4801C4.5461 81.613 2.11184 79.1716 2.11184 76.2291V24.4919H8.28615C8.28615 77.1992 8.28615 74.4344 8.28615 74.4344C8.28615 74.9195 8.60856 75.4207 9.09219 75.4207C22.7627 78.5249 26.0191 71.5081 47.6534 77.377H48.2982C69.9325 71.5081 73.1889 78.3632 86.8595 75.4207C87.3431 75.259 87.6655 74.9356 87.6655 74.4344V24.4919H93.8398V76.2291H93.5174H93.598Z" fill="#227AA8"/>
<path d="M23.4399 27.5961H41.8339C42.3175 27.5961 42.8172 27.1111 42.8172 26.6099C42.8172 26.1087 42.3336 25.6237 41.8339 25.6237H23.4399C22.9563 25.6237 22.4565 26.1087 22.4565 26.6099C22.4565 27.1111 22.9402 27.5961 23.4399 27.5961Z" fill="#227AA8"/>
<path d="M23.4399 32.6567H41.8339C42.3175 32.6567 42.8172 32.1716 42.8172 31.6704C42.8172 31.1692 42.3336 30.6842 41.8339 30.6842H23.4399C22.9563 30.6842 22.4565 31.1692 22.4565 31.6704C22.4565 32.1716 22.9402 32.6567 23.4399 32.6567Z" fill="#227AA8"/>
<path d="M23.4399 37.8789H41.8339C42.3175 37.8789 42.8172 37.3939 42.8172 36.8927C42.8172 36.3915 42.3336 35.9064 41.8339 35.9064H23.4399C22.9563 35.9064 22.4565 36.3915 22.4565 36.8927C22.4565 37.3939 22.9402 37.8789 23.4399 37.8789Z" fill="#227AA8"/>
<path d="M23.4399 42.9395H41.8339C42.3175 42.9395 42.8172 42.4544 42.8172 41.9532C42.8172 41.452 42.3336 40.967 41.8339 40.967H23.4399C22.9563 40.967 22.4565 41.452 22.4565 41.9532C22.4565 42.4544 22.9402 42.9395 23.4399 42.9395Z" fill="#227AA8"/>
<path d="M23.4399 48H41.8339C42.3175 48 42.8172 47.515 42.8172 47.0138C42.8172 46.5126 42.3336 46.0275 41.8339 46.0275H23.4399C22.9563 46.0275 22.4565 46.5126 22.4565 47.0138C22.4565 47.515 22.9402 48 23.4399 48Z" fill="#227AA8"/>
<path d="M15.2988 53.0605H41.8177C42.3013 53.0605 42.8011 52.5755 42.8011 52.0743C42.8011 51.5731 42.3174 51.088 41.8177 51.088H15.2988C14.8152 51.088 14.3154 51.5731 14.3154 52.0743C14.3154 52.5755 14.7991 53.0605 15.2988 53.0605Z" fill="#227AA8"/>
<path d="M15.2988 58.2827H41.8177C42.3013 58.2827 42.8011 57.7977 42.8011 57.2965C42.8011 56.7953 42.3174 56.1486 41.8177 56.1486H15.2988C14.8152 56.1486 14.3154 56.6336 14.3154 57.1348C14.3154 57.636 14.7991 58.2827 15.2988 58.2827Z" fill="#227AA8"/>
<path d="M15.2988 63.3433H41.8177C42.3013 63.3433 42.8011 62.8583 42.8011 62.3571C42.8011 61.8559 42.3174 61.3708 41.8177 61.3708H15.2988C14.8152 61.3708 14.3154 61.8559 14.3154 62.3571C14.3154 62.8583 14.7991 63.3433 15.2988 63.3433Z" fill="#227AA8"/>
<path d="M91.1154 9.32645C91.9215 9.32645 92.5824 9.98933 92.5824 10.7977C92.5824 11.6061 91.9215 12.269 91.1154 12.269C90.3094 12.269 89.6484 11.6061 89.6484 10.7977C89.6484 9.98933 90.3094 9.32645 91.1154 9.32645Z" fill="#227AA8"/>
<path d="M49.2976 2.14792C50.1036 2.14792 50.7646 2.8108 50.7646 3.61919C50.7646 4.42759 50.1036 5.09047 49.2976 5.09047C48.4915 5.09047 47.8306 4.42759 47.8306 3.61919C47.8306 2.8108 48.4915 2.14792 49.2976 2.14792Z" fill="#227AA8"/>
<path d="M84.9411 89.9395C85.7472 89.9395 86.4081 90.6023 86.4081 91.4107C86.4081 92.2191 85.7472 92.882 84.9411 92.882C84.1351 92.882 83.4741 92.2191 83.4741 91.4107C83.4741 90.6023 84.1351 89.9395 84.9411 89.9395Z" fill="#227AA8"/>
<path d="M58.5832 87.8215C59.3893 87.8215 60.0502 88.4844 60.0502 89.2927C60.0502 90.1011 59.3893 90.764 58.5832 90.764C57.7772 90.764 57.1162 90.1011 57.1162 89.2927C57.1162 88.4844 57.7772 87.8215 58.5832 87.8215Z" fill="#227AA8"/>
<path d="M17.8942 85.8651C18.7003 85.8651 19.3613 86.528 19.3613 87.3364C19.3613 88.1448 18.7003 88.8077 17.8942 88.8077C17.0882 88.8077 16.4272 88.1448 16.4272 87.3364C16.4272 86.528 17.0882 85.8651 17.8942 85.8651Z" fill="#227AA8"/>
<path d="M31.0813 6.22223C31.8873 6.22223 32.5483 6.88511 32.5483 7.69351C32.5483 8.5019 31.8873 9.16478 31.0813 9.16478C30.2752 9.16478 29.6143 8.5019 29.6143 7.69351C29.6143 6.88511 30.2752 6.22223 31.0813 6.22223Z" fill="#227AA8"/>
<path d="M3.57882 12.4307C4.38486 12.4307 5.04582 13.0935 5.04582 13.9019C5.04582 14.7103 4.38486 15.3732 3.57882 15.3732C2.77277 15.3732 2.11182 14.7103 2.11182 13.9019C2.11182 13.0935 2.77277 12.4307 3.57882 12.4307Z" fill="#227AA8"/>
<path d="M17.4106 13.4008C20.8283 13.4008 23.6011 10.6199 23.6011 7.19229C23.6011 3.7647 20.8283 0.983826 17.4106 0.983826C13.993 0.983826 11.2363 3.7647 11.2363 7.19229C11.2363 10.6199 14.0091 13.4008 17.4106 13.4008ZM17.4106 3.11798C19.6837 3.11798 21.4731 4.91262 21.4731 7.19229C21.4731 9.47196 19.6837 11.2666 17.4106 11.2666C15.1376 11.2666 13.3482 9.47196 13.3482 7.19229C13.3482 4.91262 15.1376 3.11798 17.4106 3.11798Z" fill="#227AA8"/>
<path d="M71.2705 86.8352C68.9974 86.8352 67.208 88.6298 67.208 90.9095C67.208 93.1892 68.9974 94.9838 71.2705 94.9838C73.5435 94.9838 75.3329 93.1892 75.3329 90.9095C75.3329 88.6298 73.5435 86.8352 71.2705 86.8352ZM71.2705 92.8658C70.1259 92.8658 69.1586 91.8796 69.1586 90.7478C69.1586 89.6161 70.142 88.6298 71.2705 88.6298C72.3989 88.6298 73.3823 89.6161 73.3823 90.7478C73.2211 91.8957 72.3989 92.8658 71.2705 92.8658Z" fill="#227AA8"/>
<path d="M54.0209 48H80.3786C80.8622 48 81.362 47.5149 81.362 47.0137V39.8352C81.362 39.3502 80.8784 38.849 80.3786 38.849H54.0209C53.5373 38.849 53.0376 39.334 53.0376 39.8352V47.0137C52.8763 47.4988 53.36 48 54.0209 48ZM55.0043 40.8214H79.4114V45.882H55.0043V40.8214Z" fill="#227AA8"/>
<path d="M54.0209 60.2391H80.3786C80.8622 60.2391 81.362 59.754 81.362 59.2528V52.0743C81.362 51.5892 80.8784 51.088 80.3786 51.088H54.0209C53.5373 51.088 53.0376 51.5731 53.0376 52.0743V59.2528C52.8763 59.7379 53.36 60.2391 54.0209 60.2391ZM55.0043 53.0605H79.4114V58.1211H55.0043V53.0605Z" fill="#227AA8"/>
</svg>
