<?xml version="1.0" encoding="UTF-8"?>
<svg id="Layer_2" data-name="Layer 2" xmlns="http://www.w3.org/2000/svg" xmlns:xlink="http://www.w3.org/1999/xlink" viewBox="0 0 81.69 81.46">
  <defs>
    <style>
      .cls-1 {
        fill: #227aa8;
      }

      .cls-1, .cls-2 {
        stroke-width: 0px;
      }

      .cls-2 {
        fill: #fff;
      }

      .cls-3 {
        mask: url(#mask);
      }
    </style>
    <mask id="mask" x="-.5" y="-.5" width="82.68" height="82.46" maskUnits="userSpaceOnUse">
      <g id="path-2-inside-1_821_932" data-name="path-2-inside-1 821 932">
        <path class="cls-2" d="m77.16,62.37h-.43v-12.49c0-.99-.87-1.84-1.87-1.84h-30l.87-3.69c1.43-.43,2.87-.99,4.16-1.7l5.17,3.26c.72.43,1.58.28,2.3-.28l3.31-3.26c.57-.57.72-1.56.28-2.27l-3.31-5.11c.72-1.28,1.29-2.7,1.72-4.12l5.89-1.14c.87-.14,1.43-.85,1.43-1.7v-4.68c0-.85-.58-1.56-1.43-1.7l-5.89-1.28c-.43-1.42-1.01-2.84-1.72-4.12l3.31-5.11c.43-.71.28-1.56-.28-2.27l-3.31-3.26c-.57-.57-1.58-.71-2.3-.28l-5.17,3.26c-1.29-.71-2.72-1.28-4.16-1.7l-1.29-5.96c-.14-.85-.87-1.42-1.72-1.42h-4.74c-.87,0-1.58.57-1.72,1.42l-1.29,5.96c-1.43.43-2.87.99-4.16,1.7l-5.17-3.26c-.72-.43-1.58-.28-2.3.28l-3.31,3.26c-.57.57-.72,1.56-.28,2.27l3.31,5.11c-.72,1.28-1.29,2.7-1.72,4.12l-5.89,1.28c-.87.14-1.43.85-1.43,1.7v4.68c0,.85.57,1.56,1.43,1.7l5.89,1.28c.43,1.42,1.01,2.84,1.72,4.12l-3.31,5.11c-.43.71-.28,1.56.28,2.27l3.31,3.26c.57.57,1.58.71,2.3.28l5.17-3.26c1.29.71,2.72,1.28,4.16,1.7l.87,3.69H6.81c-1.01,0-1.86.85-1.86,1.84v12.35h-.43c-2.72,0-5.02,2.27-5.02,4.97v9.65c0,2.7,2.3,4.97,5.02,4.97h11.48c2.72,0,5.02-2.27,5.02-4.97v-9.65c0-2.7-2.3-4.97-5.02-4.97h-.43v-3.55h19.81v5.39c0,2.98,2.44,5.39,5.45,5.39s5.45-2.41,5.45-5.39v-5.39h19.81v3.55h-.43c-2.72,0-5.02,2.27-5.02,4.97v9.65c0,2.7,2.3,4.97,5.02,4.97h11.48c2.72,0,5.02-2.27,5.02-4.97v-9.65c0-2.7-2.3-4.97-5.02-4.97Zm-39.04-19.73c-.14-.71-.72-1.14-1.29-1.28-1.86-.43-3.59-1.14-5.17-2.13-.57-.43-1.29-.43-1.86,0l-4.88,3.12-1.29-1.28,3.16-4.83c.43-.57.43-1.28,0-1.85-1.01-1.56-1.72-3.26-2.16-5.11-.14-.71-.72-1.14-1.29-1.28l-5.61-1.28v-1.84l5.61-1.28c.72-.14,1.15-.71,1.29-1.28.43-1.84,1.15-3.55,2.16-5.11.43-.57.43-1.28,0-1.84l-3.16-4.83,1.29-1.28,4.88,3.12c.57.43,1.29.43,1.86,0,1.58-.99,3.31-1.7,5.17-2.13.72-.14,1.15-.71,1.29-1.28l1.29-5.54h1.87l1.29,5.54c.14.71.72,1.14,1.29,1.28,1.86.43,3.59,1.14,5.17,2.13.58.43,1.29.43,1.87,0l4.88-3.12,1.29,1.28-3.16,4.83c-.43.57-.43,1.28,0,1.84,1.01,1.56,1.72,3.26,2.16,5.11.14.71.72,1.14,1.29,1.28l5.61,1.28v1.84l-5.61,1.28c-.71.14-1.15.71-1.29,1.28-.43,1.85-1.15,3.55-2.16,5.11-.43.57-.43,1.28,0,1.85l3.16,4.83-1.29,1.28-4.88-3.12c-.57-.43-1.29-.43-1.87,0-1.58.99-3.31,1.7-5.17,2.13-.72.14-1.15.71-1.29,1.28l-1.29,5.54h-1.87l-1.29-5.54Zm-20.54,24.69v9.65c0,.85-.57,1.42-1.43,1.42H4.66c-.87,0-1.43-.57-1.43-1.42v-9.65c0-.85.57-1.42,1.43-1.42h11.48c.72,0,1.43.57,1.43,1.42h.01Zm25.12-3.12c0,.99-.87,1.84-1.86,1.84s-1.86-.85-1.86-1.84v-5.39h3.59v5.39h.14-.01Zm25.12-8.94H13.99c-1.01,0-1.87.85-1.87,1.84v5.25h-3.59v-10.64h64.6v10.64h-3.59v-5.39c0-.85-.87-1.7-1.72-1.7Zm10.77,21.71c0,.85-.57,1.42-1.43,1.42h-11.48c-.87,0-1.43-.57-1.43-1.42v-9.65c0-.85.57-1.42,1.43-1.42h11.48c.87,0,1.43.57,1.43,1.42v9.65Z"/>
      </g>
    </mask>
  </defs>
  <g id="Layer_1-2" data-name="Layer 1">
    <g>
      <path class="cls-1" d="m40.41,14.4c-6.18,0-11.34,5.11-11.34,11.21s5.16,11.22,11.34,11.22c6.17.14,11.34-4.97,11.34-11.22s-5.17-11.21-11.34-11.21Zm-.15,19.02c-4.3,0-7.74-3.41-7.74-7.66s3.44-7.67,7.74-7.67,7.75,3.41,7.75,7.67c.15,4.11-3.45,7.66-7.75,7.66Z"/>
      <g class="cls-3">
        <g>
          <path class="cls-1" d="m40.41,14.4c-6.18,0-11.34,5.11-11.34,11.21s5.16,11.22,11.34,11.22c6.17.14,11.34-4.97,11.34-11.22s-5.17-11.21-11.34-11.21Zm0,0c-6.18,0-11.34,5.11-11.34,11.21s5.16,11.22,11.34,11.22c6.17.14,11.34-4.97,11.34-11.22s-5.17-11.21-11.34-11.21Zm0,0c-6.18,0-11.34,5.11-11.34,11.21s5.16,11.22,11.34,11.22c6.17.14,11.34-4.97,11.34-11.22s-5.17-11.21-11.34-11.21Zm0,0c-6.18,0-11.34,5.11-11.34,11.21s5.16,11.22,11.34,11.22c6.17.14,11.34-4.97,11.34-11.22s-5.17-11.21-11.34-11.21Zm0,0c-6.18,0-11.34,5.11-11.34,11.21s5.16,11.22,11.34,11.22c6.17.14,11.34-4.97,11.34-11.22s-5.17-11.21-11.34-11.21Zm0,0c-6.18,0-11.34,5.11-11.34,11.21s5.16,11.22,11.34,11.22c6.17.14,11.34-4.97,11.34-11.22s-5.17-11.21-11.34-11.21Zm0,0c-6.18,0-11.34,5.11-11.34,11.21s5.16,11.22,11.34,11.22c6.17.14,11.34-4.97,11.34-11.22s-5.17-11.21-11.34-11.21Zm0,0c-6.18,0-11.34,5.11-11.34,11.21s5.16,11.22,11.34,11.22c6.17.14,11.34-4.97,11.34-11.22s-5.17-11.21-11.34-11.21Zm0,0c-6.18,0-11.34,5.11-11.34,11.21s5.16,11.22,11.34,11.22c6.17.14,11.34-4.97,11.34-11.22s-5.17-11.21-11.34-11.21Zm0,0c-6.18,0-11.34,5.11-11.34,11.21s5.16,11.22,11.34,11.22c6.17.14,11.34-4.97,11.34-11.22s-5.17-11.21-11.34-11.21Zm0,0c-6.18,0-11.34,5.11-11.34,11.21s5.16,11.22,11.34,11.22c6.17.14,11.34-4.97,11.34-11.22s-5.17-11.21-11.34-11.21Zm0,0c-6.18,0-11.34,5.11-11.34,11.21s5.16,11.22,11.34,11.22c6.17.14,11.34-4.97,11.34-11.22s-5.17-11.21-11.34-11.21Zm36.76,48.47h-.93v-12.99c0-.71-.64-1.34-1.37-1.34h-30.64l1.08-4.59.28-.08c1.49-.45,2.86-1,4.06-1.66l.26-.15,5.41,3.43c.51.29,1.14.2,1.72-.26l3.27-3.22c.42-.42.51-1.17.21-1.66l-3.47-5.35.15-.27c.66-1.16,1.23-2.51,1.67-4.01l.09-.29,6.19-1.19c.62-.1,1.03-.59,1.03-1.21v-4.69c0-.61-.42-1.11-1.02-1.21l-6.2-1.34-.09-.28c-.42-1.43-1-2.81-1.67-4.02l-.15-.26,3.47-5.36c.3-.5.21-1.12-.25-1.69l-3.27-3.22c-.42-.42-1.18-.51-1.69-.21l-5.4,3.41-.26-.14c-1.2-.66-2.57-1.22-4.06-1.66l-.29-.08-1.35-6.25c-.1-.62-.61-1.03-1.23-1.03h-4.74c-.63,0-1.12.4-1.22,1l-1.36,6.28-.29.08c-1.49.44-2.86,1-4.06,1.66l-.26.14-5.41-3.42c-.5-.29-1.14-.2-1.72.26l-3.27,3.22c-.42.42-.51,1.16-.21,1.65l3.47,5.36-.15.26c-.66,1.17-1.23,2.52-1.67,4.02l-.09.28-6.18,1.34c-.63.1-1.04.59-1.04,1.21v4.69c0,.62.41,1.11,1.02,1.21l6.2,1.34.09.28c.42,1.43,1,2.82,1.67,4.02l.15.26-3.47,5.36c-.3.5-.21,1.12.25,1.69l3.27,3.22c.42.42,1.18.51,1.69.21l5.4-3.41.26.14c1.21.66,2.57,1.22,4.06,1.66l.28.08,1.08,4.59H6.81c-.72,0-1.36.63-1.36,1.35v12.84h-.92c-2.45,0-4.53,2.05-4.53,4.47v9.65c0,2.42,2.08,4.47,4.53,4.47h11.48c2.45,0,4.52-2.05,4.52-4.47v-9.65c0-2.42-2.07-4.47-4.52-4.47h-.93v-4.55h20.82v5.9c0,2.7,2.22,4.89,4.95,4.89s4.95-2.19,4.95-4.89v-5.9h20.81v4.55h-.93c-2.45,0-4.52,2.05-4.52,4.47v9.65c0,2.42,2.07,4.47,4.52,4.47h11.49c2.45,0,4.52-2.05,4.52-4.47v-9.65c0-2.42-2.07-4.47-4.52-4.47Zm-45.77-23.21c-.43-.31-.91-.31-1.3-.02l-5.24,3.36-1.87-1.85,3.39-5.17c.31-.41.31-.88.02-1.27-1.04-1.6-1.79-3.37-2.25-5.29-.1-.53-.54-.81-.92-.91l-5.99-1.36v-2.64l6-1.37c.67-.13.87-.73.91-.91.44-1.87,1.18-3.65,2.23-5.26.31-.42.31-.88.02-1.27l-3.41-5.2,1.87-1.84,5.21,3.33c.42.32.91.32,1.29.03,1.65-1.04,3.44-1.78,5.36-2.22.67-.13.87-.73.92-.91l1.38-5.92h2.66l1.39,5.93c.1.52.54.81.92.9,1.91.44,3.7,1.18,5.31,2.19.44.32.91.32,1.31.02l5.25-3.35,1.87,1.84-3.39,5.17c-.31.42-.31.88-.02,1.27,1.04,1.61,1.78,3.38,2.24,5.29.11.53.55.82.93.91l5.98,1.37v2.64l-5.99,1.36c-.54.11-.83.55-.92.92-.43,1.87-1.18,3.64-2.22,5.25-.31.42-.31.89-.02,1.28l3.41,5.19-1.87,1.85-5.22-3.34c-.42-.32-.9-.32-1.31-.02-1.64,1.04-3.43,1.78-5.35,2.21-.67.14-.87.74-.92.92l-1.38,5.91h-2.66l-1.39-5.94c-.1-.51-.54-.79-.92-.89-1.91-.43-3.7-1.17-5.31-2.19Zm-15.26,25.76c.79,0,1.63.53,1.87,1.42h.06v.5s0,9.65,0,9.65c0,1.13-.79,1.92-1.93,1.92H4.66c-1.14,0-1.94-.79-1.94-1.92v-9.65c0-1.13.8-1.92,1.94-1.92h11.48Zm24.71,1.14c-1.28,0-2.36-1.07-2.36-2.34v-5.9h4.59v5.9h.13c0,1.27-1.08,2.34-2.36,2.34Zm-26.85-10.78c-.74,0-1.38.62-1.38,1.34v5.75h-4.59v-11.64h65.6v11.64h-4.59v-5.89c0-.57-.63-1.2-1.21-1.2H14Zm65.1,21.21c0,1.13-.8,1.92-1.93,1.92h-11.49c-1.14,0-1.93-.79-1.93-1.92v-9.65c0-1.13.79-1.92,1.93-1.92h11.49c1.13,0,1.93.79,1.93,1.92v9.65Zm-27.35-51.38c0-6.24-5.17-11.21-11.34-11.21s-11.34,5.11-11.34,11.21,5.16,11.22,11.34,11.22c6.17.14,11.34-4.97,11.34-11.22Zm-11.34-11.21c-6.18,0-11.34,5.11-11.34,11.21s5.16,11.22,11.34,11.22c6.17.14,11.34-4.97,11.34-11.22s-5.17-11.21-11.34-11.21Zm0,0c-6.18,0-11.34,5.11-11.34,11.21s5.16,11.22,11.34,11.22c6.17.14,11.34-4.97,11.34-11.22s-5.17-11.21-11.34-11.21Zm0,0c-6.18,0-11.34,5.11-11.34,11.21s5.16,11.22,11.34,11.22c6.17.14,11.34-4.97,11.34-11.22s-5.17-11.21-11.34-11.21Zm0,0c-6.18,0-11.34,5.11-11.34,11.21s5.16,11.22,11.34,11.22c6.17.14,11.34-4.97,11.34-11.22s-5.17-11.21-11.34-11.21Zm0,0c-6.18,0-11.34,5.11-11.34,11.21s5.16,11.22,11.34,11.22c6.17.14,11.34-4.97,11.34-11.22s-5.17-11.21-11.34-11.21Zm0,0c-6.18,0-11.34,5.11-11.34,11.21s5.16,11.22,11.34,11.22c6.17.14,11.34-4.97,11.34-11.22s-5.17-11.21-11.34-11.21Zm0,0c-6.18,0-11.34,5.11-11.34,11.21s5.16,11.22,11.34,11.22c6.17.14,11.34-4.97,11.34-11.22s-5.17-11.21-11.34-11.21Zm0,0c-6.18,0-11.34,5.11-11.34,11.21s5.16,11.22,11.34,11.22c6.17.14,11.34-4.97,11.34-11.22s-5.17-11.21-11.34-11.21Zm0,0c-6.18,0-11.34,5.11-11.34,11.21s5.16,11.22,11.34,11.22c6.17.14,11.34-4.97,11.34-11.22s-5.17-11.21-11.34-11.21Zm0,0c-6.18,0-11.34,5.11-11.34,11.21s5.16,11.22,11.34,11.22c6.17.14,11.34-4.97,11.34-11.22s-5.17-11.21-11.34-11.21Zm0,0c-6.18,0-11.34,5.11-11.34,11.21s5.16,11.22,11.34,11.22c6.17.14,11.34-4.97,11.34-11.22s-5.17-11.21-11.34-11.21Zm0,0c-6.18,0-11.34,5.11-11.34,11.21s5.16,11.22,11.34,11.22c6.17.14,11.34-4.97,11.34-11.22s-5.17-11.21-11.34-11.21Z"/>
          <path class="cls-2" d="m40.41,14.4c-6.18,0-11.34,5.11-11.34,11.21s5.16,11.22,11.34,11.22c6.17.14,11.34-4.97,11.34-11.22s-5.17-11.21-11.34-11.21Zm0,0c-6.18,0-11.34,5.11-11.34,11.21s5.16,11.22,11.34,11.22c6.17.14,11.34-4.97,11.34-11.22s-5.17-11.21-11.34-11.21Zm0,0c-6.18,0-11.34,5.11-11.34,11.21s5.16,11.22,11.34,11.22c6.17.14,11.34-4.97,11.34-11.22s-5.17-11.21-11.34-11.21Z"/>
        </g>
      </g>
      <rect class="cls-1" x="71.95" y="11.53" width="2.53" height="20.23"/>
      <rect class="cls-1" x="79.13" y="4.43" width="2.53" height="20.23"/>
      <rect class="cls-1" x="71.95" y="36.36" width="2.53" height="2.49"/>
      <rect class="cls-1" x="7.34" y="11.53" width="2.53" height="20.23"/>
      <rect class="cls-1" x=".16" y="4.43" width="2.53" height="20.23"/>
      <rect class="cls-1" x="7.34" y="36.36" width="2.53" height="2.49"/>
    </g>
  </g>
</svg>