<svg width="100" height="87" viewBox="0 0 100 87" fill="none" xmlns="http://www.w3.org/2000/svg">
<g clip-path="url(#clip0_16_2110)">
<path d="M32.6699 85.8723H31.4731C31.32 85.8723 31.1998 85.7513 31.1998 85.5973C31.1998 85.4433 31.32 85.3223 31.4731 85.3223H32.6699C33.2164 85.3223 33.6645 84.8767 33.6645 84.3211V70.6737C33.6645 70.1237 33.2219 69.6726 32.6699 69.6726H25.0188C24.6745 69.6726 24.363 69.8431 24.1826 70.1347L22.4229 72.819C22.3409 72.9456 22.1715 72.9786 22.0458 72.8961C21.9201 72.8135 21.8873 72.643 21.9693 72.5165L23.729 69.8376C24.0023 69.3921 24.4887 69.1225 25.0243 69.1225H32.6754C33.5225 69.1225 34.2165 69.8156 34.2165 70.6737V84.3211C34.2165 85.1737 33.5279 85.8723 32.6754 85.8723H32.6699Z" fill="#227AA8"/>
<path d="M32.67 86.4224H31.4732C31.0196 86.4224 30.6534 86.0539 30.6534 85.5973C30.6534 85.1407 31.0196 84.7722 31.4732 84.7722H32.67C32.916 84.7722 33.1182 84.5687 33.1182 84.3211V70.6737C33.1182 70.4262 32.916 70.2227 32.67 70.2227H25.0189C24.8604 70.2227 24.7238 70.2942 24.6473 70.4262L22.8766 73.1216C22.6252 73.5011 22.117 73.6057 21.7399 73.3526C21.5595 73.2316 21.4338 73.0446 21.3901 72.83C21.3464 72.6155 21.3901 72.3955 21.5103 72.2085L23.2701 69.5296C23.6417 68.93 24.2975 68.567 25.0244 68.567H32.6755C33.8232 68.567 34.7632 69.5076 34.7632 70.6682V84.3156C34.7632 85.4708 33.8286 86.4169 32.6755 86.4169L32.67 86.4224Z" fill="#227AA8"/>
<path d="M10.4983 71.9279H1.30057C0.885222 71.9279 0.546387 71.5869 0.546387 71.1688V64.0288C0.546387 63.6108 0.885222 63.2697 1.30057 63.2697H6.53065C6.78751 63.2697 7.03343 63.4072 7.17006 63.6273L8.09912 65.129C8.13738 65.1895 8.20296 65.228 8.27401 65.228H11.5257C11.9411 65.228 12.2799 65.569 12.2799 65.9871V69.9862C12.2799 70.1402 12.1597 70.2612 12.0067 70.2612C11.8536 70.2612 11.7334 70.1402 11.7334 69.9862V65.9871C11.7334 65.8716 11.6405 65.7781 11.5257 65.7781H8.27401C8.01168 65.7781 7.77122 65.6461 7.63459 65.4205L6.70553 63.9188C6.66727 63.8583 6.60169 63.8198 6.53065 63.8198H1.30057C1.1858 63.8198 1.09289 63.9133 1.09289 64.0288V71.1688C1.09289 71.2843 1.1858 71.3778 1.30057 71.3778H10.4983C10.6513 71.3778 10.7715 71.4989 10.7715 71.6529C10.7715 71.8069 10.6513 71.9279 10.4983 71.9279Z" fill="#227AA8"/>
<path d="M10.4984 72.478H1.30069C0.584763 72.478 0 71.8894 0 71.1688V64.0288C0 63.3082 0.584763 62.7196 1.30069 62.7196H6.53077C6.9789 62.7196 7.39972 62.9562 7.63471 63.3357L8.45994 64.6724H11.5259C12.2418 64.6724 12.8265 65.261 12.8265 65.9816V69.9807C12.8265 70.4372 12.4604 70.8058 12.0068 70.8058C11.5532 70.8058 11.187 70.4372 11.187 69.9807V66.3226H8.27413C7.82053 66.3226 7.41065 66.0916 7.17018 65.7066L6.33949 64.3644H1.63952V70.8223H10.4984C10.952 70.8223 11.3182 71.1908 11.3182 71.6474C11.3182 72.1039 10.952 72.4725 10.4984 72.4725V72.478Z" fill="#227AA8"/>
<path d="M6.41583 79.1504C6.26281 79.1504 6.14258 79.0294 6.14258 78.8754V71.8179C6.14258 71.6639 6.26281 71.5429 6.41583 71.5429C6.56885 71.5429 6.68909 71.6639 6.68909 71.8179V78.8754C6.68909 79.0294 6.56885 79.1504 6.41583 79.1504Z" fill="#227AA8"/>
<path d="M6.41595 79.7005C5.96235 79.7005 5.59619 79.3319 5.59619 78.8754V71.8179C5.59619 71.3613 5.96235 70.9928 6.41595 70.9928C6.86955 70.9928 7.23571 71.3613 7.23571 71.8179V78.8754C7.23571 79.3319 6.86955 79.7005 6.41595 79.7005Z" fill="#227AA8"/>
<path d="M10.7937 80.7071H7.95734C7.80431 80.7071 7.68408 80.5861 7.68408 80.4321C7.68408 80.2781 7.80431 80.1571 7.95734 80.1571H10.7937C10.9467 80.1571 11.067 80.2781 11.067 80.4321C11.067 80.5861 10.9467 80.7071 10.7937 80.7071Z" fill="#227AA8"/>
<path d="M10.7938 81.2572H7.95746C7.50386 81.2572 7.1377 80.8887 7.1377 80.4321C7.1377 79.9755 7.50386 79.607 7.95746 79.607H10.7938C11.2474 79.607 11.6136 79.9755 11.6136 80.4321C11.6136 80.8887 11.2474 81.2572 10.7938 81.2572Z" fill="#227AA8"/>
<path d="M6.41606 82.2583C5.41595 82.2583 4.59619 81.4387 4.59619 80.4321C4.59619 79.4255 5.41049 78.6003 6.41606 78.6003C7.42164 78.6003 8.23593 79.42 8.23593 80.4321C8.23593 81.4442 7.42164 82.2583 6.41606 82.2583ZM6.41606 79.1504C5.71653 79.1504 5.1427 79.7225 5.1427 80.4321C5.1427 81.1417 5.71107 81.7083 6.41606 81.7083C7.12106 81.7083 7.68943 81.1362 7.68943 80.4321C7.68943 79.728 7.12106 79.1504 6.41606 79.1504Z" fill="#227AA8"/>
<path d="M6.41618 82.8084C5.11549 82.8084 4.0498 81.7413 4.0498 80.4321C4.0498 79.1229 5.11003 78.0503 6.41618 78.0503C7.72234 78.0503 8.78256 79.1174 8.78256 80.4321C8.78256 81.7468 7.72234 82.8084 6.41618 82.8084ZM6.41618 79.7005C6.01723 79.7005 5.68933 80.025 5.68933 80.4321C5.68933 80.8391 6.01177 81.1582 6.41618 81.1582C6.8206 81.1582 7.14304 80.8336 7.14304 80.4321C7.14304 80.0305 6.8206 79.7005 6.41618 79.7005Z" fill="#227AA8"/>
<path d="M30.413 86.4499H12.0558C11.2087 86.4499 10.5146 85.7568 10.5146 84.8987V71.2513C10.5146 70.3987 11.2032 69.7001 12.0558 69.7001H19.7069C20.2425 69.7001 20.7289 69.9751 21.0131 70.4317L22.7564 73.0831C22.7837 73.1271 22.822 73.1711 22.8931 73.1711H30.4075C31.2546 73.1711 31.9487 73.8642 31.9487 74.7223V84.8987C31.9487 85.7513 31.2601 86.4499 30.4075 86.4499H30.413ZM12.0613 70.2557C11.5148 70.2557 11.0666 70.7012 11.0666 71.2568V84.9042C11.0666 85.4543 11.5093 85.9053 12.0613 85.9053H30.413C30.9595 85.9053 31.4076 85.4598 31.4076 84.9042V74.7278C31.4076 74.1777 30.965 73.7267 30.413 73.7267H22.8985C22.6581 73.7267 22.434 73.6002 22.3028 73.3856L20.5595 70.7343C20.3736 70.4317 20.0567 70.2557 19.7124 70.2557H12.0613Z" fill="#227AA8"/>
<path d="M30.4131 87H12.0559C10.9083 87 9.96826 86.0594 9.96826 84.8987V71.2513C9.96826 70.0962 10.9028 69.15 12.0559 69.15H19.707C20.4339 69.15 21.0952 69.5186 21.4777 70.1402L23.1063 72.6155H30.4077C31.5553 72.6155 32.4953 73.5561 32.4953 74.7168V84.8932C32.4953 86.0484 31.5608 86.9945 30.4077 86.9945L30.4131 87ZM12.0614 70.8058C11.8155 70.8058 11.6133 71.0093 11.6133 71.2568V84.9042C11.6133 85.1517 11.8155 85.3553 12.0614 85.3553H30.4131C30.659 85.3553 30.8613 85.1517 30.8613 84.9042V74.7278C30.8613 74.4803 30.659 74.2767 30.4131 74.2767H22.8986C22.4669 74.2767 22.0679 74.0512 21.8384 73.6772L20.106 71.0423C20.0131 70.8883 19.871 70.8113 19.7125 70.8113H12.0614V70.8058ZM23.2101 72.775V72.786C23.2101 72.786 23.2101 72.7805 23.2101 72.775Z" fill="#227AA8"/>
<path d="M28.8993 80.003H23.784C23.631 80.003 23.5107 79.882 23.5107 79.728C23.5107 79.574 23.631 79.453 23.784 79.453H28.8993C29.0523 79.453 29.1726 79.574 29.1726 79.728C29.1726 79.882 29.0523 80.003 28.8993 80.003Z" fill="#227AA8"/>
<path d="M28.8994 80.5531H23.7841C23.3305 80.5531 22.9644 80.1846 22.9644 79.728C22.9644 79.2714 23.3305 78.9029 23.7841 78.9029H28.8994C29.353 78.9029 29.7192 79.2714 29.7192 79.728C29.7192 80.1846 29.353 80.5531 28.8994 80.5531Z" fill="#227AA8"/>
<path d="M28.8993 81.7248H23.784C23.631 81.7248 23.5107 81.6038 23.5107 81.4497C23.5107 81.2957 23.631 81.1747 23.784 81.1747H28.8993C29.0523 81.1747 29.1726 81.2957 29.1726 81.4497C29.1726 81.6038 29.0523 81.7248 28.8993 81.7248Z" fill="#227AA8"/>
<path d="M28.8994 82.2748H23.7841C23.3305 82.2748 22.9644 81.9063 22.9644 81.4497C22.9644 80.9932 23.3305 80.6246 23.7841 80.6246H28.8994C29.353 80.6246 29.7192 80.9932 29.7192 81.4497C29.7192 81.9063 29.353 82.2748 28.8994 82.2748Z" fill="#227AA8"/>
<path d="M25.5219 83.452H23.784C23.631 83.452 23.5107 83.331 23.5107 83.177C23.5107 83.023 23.631 82.9019 23.784 82.9019H25.5219C25.6749 82.9019 25.7951 83.023 25.7951 83.177C25.7951 83.331 25.6749 83.452 25.5219 83.452Z" fill="#227AA8"/>
<path d="M25.522 84.0021H23.7841C23.3305 84.0021 22.9644 83.6335 22.9644 83.177C22.9644 82.7204 23.3305 82.3519 23.7841 82.3519H25.522C25.9756 82.3519 26.3418 82.7204 26.3418 83.177C26.3418 83.6335 25.9756 84.0021 25.522 84.0021Z" fill="#227AA8"/>
<path d="M21.3683 80.9052C20.7234 80.9052 20.1987 80.3771 20.1987 79.728C20.1987 79.0789 20.7234 78.5508 21.3683 78.5508C22.0131 78.5508 22.5378 79.0789 22.5378 79.728C22.5378 80.3771 22.0131 80.9052 21.3683 80.9052ZM21.3683 79.1009C21.024 79.1009 20.7452 79.3814 20.7452 79.728C20.7452 80.0745 21.024 80.3551 21.3683 80.3551C21.7126 80.3551 21.9913 80.0745 21.9913 79.728C21.9913 79.3814 21.7126 79.1009 21.3683 79.1009Z" fill="#227AA8"/>
<path d="M21.3684 81.4552C20.4229 81.4552 19.6523 80.6796 19.6523 79.728C19.6523 78.7764 20.4229 78.0008 21.3684 78.0008C22.3138 78.0008 23.0844 78.7764 23.0844 79.728C23.0844 80.6796 22.3138 81.4552 21.3684 81.4552ZM21.3684 79.651C21.3247 79.651 21.2919 79.684 21.2919 79.728C21.2919 79.8105 21.4449 79.8105 21.4449 79.728C21.4449 79.6895 21.4121 79.651 21.3684 79.651Z" fill="#227AA8"/>
<path d="M41.6164 8.38315H34.5063C34.0855 8.38315 33.7412 8.03661 33.7412 7.61305V3.66901C33.7412 3.24545 34.0855 2.8989 34.5063 2.8989H37.3591L38.0094 1.91426C38.1461 1.69423 38.3865 1.55671 38.6543 1.55671H41.6164C42.0372 1.55671 42.3815 1.90326 42.3815 2.32682V7.61305C42.3815 8.03661 42.0372 8.38315 41.6164 8.38315ZM34.5063 3.45448C34.3861 3.45448 34.2877 3.55349 34.2877 3.67451V7.61855C34.2877 7.73957 34.3861 7.83858 34.5063 7.83858H41.6164C41.7366 7.83858 41.835 7.73957 41.835 7.61855V2.32682C41.835 2.2058 41.7366 2.10679 41.6164 2.10679H38.6543C38.5778 2.10679 38.5122 2.1453 38.4685 2.2113L37.7908 3.24545C37.7143 3.37196 37.5722 3.44897 37.4192 3.44897H34.5063V3.45448Z" fill="#227AA8"/>
<path d="M41.6165 8.93323H34.5064C33.7851 8.93323 33.1948 8.33915 33.1948 7.61305V3.66901C33.1948 2.94291 33.7851 2.34882 34.5064 2.34882H37.0641L37.5505 1.60622C37.78 1.23217 38.1954 1.00114 38.649 1.00114H41.611C42.3324 1.00114 42.9227 1.59522 42.9227 2.32132V7.60755C42.9227 8.33365 42.3324 8.92773 41.611 8.92773L41.6165 8.93323ZM34.8343 7.283H41.2831V2.66237H38.8239L38.2391 3.55349C38.0697 3.82853 37.7527 4.00455 37.4139 4.00455H34.8343V7.283ZM38.9277 2.50284L38.9168 2.51935C38.9168 2.51935 38.9222 2.50835 38.9277 2.50284Z" fill="#227AA8"/>
<path d="M28.9048 33.4611H14.2693C11.9248 33.4611 10.0229 31.5414 10.0229 29.187C10.0229 27.4763 11.0504 25.9196 12.6025 25.254C12.5642 24.9019 12.5424 24.5499 12.5424 24.2033C12.5424 19.0986 16.6685 14.9456 21.7401 14.9456C24.8606 14.9456 27.7189 16.5023 29.424 19.1151C29.7956 19.0546 30.1727 19.0216 30.5552 19.0216C33.5337 19.0216 36.1679 20.9689 37.0696 23.7963C37.6107 23.5928 38.1845 23.4882 38.7747 23.4882C40.1683 23.4882 41.5018 24.0823 42.4418 25.122L42.0374 25.4905C41.2012 24.5664 40.0153 24.0383 38.7802 24.0383C38.1626 24.0383 37.5669 24.1648 37.0095 24.4124L36.7199 24.5444L36.6379 24.2363C35.8946 21.486 33.3971 19.5662 30.5607 19.5662C30.1508 19.5662 29.7464 19.6047 29.3529 19.6872L29.1671 19.7257L29.0687 19.5662C27.4729 17.0193 24.7349 15.4956 21.7455 15.4956C16.9745 15.4956 13.0943 19.4012 13.0943 24.2033C13.0943 24.5939 13.1216 24.9899 13.1763 25.3915L13.2036 25.6115L12.996 25.6885C11.5477 26.2276 10.5749 27.6358 10.5749 29.187C10.5749 31.2443 12.2363 32.911 14.2748 32.911H28.9103V33.4611H28.9048Z" fill="#227AA8"/>
<path d="M29.4514 34.0112H14.2694C11.6243 34.0112 9.47656 31.8439 9.47656 29.187C9.47656 27.3883 10.4603 25.7546 12.0233 24.9239C12.0069 24.6819 11.996 24.4399 11.996 24.2033C11.996 18.7961 16.368 14.3955 21.7402 14.3955C24.9154 14.3955 27.8556 15.9302 29.6864 18.5211C29.9761 18.488 30.2657 18.4715 30.5608 18.4715C33.6049 18.4715 36.2937 20.3143 37.414 23.1142C37.8567 22.9987 38.3158 22.9382 38.7858 22.9382C40.3324 22.9382 41.8134 23.5983 42.8518 24.7479L43.218 25.155L42.0047 26.2661L41.6385 25.8591C40.9062 25.0505 39.8679 24.5884 38.7803 24.5884C38.2393 24.5884 37.7146 24.6984 37.2337 24.9184L36.3593 25.3145L36.1079 24.3849C35.4302 21.8765 33.1458 20.1218 30.5554 20.1218C30.1837 20.1218 29.8121 20.1603 29.4514 20.2318L28.8995 20.3418L28.5989 19.8632C27.1069 17.4759 24.5438 16.0512 21.7402 16.0512C17.2698 16.0512 13.6355 19.7092 13.6355 24.2088C13.6355 24.5719 13.6628 24.9459 13.712 25.32L13.7994 25.9746L13.1819 26.2056C11.9468 26.6622 11.1161 27.8613 11.1161 29.1925C11.1161 30.9418 12.5315 32.3665 14.2694 32.3665H29.4514V34.0167V34.0112Z" fill="#227AA8"/>
<path d="M46.5294 52.8458H45.9829V59.3752H46.5294V52.8458Z" fill="#227AA8"/>
<path d="M47.076 52.2957H45.4365V59.9253H47.076V52.2957Z" fill="#227AA8"/>
<path d="M68.6359 62.4831H65.9034C65.7503 62.4831 65.6301 62.3621 65.6301 62.2081C65.6301 62.0541 65.7503 61.933 65.9034 61.933H68.6359C68.7889 61.933 68.9091 62.0541 68.9091 62.2081C68.9091 62.3621 68.7889 62.4831 68.6359 62.4831ZM63.1708 62.4831H60.4383C60.2853 62.4831 60.165 62.3621 60.165 62.2081C60.165 62.0541 60.2853 61.933 60.4383 61.933H63.1708C63.3238 61.933 63.4441 62.0541 63.4441 62.2081C63.4441 62.3621 63.3238 62.4831 63.1708 62.4831ZM57.7057 62.4831H54.9732C54.8202 62.4831 54.6999 62.3621 54.6999 62.2081C54.6999 62.0541 54.8202 61.933 54.9732 61.933H57.7057C57.8588 61.933 57.979 62.0541 57.979 62.2081C57.979 62.3621 57.8588 62.4831 57.7057 62.4831ZM52.2407 62.4831H49.5081C49.3551 62.4831 49.2349 62.3621 49.2349 62.2081C49.2349 62.0541 49.3551 61.933 49.5081 61.933H52.2407C52.3937 61.933 52.5139 62.0541 52.5139 62.2081C52.5139 62.3621 52.3937 62.4831 52.2407 62.4831Z" fill="#227AA8"/>
<path d="M68.636 63.0332H65.9035C65.4499 63.0332 65.0837 62.6646 65.0837 62.2081C65.0837 61.7515 65.4499 61.383 65.9035 61.383H68.636C69.0896 61.383 69.4558 61.7515 69.4558 62.2081C69.4558 62.6646 69.0896 63.0332 68.636 63.0332ZM63.1709 63.0332H60.4384C59.9848 63.0332 59.6186 62.6646 59.6186 62.2081C59.6186 61.7515 59.9848 61.383 60.4384 61.383H63.1709C63.6245 61.383 63.9907 61.7515 63.9907 62.2081C63.9907 62.6646 63.6245 63.0332 63.1709 63.0332ZM57.7059 63.0332H54.9733C54.5197 63.0332 54.1536 62.6646 54.1536 62.2081C54.1536 61.7515 54.5197 61.383 54.9733 61.383H57.7059C58.1595 61.383 58.5256 61.7515 58.5256 62.2081C58.5256 62.6646 58.1595 63.0332 57.7059 63.0332ZM52.2408 63.0332H49.5082C49.0546 63.0332 48.6885 62.6646 48.6885 62.2081C48.6885 61.7515 49.0546 61.383 49.5082 61.383H52.2408C52.6944 61.383 53.0605 61.7515 53.0605 62.2081C53.0605 62.6646 52.6944 63.0332 52.2408 63.0332Z" fill="#227AA8"/>
<path d="M23.3577 67.8959C23.2047 67.8959 23.0845 67.7748 23.0845 67.6208V64.8704C23.0845 64.7164 23.2047 64.5954 23.3577 64.5954C23.5107 64.5954 23.631 64.7164 23.631 64.8704V67.6208C23.631 67.7748 23.5107 67.8959 23.3577 67.8959ZM42.5675 62.4776H39.8349C39.6819 62.4776 39.5617 62.3566 39.5617 62.2026C39.5617 62.0486 39.6819 61.9275 39.8349 61.9275H42.5675C42.7205 61.9275 42.8407 62.0486 42.8407 62.2026C42.8407 62.3566 42.7205 62.4776 42.5675 62.4776ZM37.1024 62.4776H34.3699C34.2168 62.4776 34.0966 62.3566 34.0966 62.2026C34.0966 62.0486 34.2168 61.9275 34.3699 61.9275H37.1024C37.2554 61.9275 37.3757 62.0486 37.3757 62.2026C37.3757 62.3566 37.2554 62.4776 37.1024 62.4776ZM31.6373 62.4776H28.9048C28.7518 62.4776 28.6315 62.3566 28.6315 62.2026C28.6315 62.0486 28.7518 61.9275 28.9048 61.9275H31.6373C31.7903 61.9275 31.9106 62.0486 31.9106 62.2026C31.9106 62.3566 31.7903 62.4776 31.6373 62.4776ZM26.1722 62.4776H23.4397C23.2867 62.4776 23.1664 62.3566 23.1664 62.2026C23.1664 62.0486 23.2867 61.9275 23.4397 61.9275H26.1722C26.3253 61.9275 26.4455 62.0486 26.4455 62.2026C26.4455 62.3566 26.3253 62.4776 26.1722 62.4776Z" fill="#227AA8"/>
<path d="M23.3578 68.4459C22.9042 68.4459 22.5381 68.0774 22.5381 67.6208V64.8704C22.5381 64.4139 22.9042 64.0453 23.3578 64.0453C23.8114 64.0453 24.1776 64.4139 24.1776 64.8704V67.6208C24.1776 68.0774 23.8114 68.4459 23.3578 68.4459ZM42.5676 63.0277H39.8351C39.3815 63.0277 39.0153 62.6591 39.0153 62.2026C39.0153 61.746 39.3815 61.3775 39.8351 61.3775H42.5676C43.0212 61.3775 43.3874 61.746 43.3874 62.2026C43.3874 62.6591 43.0212 63.0277 42.5676 63.0277ZM37.1025 63.0277H34.37C33.9164 63.0277 33.5502 62.6591 33.5502 62.2026C33.5502 61.746 33.9164 61.3775 34.37 61.3775H37.1025C37.5561 61.3775 37.9223 61.746 37.9223 62.2026C37.9223 62.6591 37.5561 63.0277 37.1025 63.0277ZM31.6374 63.0277H28.9049C28.4513 63.0277 28.0851 62.6591 28.0851 62.2026C28.0851 61.746 28.4513 61.3775 28.9049 61.3775H31.6374C32.091 61.3775 32.4572 61.746 32.4572 62.2026C32.4572 62.6591 32.091 63.0277 31.6374 63.0277ZM26.1724 63.0277H23.4398C22.9862 63.0277 22.6201 62.6591 22.6201 62.2026C22.6201 61.746 22.9862 61.3775 23.4398 61.3775H26.1724C26.626 61.3775 26.9921 61.746 26.9921 62.2026C26.9921 62.6591 26.626 63.0277 26.1724 63.0277Z" fill="#227AA8"/>
<path d="M46.2564 66.0861C44.3109 66.0861 42.7314 64.4964 42.7314 62.5381C42.7314 60.5799 44.3109 58.9901 46.2564 58.9901C48.202 58.9901 49.7814 60.5799 49.7814 62.5381C49.7814 64.4964 48.202 66.0861 46.2564 66.0861ZM46.2564 59.5402C44.6169 59.5402 43.278 60.8879 43.278 62.5381C43.278 64.1884 44.6169 65.536 46.2564 65.536C47.8959 65.536 49.2349 64.1939 49.2349 62.5381C49.2349 60.8824 47.8959 59.5402 46.2564 59.5402Z" fill="#227AA8"/>
<path d="M46.2565 66.6362C44.0104 66.6362 42.1851 64.7989 42.1851 62.5381C42.1851 60.2773 44.0104 58.4401 46.2565 58.4401C48.5027 58.4401 50.328 60.2773 50.328 62.5381C50.328 64.7989 48.5027 66.6362 46.2565 66.6362ZM46.2565 60.0903C44.9176 60.0903 43.8246 61.1904 43.8246 62.5381C43.8246 63.8858 44.9176 64.986 46.2565 64.986C47.5955 64.986 48.6885 63.8858 48.6885 62.5381C48.6885 61.1904 47.5955 60.0903 46.2565 60.0903Z" fill="#227AA8"/>
<path d="M67.3076 53.1208H26.3796C20.9419 53.1208 16.5151 48.6652 16.5151 43.192C16.5151 37.7187 20.9419 33.2631 26.3796 33.2631C27.0136 33.2631 27.653 33.3236 28.2651 33.4446C30.38 28.791 35.009 25.7986 40.1079 25.7986C40.485 25.7986 40.8675 25.8151 41.2446 25.8481C44.4253 21.552 49.4914 18.9941 54.8308 18.9941C64.1815 18.9941 71.7889 26.6457 71.7889 36.0575C71.7889 36.327 71.7835 36.5965 71.7671 36.8716C74.3794 38.4558 75.9916 41.3162 75.9916 44.3801C75.9916 49.2043 72.095 53.1263 67.3021 53.1263L67.3076 53.1208ZM26.3796 33.8132C21.2424 33.8132 17.0616 38.0212 17.0616 43.192C17.0616 48.3627 21.2424 52.5708 26.3796 52.5708H67.3076C71.7999 52.5708 75.4505 48.8962 75.4505 44.3746C75.4505 41.4482 73.8821 38.7253 71.3517 37.2566L71.2042 37.1741L71.2151 37.0036C71.2315 36.6846 71.2424 36.3655 71.2424 36.052C71.2424 26.9482 63.881 19.5387 54.8308 19.5387C49.6171 19.5387 44.6658 22.0635 41.5944 26.2936L41.5015 26.4201L41.3485 26.4036C40.9386 26.3651 40.5232 26.3431 40.1079 26.3431C35.1511 26.3431 30.6588 29.297 28.6749 33.8682L28.5875 34.0772L28.3689 34.0277C27.724 33.8847 27.0518 33.8132 26.3796 33.8132Z" fill="#227AA8"/>
<path d="M67.3077 53.6709H26.3797C20.6414 53.6709 15.9688 48.9678 15.9688 43.192C15.9688 37.4162 20.6414 32.713 26.3797 32.713C26.9098 32.713 27.4345 32.7515 27.9537 32.834C30.3638 27.9494 35.5009 24.9184 40.9933 25.276C44.2833 20.9909 49.4369 18.444 54.8364 18.444C64.4877 18.444 72.341 26.3431 72.341 36.0575C72.341 36.228 72.341 36.404 72.3356 36.5745C74.9424 38.2853 76.5491 41.2447 76.5491 44.3801C76.5491 49.5068 72.4066 53.6764 67.3132 53.6764L67.3077 53.6709ZM26.3797 34.3632C21.5431 34.3632 17.6083 38.3238 17.6083 43.192C17.6083 48.0601 21.5431 52.0207 26.3797 52.0207H67.3077C71.4994 52.0207 74.9042 48.5882 74.9042 44.3746C74.9042 41.6462 73.4395 39.0994 71.0786 37.7352L70.6414 37.4822L70.6742 36.9706C70.6906 36.6626 70.7015 36.3545 70.7015 36.052C70.7015 27.2508 63.586 20.0888 54.8364 20.0888C49.7921 20.0888 45.0102 22.5311 42.0426 26.6182L41.7639 26.9977L41.2994 26.9537C40.9059 26.9152 40.507 26.8932 40.1135 26.8932C35.3698 26.8932 31.0797 29.7151 29.1778 34.0882L28.9101 34.7098L28.2542 34.5668C27.6476 34.4348 27.0137 34.3632 26.3852 34.3632H26.3797Z" fill="#227AA8"/>
<path d="M47.9945 46.784H44.5242C44.1307 46.784 43.8083 46.4594 43.8083 46.0634V40.04H40.6659C40.3872 40.04 40.1303 39.875 40.0155 39.622C39.9008 39.3634 39.939 39.0609 40.1248 38.8519L45.7211 32.2619C45.9943 31.9374 46.5408 31.9429 46.8141 32.2619L52.4103 38.8519C52.5907 39.0664 52.6344 39.3689 52.5196 39.622C52.4049 39.8805 52.148 40.04 51.8693 40.04H48.7269V46.0634C48.7269 46.4594 48.4044 46.784 48.0109 46.784H47.9945ZM46.2566 32.5535C46.2075 32.5535 46.1583 32.5755 46.1255 32.614L40.5293 39.2039C40.4855 39.2534 40.4746 39.3249 40.5019 39.3854C40.5292 39.4459 40.5894 39.4844 40.6549 39.4844H44.0706C44.2236 39.4844 44.3439 39.6055 44.3439 39.7595V46.0579C44.3439 46.1514 44.4204 46.2284 44.5133 46.2284H47.9836C48.0765 46.2284 48.153 46.1514 48.153 46.0579V39.7595C48.153 39.6055 48.2733 39.4844 48.4263 39.4844H51.842C51.9075 39.4844 51.9677 39.4459 52.0004 39.3854C52.0278 39.3249 52.0168 39.2534 51.9731 39.2039L46.3769 32.614C46.3441 32.5755 46.2949 32.5535 46.2457 32.5535H46.2566Z" fill="#227AA8"/>
<path d="M47.9944 47.334H44.5241C43.8246 47.334 43.2617 46.7619 43.2617 46.0633V40.5901H40.6658C40.1739 40.5901 39.7258 40.2986 39.5181 39.853C39.3104 39.4019 39.3869 38.8684 39.7094 38.4888L45.3002 31.9044C45.5352 31.6294 45.8849 31.4698 46.262 31.4698C46.6391 31.4698 46.9889 31.6294 47.2239 31.9044L52.8201 38.4888C53.1371 38.8629 53.2136 39.3964 53.0114 39.8475C52.8037 40.2986 52.3501 40.5901 51.8637 40.5901H49.2678V46.0633C49.2678 46.7674 48.6994 47.334 48.0054 47.334H47.9944ZM44.9012 45.6838H47.6228V39.7595C47.6228 39.3029 47.989 38.9344 48.4426 38.9344H51.044L46.262 33.3071L41.4801 38.9344H44.0814C44.535 38.9344 44.9012 39.3029 44.9012 39.7595V45.6838Z" fill="#227AA8"/>
<path d="M74.7128 66.6362H71.9803C71.8272 66.6362 71.707 66.5152 71.707 66.3612C71.707 66.2071 71.8272 66.0861 71.9803 66.0861H74.7128C74.8658 66.0861 74.9861 66.2071 74.9861 66.3612C74.9861 66.5152 74.8658 66.6362 74.7128 66.6362ZM69.2477 66.6362H66.5152C66.3622 66.6362 66.2419 66.5152 66.2419 66.3612C66.2419 66.2071 66.3622 66.0861 66.5152 66.0861H69.2477C69.4007 66.0861 69.521 66.2071 69.521 66.3612C69.521 66.5152 69.4007 66.6362 69.2477 66.6362ZM63.7826 66.6362H61.0501C60.8971 66.6362 60.7769 66.5152 60.7769 66.3612C60.7769 66.2071 60.8971 66.0861 61.0501 66.0861H63.7826C63.9357 66.0861 64.0559 66.2071 64.0559 66.3612C64.0559 66.5152 63.9357 66.6362 63.7826 66.6362Z" fill="#227AA8"/>
<path d="M74.7129 67.1863H71.9804C71.5268 67.1863 71.1606 66.8177 71.1606 66.3612C71.1606 65.9046 71.5268 65.536 71.9804 65.536H74.7129C75.1665 65.536 75.5327 65.9046 75.5327 66.3612C75.5327 66.8177 75.1665 67.1863 74.7129 67.1863ZM69.2478 67.1863H66.5153C66.0617 67.1863 65.6955 66.8177 65.6955 66.3612C65.6955 65.9046 66.0617 65.536 66.5153 65.536H69.2478C69.7014 65.536 70.0676 65.9046 70.0676 66.3612C70.0676 66.8177 69.7014 67.1863 69.2478 67.1863ZM63.7828 67.1863H61.0502C60.5966 67.1863 60.2305 66.8177 60.2305 66.3612C60.2305 65.9046 60.5966 65.536 61.0502 65.536H63.7828C64.2364 65.536 64.6025 65.9046 64.6025 66.3612C64.6025 66.8177 64.2364 67.1863 63.7828 67.1863Z" fill="#227AA8"/>
<path d="M22.1825 57.3344H19.45C19.297 57.3344 19.1767 57.2134 19.1767 57.0594C19.1767 56.9053 19.297 56.7843 19.45 56.7843H22.1825C22.3356 56.7843 22.4558 56.9053 22.4558 57.0594C22.4558 57.2134 22.3356 57.3344 22.1825 57.3344ZM16.7175 57.3344H13.9849C13.8319 57.3344 13.7117 57.2134 13.7117 57.0594C13.7117 56.9053 13.8319 56.7843 13.9849 56.7843H16.7175C16.8705 56.7843 16.9907 56.9053 16.9907 57.0594C16.9907 57.2134 16.8705 57.3344 16.7175 57.3344ZM11.2524 57.3344H8.51984C8.36681 57.3344 8.24658 57.2134 8.24658 57.0594C8.24658 56.9053 8.36681 56.7843 8.51984 56.7843H11.2524C11.4054 56.7843 11.5256 56.9053 11.5256 57.0594C11.5256 57.2134 11.4054 57.3344 11.2524 57.3344Z" fill="#227AA8"/>
<path d="M22.1827 57.8845H19.4501C18.9965 57.8845 18.6304 57.5159 18.6304 57.0594C18.6304 56.6028 18.9965 56.2343 19.4501 56.2343H22.1827C22.6363 56.2343 23.0024 56.6028 23.0024 57.0594C23.0024 57.5159 22.6363 57.8845 22.1827 57.8845ZM16.7176 57.8845H13.985C13.5314 57.8845 13.1653 57.5159 13.1653 57.0594C13.1653 56.6028 13.5314 56.2343 13.985 56.2343H16.7176C17.1712 56.2343 17.5373 56.6028 17.5373 57.0594C17.5373 57.5159 17.1712 57.8845 16.7176 57.8845ZM11.2525 57.8845H8.51996C8.06636 57.8845 7.7002 57.5159 7.7002 57.0594C7.7002 56.6028 8.06636 56.2343 8.51996 56.2343H11.2525C11.7061 56.2343 12.0723 56.6028 12.0723 57.0594C12.0723 57.5159 11.7061 57.8845 11.2525 57.8845Z" fill="#227AA8"/>
<path d="M88.2662 22.8777H76.8661C75.243 22.8777 73.9204 21.5465 73.9204 19.9127C73.9204 18.279 75.243 16.9478 76.8661 16.9478C77.0027 16.9478 77.1448 16.9588 77.276 16.9753C77.9591 15.6222 79.391 14.7805 80.9157 14.8741C81.8448 13.6804 83.2821 12.9708 84.7905 12.9708C87.5011 12.9708 89.709 15.1931 89.709 17.9215C89.709 17.96 89.709 18.004 89.709 18.0425C90.4359 18.5321 90.884 19.3572 90.884 20.2428C90.884 21.695 89.709 22.8777 88.2662 22.8777ZM76.8661 17.4979C75.5435 17.4979 74.4669 18.5816 74.4669 19.9127C74.4669 21.2439 75.5435 22.3276 76.8661 22.3276H88.2662C89.4084 22.3276 90.3375 21.3924 90.3375 20.2428C90.3375 19.5002 89.9386 18.8071 89.2937 18.433C89.2062 18.3835 89.1516 18.2845 89.1571 18.18C89.1571 18.0975 89.1625 18.0095 89.1625 17.927C89.1625 15.5011 87.2006 13.5264 84.7905 13.5264C83.4023 13.5264 82.0798 14.1975 81.26 15.3251C81.2054 15.4021 81.1125 15.4461 81.0141 15.4351C79.6096 15.2921 78.2488 16.0952 77.6858 17.3934C77.6312 17.5144 77.5055 17.5804 77.3743 17.5529C77.2104 17.5144 77.0355 17.4979 76.8606 17.4979H76.8661Z" fill="#227AA8"/>
<path d="M88.2664 23.4277H76.8662C74.9425 23.4277 73.374 21.849 73.374 19.9127C73.374 17.9765 74.9425 16.3978 76.8662 16.3978C76.9045 16.3978 76.9373 16.3978 76.9755 16.3978C77.768 15.1106 79.1615 14.3185 80.6644 14.313C81.6919 13.1193 83.2166 12.4207 84.7906 12.4207C87.7526 12.4207 90.1737 14.8025 90.2556 17.762C90.9934 18.367 91.4306 19.2692 91.4306 20.2373C91.4306 21.992 90.0097 23.4222 88.2664 23.4222V23.4277ZM76.8662 18.048C75.8442 18.048 75.0135 18.8841 75.0135 19.9127C75.0135 20.9414 75.8442 21.7775 76.8662 21.7775H88.2664C89.108 21.7775 89.7911 21.0899 89.7911 20.2428C89.7911 19.6927 89.496 19.1811 89.0205 18.9061C88.7473 18.7521 88.5943 18.455 88.6107 18.1415C88.6107 18.07 88.6161 17.9985 88.6161 17.9215C88.6161 15.7982 86.9001 14.0709 84.7906 14.0709C83.5719 14.0709 82.4187 14.6595 81.7028 15.6442C81.5334 15.8807 81.2492 16.0072 80.9541 15.9797C79.801 15.8697 78.6533 16.5353 78.1833 17.6134C78.0248 17.9765 77.6313 18.1745 77.2542 18.0865C77.1285 18.059 76.9974 18.0425 76.8607 18.0425L76.8662 18.048Z" fill="#227AA8"/>
<path d="M92.2721 25.551H76.4671C76.3141 25.551 76.1938 25.43 76.1938 25.276C76.1938 25.122 76.3141 25.0009 76.4671 25.0009H92.2721C92.4251 25.0009 92.5454 25.122 92.5454 25.276C92.5454 25.43 92.4251 25.551 92.2721 25.551Z" fill="#227AA8"/>
<path d="M92.2722 26.0956H76.4672C76.0136 26.0956 75.6475 25.727 75.6475 25.2705C75.6475 24.8139 76.0136 24.4454 76.4672 24.4454H92.2722C92.7258 24.4454 93.092 24.8139 93.092 25.2705C93.092 25.727 92.7258 26.0956 92.2722 26.0956Z" fill="#227AA8"/>
<path d="M87.5127 55.3321C87.458 55.3321 87.4034 55.3156 87.3542 55.2826L84.8894 53.5499C84.7637 53.4619 84.7364 53.2914 84.8239 53.1648C84.9113 53.0383 85.0807 53.0108 85.2064 53.0988L87.6712 54.8316C87.7969 54.9196 87.8242 55.0901 87.7367 55.2166C87.6821 55.2936 87.6001 55.3321 87.5127 55.3321Z" fill="#227AA8"/>
<path d="M87.5125 55.8822C87.3431 55.8822 87.1846 55.8327 87.0425 55.7337L84.5777 54.0009C84.2061 53.7424 84.1187 53.2253 84.3755 52.8513C84.6324 52.4772 85.1461 52.3892 85.5177 52.6478L87.9825 54.3805C88.1628 54.507 88.2831 54.694 88.3213 54.9141C88.3596 55.1286 88.3104 55.3486 88.1847 55.5302C88.0317 55.7502 87.7803 55.8822 87.5125 55.8822Z" fill="#227AA8"/>
<path d="M83.5281 51.5476C83.3751 51.5476 83.2549 51.4266 83.2549 51.2726V48.6047C83.2549 48.4507 83.3751 48.3297 83.5281 48.3297C83.6812 48.3297 83.8014 48.4507 83.8014 48.6047V51.2726C83.8014 51.4266 83.6812 51.5476 83.5281 51.5476Z" fill="#227AA8"/>
<path d="M83.5283 52.0977C83.0747 52.0977 82.7085 51.7291 82.7085 51.2726V48.6047C82.7085 48.1481 83.0747 47.7796 83.5283 47.7796C83.9819 47.7796 84.348 48.1481 84.348 48.6047V51.2726C84.348 51.7291 83.9819 52.0977 83.5283 52.0977Z" fill="#227AA8"/>
<path d="M79.5386 55.3321C79.4512 55.3321 79.3692 55.2936 79.3145 55.2166C79.2271 55.0901 79.2599 54.9196 79.3801 54.8316L81.8449 53.0988C81.9651 53.0108 82.14 53.0438 82.2274 53.1648C82.3149 53.2914 82.2821 53.4619 82.1618 53.5499L79.6971 55.2826C79.6479 55.3156 79.5933 55.3321 79.5386 55.3321Z" fill="#227AA8"/>
<path d="M79.5388 55.8822C79.271 55.8822 79.0196 55.7502 78.8666 55.5302C78.7409 55.3486 78.6917 55.1286 78.73 54.9141C78.7682 54.6995 78.8884 54.507 79.0688 54.3805L81.5335 52.6478C81.9052 52.3892 82.4189 52.4772 82.6757 52.8513C82.9326 53.2253 82.8452 53.7424 82.4735 54.0009L80.0088 55.7337C79.8722 55.8327 79.7082 55.8822 79.5388 55.8822Z" fill="#227AA8"/>
<path d="M83.5281 61.7185C82.7083 61.7185 82.0361 61.0474 82.0361 60.2168C82.0361 59.3862 82.7029 58.7151 83.5281 58.7151C84.3533 58.7151 85.0201 59.3862 85.0201 60.2168C85.0201 61.0474 84.3533 61.7185 83.5281 61.7185ZM83.5281 59.2707C83.0089 59.2707 82.5826 59.6942 82.5826 60.2223C82.5826 60.7504 83.0034 61.1739 83.5281 61.1739C84.0527 61.1739 84.4736 60.7504 84.4736 60.2223C84.4736 59.6942 84.0473 59.2707 83.5281 59.2707Z" fill="#227AA8"/>
<path d="M83.5282 62.2686C82.4079 62.2686 81.4897 61.35 81.4897 60.2168C81.4897 59.0836 82.4024 58.165 83.5282 58.165C84.654 58.165 85.5667 59.0836 85.5667 60.2168C85.5667 61.35 84.654 62.2686 83.5282 62.2686ZM83.5282 59.8207C83.3096 59.8207 83.1293 60.0023 83.1293 60.2223C83.1293 60.4423 83.3096 60.6239 83.5282 60.6239C83.7468 60.6239 83.9272 60.4423 83.9272 60.2223C83.9272 60.0023 83.7468 59.8207 83.5282 59.8207Z" fill="#227AA8"/>
<path d="M71.8058 76.5045C71.4397 76.5045 71.0954 76.3615 70.8385 76.103L69.5324 74.7883C69.0022 74.2547 69.0022 73.3801 69.5324 72.841L70.8385 71.5264C71.3522 71.0093 72.254 71.0093 72.7731 71.5264L74.0793 72.841C74.6094 73.3801 74.6094 74.2492 74.0793 74.7883L72.7731 76.103C72.5163 76.3615 72.172 76.5045 71.8058 76.5045ZM71.8058 71.6804C71.5872 71.6804 71.3795 71.7684 71.2265 71.9224L69.9204 73.2371C69.6034 73.5616 69.6034 74.0842 69.9204 74.4033L71.2265 75.7179C71.538 76.0315 72.0736 76.0315 72.3851 75.7179L73.6913 74.4033C74.0082 74.0842 74.0082 73.5561 73.6913 73.2371L72.3851 71.9224C72.2321 71.7684 72.0244 71.6804 71.8058 71.6804Z" fill="#227AA8"/>
<path d="M71.8057 77.0546C71.292 77.0546 70.8166 76.8566 70.4559 76.4881L69.1497 75.1734C68.789 74.8103 68.5923 74.3262 68.5923 73.8092C68.5923 73.2921 68.789 72.8135 69.1497 72.4505L70.4559 71.1358C70.8056 70.7838 71.2975 70.5857 71.8057 70.5857C72.3195 70.5857 72.8113 70.7838 73.1556 71.1358L74.4618 72.4505C75.205 73.1986 75.205 74.4198 74.4618 75.1734L73.1556 76.4881C72.7949 76.8511 72.314 77.0546 71.8057 77.0546ZM71.8057 72.2305C71.7292 72.2305 71.6637 72.258 71.6145 72.313L70.3083 73.6277C70.199 73.7377 70.199 73.9082 70.3083 74.0182L71.6145 75.3329C71.7074 75.4264 71.9096 75.4264 72.0025 75.3329L73.3086 74.0182C73.4125 73.9137 73.4125 73.7377 73.3086 73.6277L72.0025 72.313C71.9478 72.258 71.8823 72.2305 71.8112 72.2305H71.8057Z" fill="#227AA8"/>
<path d="M78.757 76.5045C78.4072 76.5045 78.0575 76.3725 77.7897 76.103L76.4835 74.7883C75.9534 74.2547 75.9534 73.3801 76.4835 72.841L77.7897 71.5264C78.3198 70.9928 79.1887 70.9873 79.7243 71.5264L81.0305 72.841C81.5606 73.3746 81.5606 74.2492 81.0305 74.7883L79.7243 76.103C79.4565 76.3725 79.1068 76.5045 78.757 76.5045ZM78.757 71.6804C78.5493 71.6804 78.3362 71.7629 78.1777 71.9224L76.8715 73.2371C76.5546 73.5616 76.5546 74.0842 76.8715 74.4033L78.1777 75.7179C78.5001 76.0425 79.0193 76.037 79.3363 75.7179L80.6424 74.4033C80.9594 74.0842 80.9594 73.5561 80.6424 73.2371L79.3363 71.9224C79.1778 71.7629 78.9647 71.6804 78.757 71.6804Z" fill="#227AA8"/>
<path d="M78.7571 77.0546C78.2434 77.0546 77.7679 76.8566 77.4072 76.4935L76.1011 75.1789C75.3524 74.4308 75.3524 73.2096 76.1011 72.456L77.4072 71.1413C77.7679 70.7783 78.2489 70.5802 78.7571 70.5802C79.2708 70.5802 79.7463 70.7783 80.107 71.1413L81.4131 72.456C82.1619 73.2041 82.1619 74.4253 81.4131 75.1789L80.107 76.4935C79.7463 76.8566 79.2654 77.0546 78.7517 77.0546H78.7571ZM78.7571 72.2305C78.6861 72.2305 78.615 72.258 78.5604 72.313L77.2597 73.6277C77.1504 73.7377 77.1504 73.9082 77.2597 74.0182L78.5658 75.3329C78.6751 75.4429 78.8446 75.4374 78.9539 75.3329L80.2546 74.0182C80.3639 73.9082 80.3639 73.7377 80.2546 73.6277L78.9484 72.313C78.8992 72.2635 78.8282 72.2305 78.7571 72.2305Z" fill="#227AA8"/>
<path d="M16.7669 54.122H1.32257C1.16955 54.122 1.04932 54.0009 1.04932 53.8469C1.04932 53.6929 1.16955 53.5719 1.32257 53.5719H16.7669C16.9199 53.5719 17.0401 53.6929 17.0401 53.8469C17.0401 54.0009 16.9199 54.122 16.7669 54.122Z" fill="#227AA8"/>
<path d="M16.767 54.672H1.32269C0.86909 54.672 0.50293 54.3035 0.50293 53.8469C0.50293 53.3904 0.86909 53.0218 1.32269 53.0218H16.767C17.2206 53.0218 17.5868 53.3904 17.5868 53.8469C17.5868 54.3035 17.2206 54.672 16.767 54.672Z" fill="#227AA8"/>
<path d="M22.1223 9.60983C21.3026 9.60983 20.6304 8.93873 20.6304 8.10812C20.6304 7.2775 21.2971 6.60641 22.1223 6.60641C22.9476 6.60641 23.6143 7.2775 23.6143 8.10812C23.6143 8.93873 22.9476 9.60983 22.1223 9.60983ZM22.1223 7.16199C21.6032 7.16199 21.1769 7.58555 21.1769 8.11362C21.1769 8.64169 21.6032 9.06525 22.1223 9.06525C22.6415 9.06525 23.0678 8.64169 23.0678 8.11362C23.0678 7.58555 22.647 7.16199 22.1223 7.16199Z" fill="#227AA8"/>
<path d="M22.1225 10.1599C20.9967 10.1599 20.084 9.24127 20.084 8.10812C20.084 6.97496 20.9967 6.05634 22.1225 6.05634C23.2483 6.05634 24.1609 6.97496 24.1609 8.10812C24.1609 9.24127 23.2483 10.1599 22.1225 10.1599ZM22.1225 7.71206C21.9039 7.71206 21.7235 7.89359 21.7235 8.11362C21.7235 8.33365 21.9039 8.51517 22.1225 8.51517C22.3411 8.51517 22.5214 8.33365 22.5214 8.11362C22.5214 7.89359 22.3411 7.71206 22.1225 7.71206Z" fill="#227AA8"/>
<path d="M96.4201 27.7733H86.0091C85.8561 27.7733 85.7358 27.6523 85.7358 27.4983C85.7358 27.3443 85.8561 27.2233 86.0091 27.2233H96.4201C96.5731 27.2233 96.6933 27.3443 96.6933 27.4983C96.6933 27.6523 96.5731 27.7733 96.4201 27.7733Z" fill="#227AA8"/>
<path d="M96.4202 28.3234H86.0092C85.5556 28.3234 85.1895 27.9549 85.1895 27.4983C85.1895 27.0417 85.5556 26.6732 86.0092 26.6732H96.4202C96.8738 26.6732 97.2399 27.0417 97.2399 27.4983C97.2399 27.9549 96.8738 28.3234 96.4202 28.3234Z" fill="#227AA8"/>
<path d="M95.7701 73.1711H94.9668C94.8137 73.1711 94.6935 73.0501 94.6935 72.8961C94.6935 72.742 94.8137 72.621 94.9668 72.621H95.7701C96.1308 72.621 96.4259 72.324 96.4259 71.9609V60.9759C96.4259 60.6129 96.1308 60.3158 95.7701 60.3158H88.988C88.6273 60.3158 88.3322 60.6129 88.3322 60.9759V61.8725C88.3322 62.0266 88.2119 62.1476 88.0589 62.1476C87.9059 62.1476 87.7856 62.0266 87.7856 61.8725V60.9759C87.7856 60.3103 88.3267 59.7657 88.988 59.7657H95.7701C96.4314 59.7657 96.9724 60.3103 96.9724 60.9759V71.9609C96.9724 72.6265 96.4314 73.1711 95.7701 73.1711Z" fill="#227AA8"/>
<path d="M95.7702 73.7212H94.9669C94.5133 73.7212 94.1471 73.3526 94.1471 72.8961C94.1471 72.4395 94.5133 72.0709 94.9669 72.0709H95.7702C95.8304 72.0709 95.8795 72.0214 95.8795 71.9609V60.9759C95.8795 60.9154 95.8304 60.8659 95.7702 60.8659H88.9881C88.928 60.8659 88.8788 60.9154 88.8788 60.9759V61.8725C88.8788 62.3291 88.5126 62.6976 88.059 62.6976C87.6054 62.6976 87.2393 62.3291 87.2393 61.8725V60.9759C87.2393 60.0023 88.0262 59.2157 88.9881 59.2157H95.7702C96.7376 59.2157 97.5191 60.0078 97.5191 60.9759V71.9609C97.5191 72.9346 96.7321 73.7212 95.7702 73.7212Z" fill="#227AA8"/>
<path d="M93.7696 74.6673L86.829 74.6453C86.4738 74.6453 86.1404 74.5023 85.889 74.2492C85.6376 73.9962 85.501 73.6552 85.501 73.2976L85.5283 64.3864C85.5283 64.2324 85.6485 64.1113 85.8016 64.1113C85.9546 64.1113 86.0748 64.2379 86.0748 64.3864L86.0475 73.2976C86.0475 73.7322 86.3973 74.0897 86.829 74.0897L93.7696 74.1117C94.2014 74.1117 94.5512 73.7597 94.5566 73.3251L94.5949 62.6976C94.5949 62.2631 94.2451 61.9055 93.8134 61.9055L88.6379 61.889C88.4849 61.889 88.3647 61.7625 88.3647 61.614C88.3647 61.46 88.4849 61.339 88.6379 61.339L93.8134 61.3555C94.5457 61.3555 95.1414 61.9605 95.1414 62.7031L95.1031 73.3306C95.1031 74.0677 94.502 74.6673 93.7696 74.6673Z" fill="#227AA8"/>
<path d="M93.7699 75.2174L86.8237 75.1954C86.3209 75.1954 85.851 74.9973 85.4957 74.6343C85.1405 74.2767 84.9492 73.7982 84.9492 73.2976L84.9765 64.3864C84.9765 63.9298 85.3482 63.5613 85.7963 63.5613C86.0149 63.5613 86.2226 63.6493 86.3756 63.8033C86.5286 63.9573 86.6161 64.1664 86.6161 64.3864L86.5887 73.2976C86.5887 73.3856 86.6325 73.4406 86.6598 73.4681C86.6871 73.4956 86.7418 73.5396 86.8292 73.5396L93.7699 73.5616C93.8956 73.5616 94.0048 73.4516 94.0048 73.3196L94.0431 62.6921C94.0431 62.6041 93.9994 62.5491 93.9721 62.5216C93.9447 62.4941 93.8901 62.4501 93.8026 62.4501L88.6272 62.4336C88.4086 62.4336 88.2009 62.3456 88.0479 62.1916C87.8949 62.0376 87.8075 61.8285 87.8075 61.6085C87.8075 61.1574 88.1791 60.7834 88.6272 60.7834L93.8026 60.7999C94.3054 60.7999 94.7754 60.9979 95.1307 61.361C95.4859 61.724 95.6772 62.1971 95.6772 62.6976L95.6389 73.3251C95.6389 74.3648 94.7918 75.2119 93.7589 75.2119L93.7699 75.2174Z" fill="#227AA8"/>
<path d="M88.3487 64.931L85.802 64.9199C85.6982 64.9199 85.6052 64.8594 85.5561 64.7659C85.5342 64.7164 85.5233 64.6614 85.5287 64.6119C85.5287 64.5899 85.5287 64.5459 85.5287 64.4304C85.5233 64.1058 85.649 63.8033 85.8894 63.5723L87.8623 61.669C88.0864 61.4545 88.3706 61.3555 88.6712 61.3445C88.8351 61.3445 88.8788 61.3445 88.8898 61.3445C88.9608 61.3445 89.0373 61.372 89.092 61.4215C89.1466 61.471 89.1739 61.5425 89.1739 61.6195L89.163 64.1113C89.163 64.5624 88.7968 64.931 88.3432 64.931H88.3487ZM86.0752 64.3754H88.3432V64.3809C88.4908 64.3809 88.6165 64.2599 88.6165 64.1113V61.8945C88.5181 61.9 88.3706 61.9385 88.2394 62.0706L86.2665 63.9738C86.1244 64.1113 86.0862 64.2599 86.0752 64.3754Z" fill="#227AA8"/>
<path d="M88.3486 65.481L85.7965 65.47C85.4849 65.47 85.2062 65.294 85.0641 65.0135C84.9931 64.8759 84.9658 64.7164 84.9822 64.5569C84.9822 64.5624 84.9822 64.5404 84.9822 64.4414C84.9712 63.9628 85.1625 63.5118 85.5123 63.1762L87.4852 61.2729C87.7912 60.9814 88.1901 60.8164 88.6438 60.7944H88.8624C89.0755 60.7889 89.3105 60.8714 89.4744 61.0309C89.6329 61.1849 89.7258 61.405 89.7258 61.625L89.7149 64.1168C89.7149 64.8704 89.1028 65.4865 88.3486 65.4865V65.481ZM87.2119 63.8253H88.0754V62.9947L87.2064 63.8253H87.2119Z" fill="#227AA8"/>
<path d="M95.8304 33.2411C95.7485 33.2411 95.661 33.2026 95.6064 33.1256C95.5189 33.0046 95.5463 32.8285 95.6665 32.7405L98.1039 30.9638L95.6556 29.044C95.5353 28.9505 95.5135 28.78 95.6064 28.659C95.6993 28.5379 95.8687 28.5159 95.9889 28.6094L98.7215 30.7547C98.787 30.8097 98.8308 30.8923 98.8253 30.9748C98.8253 31.0628 98.7816 31.1398 98.7105 31.1948L95.978 33.1861C95.9288 33.2191 95.8742 33.2411 95.8195 33.2411H95.8304Z" fill="#227AA8"/>
<path d="M95.8302 33.7912C95.5679 33.7912 95.322 33.6646 95.1689 33.4501C95.0378 33.2686 94.9886 33.0541 95.0214 32.834C95.0542 32.614 95.1744 32.427 95.3493 32.295L97.1965 30.9473L95.322 29.4731C94.9667 29.1925 94.9012 28.6755 95.1799 28.3179C95.3165 28.1419 95.5078 28.0319 95.7264 28.0044C95.9395 27.9769 96.1581 28.0374 96.333 28.1749L99.0655 30.3202C99.2677 30.4797 99.388 30.7272 99.3825 30.9858C99.3825 31.2443 99.2513 31.4918 99.0437 31.6404L96.3111 33.6316C96.1745 33.7362 96.0051 33.7912 95.8302 33.7912Z" fill="#227AA8"/>
<path d="M11.0064 47.3615C11.4954 47.3615 11.8918 46.9626 11.8918 46.4704C11.8918 45.9783 11.4954 45.5793 11.0064 45.5793C10.5175 45.5793 10.1211 45.9783 10.1211 46.4704C10.1211 46.9626 10.5175 47.3615 11.0064 47.3615Z" fill="#227AA8"/>
<path d="M11.0066 47.9116C10.2141 47.9116 9.57471 47.2625 9.57471 46.4704C9.57471 45.6783 10.2196 45.0292 11.0066 45.0292C11.7935 45.0292 12.4384 45.6783 12.4384 46.4704C12.4384 47.2625 11.7935 47.9116 11.0066 47.9116ZM11.0066 46.1239C10.8207 46.1239 10.6677 46.2779 10.6677 46.4649C10.6677 46.6519 10.8207 46.806 11.0066 46.806C11.1924 46.806 11.3454 46.6519 11.3454 46.4649C11.3454 46.2779 11.1924 46.1239 11.0066 46.1239Z" fill="#227AA8"/>
<path d="M98.5626 51.9877C99.0516 51.9877 99.4479 51.5887 99.4479 51.0965C99.4479 50.6044 99.0516 50.2054 98.5626 50.2054C98.0736 50.2054 97.6772 50.6044 97.6772 51.0965C97.6772 51.5887 98.0736 51.9877 98.5626 51.9877Z" fill="#227AA8"/>
<path d="M98.5627 52.5377C97.7703 52.5377 97.1309 51.8887 97.1309 51.0965C97.1309 50.3044 97.7757 49.6553 98.5627 49.6553C99.3497 49.6553 99.9946 50.3044 99.9946 51.0965C99.9946 51.8887 99.3497 52.5377 98.5627 52.5377ZM98.5627 50.75C98.3769 50.75 98.2239 50.904 98.2239 51.091C98.2239 51.2781 98.3769 51.4321 98.5627 51.4321C98.7485 51.4321 98.9015 51.2781 98.9015 51.091C98.9015 50.904 98.7485 50.75 98.5627 50.75Z" fill="#227AA8"/>
<path d="M59.7716 16.4748C60.2605 16.4748 60.6569 16.0758 60.6569 15.5836C60.6569 15.0915 60.2605 14.6925 59.7716 14.6925C59.2826 14.6925 58.8862 15.0915 58.8862 15.5836C58.8862 16.0758 59.2826 16.4748 59.7716 16.4748Z" fill="#227AA8"/>
<path d="M59.7717 17.0248C58.9793 17.0248 58.3398 16.3758 58.3398 15.5836C58.3398 14.7915 58.9847 14.1425 59.7717 14.1425C60.5587 14.1425 61.2035 14.7915 61.2035 15.5836C61.2035 16.3758 60.5587 17.0248 59.7717 17.0248ZM59.7717 15.2371C59.5859 15.2371 59.4329 15.3911 59.4329 15.5781C59.4329 15.7652 59.5859 15.9192 59.7717 15.9192C59.9575 15.9192 60.1105 15.7652 60.1105 15.5781C60.1105 15.3911 59.9575 15.2371 59.7717 15.2371Z" fill="#227AA8"/>
<path d="M52.295 75.2834C52.784 75.2834 53.1804 74.8844 53.1804 74.3923C53.1804 73.9001 52.784 73.5011 52.295 73.5011C51.8061 73.5011 51.4097 73.9001 51.4097 74.3923C51.4097 74.8844 51.8061 75.2834 52.295 75.2834Z" fill="#227AA8"/>
<path d="M52.2951 75.8335C51.5027 75.8335 50.8633 75.1844 50.8633 74.3923C50.8633 73.6002 51.5082 72.9511 52.2951 72.9511C53.0821 72.9511 53.727 73.6002 53.727 74.3923C53.727 75.1844 53.0821 75.8335 52.2951 75.8335ZM52.2951 74.0457C52.1093 74.0457 51.9563 74.1997 51.9563 74.3868C51.9563 74.5738 52.1093 74.7278 52.2951 74.7278C52.4809 74.7278 52.634 74.5738 52.634 74.3868C52.634 74.1997 52.4809 74.0457 52.2951 74.0457Z" fill="#227AA8"/>
<path d="M73.4508 12.3437C73.9397 12.3437 74.3361 11.9447 74.3361 11.4526C74.3361 10.9604 73.9397 10.5615 73.4508 10.5615C72.9618 10.5615 72.5654 10.9604 72.5654 11.4526C72.5654 11.9447 72.9618 12.3437 73.4508 12.3437Z" fill="#227AA8"/>
<path d="M73.4563 12.8938C72.6638 12.8938 72.0244 12.2447 72.0244 11.4526C72.0244 10.6605 72.6693 10.0114 73.4563 10.0114C74.2432 10.0114 74.8881 10.6605 74.8881 11.4526C74.8881 12.2447 74.2432 12.8938 73.4563 12.8938ZM73.4563 11.106C73.2705 11.106 73.1174 11.2601 73.1174 11.4471C73.1174 11.6341 73.2705 11.7881 73.4563 11.7881C73.6421 11.7881 73.7951 11.6341 73.7951 11.4471C73.7951 11.2601 73.6421 11.106 73.4563 11.106Z" fill="#227AA8"/>
<path d="M32.692 15.0171C33.1809 15.0171 33.5773 14.6181 33.5773 14.1259C33.5773 13.6338 33.1809 13.2348 32.692 13.2348C32.203 13.2348 31.8066 13.6338 31.8066 14.1259C31.8066 14.6181 32.203 15.0171 32.692 15.0171Z" fill="#227AA8"/>
<path d="M32.6921 15.5671C31.8997 15.5671 31.2603 14.9181 31.2603 14.1259C31.2603 13.3338 31.9051 12.6847 32.6921 12.6847C33.4791 12.6847 34.124 13.3338 34.124 14.1259C34.124 14.9181 33.4791 15.5671 32.6921 15.5671ZM32.6921 13.7794C32.5063 13.7794 32.3533 13.9334 32.3533 14.1204C32.3533 14.3075 32.5063 14.4615 32.6921 14.4615C32.8779 14.4615 33.0309 14.3075 33.0309 14.1204C33.0309 13.9334 32.8779 13.7794 32.6921 13.7794Z" fill="#227AA8"/>
<path d="M62.7445 5.53376C62.6899 5.53376 62.6352 5.51726 62.5861 5.48426L60.8919 4.29609C60.7662 4.20808 60.7389 4.03756 60.8263 3.91104C60.9137 3.78452 61.0832 3.75702 61.2089 3.84503L62.903 5.03319C63.0287 5.12121 63.0561 5.29173 62.9686 5.41825C62.914 5.49526 62.832 5.53376 62.7445 5.53376Z" fill="#227AA8"/>
<path d="M62.7447 6.08384C62.5753 6.08384 62.4168 6.03433 62.2747 5.93532L60.5805 4.74715C60.4002 4.62064 60.2799 4.43361 60.2417 4.21358C60.2034 3.99905 60.2526 3.77902 60.3783 3.5975C60.6406 3.22344 61.1543 3.13543 61.5205 3.39397L63.2147 4.58213C63.5863 4.84067 63.6737 5.35774 63.4169 5.73179C63.2639 5.95182 63.0125 6.08384 62.7447 6.08384Z" fill="#227AA8"/>
<path d="M60.0008 2.9319C59.8478 2.9319 59.7275 2.81089 59.7275 2.65687V0.825113C59.7275 0.671092 59.8478 0.550076 60.0008 0.550076C60.1538 0.550076 60.274 0.671092 60.274 0.825113V2.65687C60.274 2.81089 60.1538 2.9319 60.0008 2.9319Z" fill="#227AA8"/>
<path d="M60.0009 3.48198C59.5473 3.48198 59.1812 3.11343 59.1812 2.65687V0.825114C59.1812 0.368551 59.5473 0 60.0009 0C60.4545 0 60.8207 0.368551 60.8207 0.825114V2.65687C60.8207 3.11343 60.4545 3.48198 60.0009 3.48198Z" fill="#227AA8"/>
<path d="M57.2632 5.53376C57.1758 5.53376 57.0938 5.49526 57.0391 5.41825C56.9517 5.29173 56.9845 5.12121 57.1047 5.03319L58.7989 3.84503C58.9191 3.75702 59.094 3.79002 59.1815 3.91104C59.2689 4.03756 59.2361 4.20808 59.1159 4.29609L57.4217 5.48426C57.3725 5.51726 57.3179 5.53376 57.2632 5.53376Z" fill="#227AA8"/>
<path d="M57.2631 6.08384C56.9953 6.08384 56.7439 5.95182 56.5909 5.73179C56.334 5.35774 56.4214 4.84067 56.7931 4.58213L58.4872 3.39397C58.8589 3.13543 59.3726 3.22344 59.6294 3.5975C59.7551 3.77902 59.8043 3.99905 59.7661 4.21358C59.7278 4.42811 59.6076 4.62064 59.4272 4.74715L57.733 5.93532C57.5964 6.03433 57.4325 6.08384 57.2631 6.08384Z" fill="#227AA8"/>
<path d="M92.1248 56.3828C91.9718 56.3828 91.8516 56.2618 91.8516 56.1077V53.3574C91.8516 53.2033 91.9718 53.0823 92.1248 53.0823C92.2779 53.0823 92.3981 53.2033 92.3981 53.3574V56.1077C92.3981 56.2618 92.2779 56.3828 92.1248 56.3828ZM92.1248 50.882C91.9718 50.882 91.8516 50.761 91.8516 50.607V47.8566C91.8516 47.7026 91.9718 47.5816 92.1248 47.5816C92.2779 47.5816 92.3981 47.7026 92.3981 47.8566V50.607C92.3981 50.761 92.2779 50.882 92.1248 50.882ZM92.1248 45.3813C91.9718 45.3813 91.8516 45.2602 91.8516 45.1062V42.3558C91.8516 42.2018 91.9718 42.0808 92.1248 42.0808C92.2779 42.0808 92.3981 42.2018 92.3981 42.3558V45.1062C92.3981 45.2602 92.2779 45.3813 92.1248 45.3813ZM90.8515 41.1622H88.1189C87.9659 41.1622 87.8457 41.0412 87.8457 40.8871C87.8457 40.7331 87.9659 40.6121 88.1189 40.6121H90.8515C91.0045 40.6121 91.1247 40.7331 91.1247 40.8871C91.1247 41.0412 91.0045 41.1622 90.8515 41.1622ZM85.3864 41.1622H82.6539C82.5008 41.1622 82.3806 41.0412 82.3806 40.8871C82.3806 40.7331 82.5008 40.6121 82.6539 40.6121H85.3864C85.5394 40.6121 85.6597 40.7331 85.6597 40.8871C85.6597 41.0412 85.5394 41.1622 85.3864 41.1622ZM79.9213 41.1622H77.1888C77.0358 41.1622 76.9155 41.0412 76.9155 40.8871C76.9155 40.7331 77.0358 40.6121 77.1888 40.6121H79.9213C80.0743 40.6121 80.1946 40.7331 80.1946 40.8871C80.1946 41.0412 80.0743 41.1622 79.9213 41.1622Z" fill="#227AA8"/>
<path d="M92.125 56.9329C91.6714 56.9329 91.3052 56.5643 91.3052 56.1077V53.3574C91.3052 52.9008 91.6714 52.5322 92.125 52.5322C92.5786 52.5322 92.9447 52.9008 92.9447 53.3574V56.1077C92.9447 56.5643 92.5786 56.9329 92.125 56.9329ZM92.125 51.4321C91.6714 51.4321 91.3052 51.0635 91.3052 50.607V47.8566C91.3052 47.4 91.6714 47.0315 92.125 47.0315C92.5786 47.0315 92.9447 47.4 92.9447 47.8566V50.607C92.9447 51.0635 92.5786 51.4321 92.125 51.4321ZM92.125 45.9313C91.6714 45.9313 91.3052 45.5628 91.3052 45.1062V42.3558C91.3052 41.8993 91.6714 41.5307 92.125 41.5307C92.5786 41.5307 92.9447 41.8993 92.9447 42.3558V45.1062C92.9447 45.5628 92.5786 45.9313 92.125 45.9313ZM90.8516 41.7123H88.1191C87.6655 41.7123 87.2993 41.3437 87.2993 40.8871C87.2993 40.4306 87.6655 40.062 88.1191 40.062H90.8516C91.3052 40.062 91.6714 40.4306 91.6714 40.8871C91.6714 41.3437 91.3052 41.7123 90.8516 41.7123ZM85.3865 41.7123H82.654C82.2004 41.7123 81.8342 41.3437 81.8342 40.8871C81.8342 40.4306 82.2004 40.062 82.654 40.062H85.3865C85.8401 40.062 86.2063 40.4306 86.2063 40.8871C86.2063 41.3437 85.8401 41.7123 85.3865 41.7123ZM79.9214 41.7123H77.1889C76.7353 41.7123 76.3691 41.3437 76.3691 40.8871C76.3691 40.4306 76.7353 40.062 77.1889 40.062H79.9214C80.375 40.062 80.7412 40.4306 80.7412 40.8871C80.7412 41.3437 80.375 41.7123 79.9214 41.7123Z" fill="#227AA8"/>
<path d="M52.2951 16.3483C52.1421 16.3483 52.0219 16.2272 52.0219 16.0732V13.3228C52.0219 13.1688 52.1421 13.0478 52.2951 13.0478C52.4481 13.0478 52.5684 13.1688 52.5684 13.3228V16.0732C52.5684 16.2272 52.4481 16.3483 52.2951 16.3483ZM52.2951 10.8475C52.1421 10.8475 52.0219 10.7265 52.0219 10.5725V7.82208C52.0219 7.66806 52.1421 7.54704 52.2951 7.54704C52.4481 7.54704 52.5684 7.66806 52.5684 7.82208V10.5725C52.5684 10.7265 52.4481 10.8475 52.2951 10.8475ZM52.2951 5.34674C52.1421 5.34674 52.0219 5.22572 52.0219 5.0717V4.86267H50.0435C49.8905 4.86267 49.7703 4.74165 49.7703 4.58763C49.7703 4.43361 49.8905 4.31259 50.0435 4.31259H52.2951C52.4481 4.31259 52.5684 4.43361 52.5684 4.58763V5.0717C52.5684 5.22572 52.4481 5.34674 52.2951 5.34674ZM47.311 4.86267H44.5784C44.4254 4.86267 44.3052 4.74165 44.3052 4.58763C44.3052 4.43361 44.4254 4.31259 44.5784 4.31259H47.311C47.464 4.31259 47.5842 4.43361 47.5842 4.58763C47.5842 4.74165 47.464 4.86267 47.311 4.86267Z" fill="#227AA8"/>
<path d="M52.2952 16.8983C51.8416 16.8983 51.4755 16.5298 51.4755 16.0732V13.3228C51.4755 12.8663 51.8416 12.4977 52.2952 12.4977C52.7488 12.4977 53.115 12.8663 53.115 13.3228V16.0732C53.115 16.5298 52.7488 16.8983 52.2952 16.8983ZM52.2952 11.3976C51.8416 11.3976 51.4755 11.029 51.4755 10.5725V7.82208C51.4755 7.36552 51.8416 6.99696 52.2952 6.99696C52.7488 6.99696 53.115 7.36552 53.115 7.82208V10.5725C53.115 11.029 52.7488 11.3976 52.2952 11.3976ZM52.2952 5.89681C51.9619 5.89681 51.6777 5.69879 51.5465 5.41275H50.0382C49.5846 5.41275 49.2184 5.0442 49.2184 4.58763C49.2184 4.13107 49.5846 3.76252 50.0382 3.76252H52.2898C52.7434 3.76252 53.1095 4.13107 53.1095 4.58763V5.0717C53.1095 5.52826 52.7434 5.89681 52.2898 5.89681H52.2952ZM47.3111 5.41275H44.5786C44.1249 5.41275 43.7588 5.0442 43.7588 4.58763C43.7588 4.13107 44.1249 3.76252 44.5786 3.76252H47.3111C47.7647 3.76252 48.1309 4.13107 48.1309 4.58763C48.1309 5.0442 47.7647 5.41275 47.3111 5.41275Z" fill="#227AA8"/>
</g>
<defs>
<clipPath id="clip0_16_2110">
<rect width="100" height="87" fill="white"/>
</clipPath>
</defs>
</svg>
