<?xml version="1.0" encoding="UTF-8"?>
<svg id="Layer_2" data-name="Layer 2" xmlns="http://www.w3.org/2000/svg" viewBox="0 0 81.02 81">
  <defs>
    <style>
      .cls-1 {
        fill: #227aa8;
      }

      .cls-1, .cls-2 {
        stroke-width: 0px;
      }

      .cls-2 {
        fill: #fff;
      }
    </style>
  </defs>
  <g id="Layer_1-2" data-name="Layer 1">
    <g>
      <g>
        <path class="cls-1" d="m19.8,10.25v1.27c0,.78-.64,1.44-1.4,1.51-.04.01-.09.01-.13.01-.45,0-.87-.22-1.15-.55v-.97c0-.68.6-1.27,1.28-1.27h1.4Z"/>
        <path class="cls-1" d="m63.84,1.27v8.91c-.31-.27-.71-.43-1.13-.43h-1.26V2.41H19.55v7.34h-1.15c-.57,0-1.09.29-1.41.72V1.27c0-.68.6-1.27,1.28-1.27h44.31c.67,0,1.26.59,1.26,1.27Z"/>
        <path class="cls-1" d="m63.99,11.52v.44c-.08.18-.19.36-.34.51-.27.27-.62.43-.94.43h-.19c-.69-.09-1.25-.69-1.31-1.38-.01-.04-.01-.08-.01-.12v-1.15h1.51c.48,0,.92.29,1.13.7.1.17.15.37.15.57Z"/>
        <path class="cls-2" d="m63.84,10.95v.57c0,.25-.14.54-.37.77-.22.23-.51.36-.76.36h-.18c-.56-.08-1.01-.58-1.07-1.13-.01-.04-.01-.08-.01-.12v-1.15h-.5v1.15s0,.08.01.12c.05.81.7,1.52,1.51,1.63h.24c.38,0,.8-.18,1.12-.5.06-.06.12-.13.16-.2v-.93c0-.2-.05-.4-.15-.57Zm-44.29-.7v1.27c0,.64-.52,1.19-1.15,1.25-.04.02-.09.02-.13.02-.49,0-.94-.31-1.15-.73v.78c.31.28.72.45,1.15.45.04,0,.09,0,.13-.01.44-.03.86-.24,1.15-.56.03-.02.04-.03.04-.05.29-.31.46-.72.46-1.15v-1.27h-.5Z"/>
      </g>
      <g>
        <path class="cls-1" d="m19.91,69.47v1.27h-1.51c-.68,0-1.28-.59-1.28-1.27v-.81c.28-.43.76-.72,1.28-.72.82,0,1.51.71,1.51,1.53Z"/>
        <path class="cls-1" d="m61.32,70.73v-1.26c0-.77.63-1.45,1.39-1.52.04,0,.09,0,.13,0,.46,0,.88.22,1.15.56v1.03c-.05.29-.22.59-.47.83-.26.23-.55.37-.81.37h-1.39Z"/>
        <path class="cls-1" d="m63.86,70.72c.1-.09.19-.19.26-.3v9.23c-.11.37-.32.7-.59.96-.26.25-.56.39-.82.39H18.4c-.68,0-1.28-.6-1.28-1.27v-9.06c.33.35.79.57,1.28.57h1.27v7.34h41.9v-7.34h1.14c.38-.01.8-.2,1.15-.52Z"/>
        <path class="cls-2" d="m19.67,69.59v1.15h.24v-1.15h-.24Zm41.65,0v1.14h.25v-1.14h-.25Zm0,0v1.14h.25v-1.14h-.25Zm0,0v1.14h.25v-1.14h-.25Zm-41.6-1.26h-.17v-.19c-.31-.28-.72-.45-1.15-.45-.5,0-.96.22-1.28.57v1.21c0-.68.6-1.28,1.28-1.28s1.27.6,1.27,1.28v1.27h.5v-1.27c0-.43-.16-.83-.45-1.14Zm43.12-.64s-.09,0-.13.02c-.91.06-1.64.85-1.64,1.76v1.26h.5v-1.26c0-.63.51-1.2,1.14-1.26.04-.02.09-.02.13-.02.5,0,.94.31,1.15.74v-.8c-.31-.27-.71-.44-1.15-.44Zm-1.52,1.9v1.14h.25v-1.14h-.25Zm-41.65,0v1.15h.24v-1.15h-.24Zm41.65,0v1.14h.25v-1.14h-.25Zm-41.65,0v1.15h.24v-1.15h-.24Zm41.65,0v1.14h.25v-1.14h-.25Z"/>
      </g>
      <g>
        <path class="cls-1" d="m63.84,10.95c-.21-.41-.65-.7-1.13-.7H18.4c-.68,0-1.28.59-1.28,1.27v57.95c0,.68.6,1.27,1.28,1.27h42.67s1.64-.01,1.64-.01c.26,0,.55-.14.81-.37.25-.24.42-.54.47-.83V11.52c0-.2-.05-.4-.15-.57Zm-44.29,57.38V12.72s.04-.03.04-.05h41.86v55.66H19.55Z"/>
        <path class="cls-2" d="m19.55,12.67v.05s.04-.03.04-.05h-.04Zm0,0v.05s.04-.03.04-.05h-.04Zm0,0v.05s.04-.03.04-.05h-.04Zm0,0v.05s.04-.03.04-.05h-.04Zm0,0v.05s.04-.03.04-.05h-.04Zm0,0v.05s.04-.03.04-.05h-.04Zm0,0v.05s.04-.03.04-.05h-.04Z"/>
      </g>
      <path class="cls-1" d="m51.44,37.67l-17.08-10.26c-.39-.19-.89-.19-1.29.01-.36.18-.54.53-.54,1.05v20.5c0,.35.09.83.54,1.05h.04c.25.13.42.22.56.22h.09c.05-.01.11-.03.17-.05l.5-.18,16.96-10.21c.2-.15.36-.31.45-.47.1-.17.13-.36.13-.6,0-.51-.19-.88-.53-1.06Zm-16.49,9.3v-16.25l13.46,8.13-13.46,8.12Z"/>
      <path class="cls-1" d="m45.18,6.32c0,.67-.61,1.28-1.28,1.28h-6.82c-.68,0-1.28-.6-1.28-1.28s.6-1.27,1.28-1.27h6.82c.68,0,1.28.59,1.28,1.27Z"/>
      <path class="cls-1" d="m45.18,74.65c0,.67-.61,1.28-1.28,1.28h-6.82c-.68,0-1.28-.6-1.28-1.28s.6-1.27,1.28-1.27h6.82c.68,0,1.28.59,1.28,1.27Z"/>
      <path class="cls-1" d="m73.99,43.65c-.19.12-.37.24-.53.32-.16.08-.29.12-.4.12-.32,0-.6-.13-.87-.39-.49-.5-.49-1.27,0-1.76.77-.77,1.19-1.82,1.17-2.89-.03-1.02-.45-1.94-1.17-2.6-.49-.49-.49-1.26,0-1.75.24-.24.55-.37.87-.37s.64.13.88.37c2.4,2.41,2.4,6.44.05,8.95Z"/>
      <path class="cls-1" d="m81.02,39.13c0,3.13-1.14,5.86-3.39,8.12-.54.54-1.22.53-1.75,0-.48-.49-.48-1.26,0-1.76,1.7-1.7,2.6-3.9,2.6-6.36,0-2.3-.89-4.5-2.58-6.35h-.02c-.48-.5-.48-1.29,0-1.77.24-.23.55-.37.88-.37.33.01.63.14.87.37,2.25,2.27,3.39,5,3.39,8.12Z"/>
      <path class="cls-1" d="m8.78,42.21c.45.45.49,1.14.11,1.63-.2.03-.38.09-.53.14-.2.07-.34.11-.45.11-.33,0-.61-.13-.88-.39-1.19-1.2-1.9-2.85-1.9-4.43,0-1.73.69-3.33,1.89-4.41v-.02c.25-.24.56-.37.89-.37h0c.32,0,.62.13.86.37.49.49.49,1.26,0,1.75-.74.74-1.1,1.66-1.1,2.81,0,.98.35,1.91,1.1,2.81Z"/>
      <path class="cls-1" d="m5.09,45.5c.49.49.49,1.26-.02,1.77l-.04.05c-.11.17-.29.32-.81.32-.33,0-.61-.12-.88-.39-4.46-4.48-4.46-11.76,0-16.24.24-.23.55-.37.88-.37h.01c.31.01.61.13.84.36h.02c.24.25.37.57.37.9s-.13.63-.37.87c-3.44,3.45-3.44,9.28,0,12.73Z"/>
    </g>
  </g>
</svg>