<svg width="119" height="100" viewBox="0 0 119 100" fill="none" xmlns="http://www.w3.org/2000/svg">
<g clip-path="url(#clip0_16_2317)">
<path d="M64.114 58.4271H54.0198C53.5093 58.4271 53.0972 58.0175 53.0972 57.5101V51.5038C53.0972 51.1982 53.251 50.9139 53.5031 50.7427C53.7584 50.5716 54.0814 50.538 54.3643 50.6541C55.8652 51.2563 57.4461 51.5619 59.0669 51.5619C60.6877 51.5619 62.2686 51.2563 63.7695 50.6541C64.0525 50.541 64.3754 50.5746 64.6307 50.7427C64.8859 50.9139 65.0366 51.1982 65.0366 51.5038V57.5101C65.0366 58.0175 64.6245 58.4271 64.114 58.4271ZM54.9425 56.5931H63.1913V52.7968C60.5217 53.5915 57.6121 53.5915 54.9425 52.7968V56.5931Z" fill="#227AA8"/>
<path d="M59.0669 90.9586C52.1468 90.9586 45.4912 88.8831 39.8229 84.9554C39.5738 84.7842 39.4292 84.503 39.4292 84.2035V71.2343C39.4292 63.1618 46.0387 56.5931 54.1613 56.5931H63.9756C72.0982 56.5931 78.7077 63.1618 78.7077 71.2343V84.2035C78.7077 84.503 78.5601 84.7842 78.314 84.9554C72.6426 88.8831 65.9901 90.9586 59.07 90.9586H59.0669ZM41.2715 83.7205C46.5431 87.257 52.685 89.1246 59.0669 89.1246C65.4488 89.1246 71.5908 87.257 76.8623 83.7205V71.2343C76.8623 64.1704 71.0802 58.4271 63.9756 58.4271H54.1613C47.0536 58.4271 41.2746 64.1735 41.2746 71.2343V83.7205H41.2715Z" fill="#227AA8"/>
<path d="M45.5744 42.3738H43.5753C41.287 42.3738 39.4263 40.5245 39.4263 38.2504V34.5152C39.4263 32.2411 41.287 30.3918 43.5753 30.3918H45.5744C46.0849 30.3918 46.4971 30.8014 46.4971 31.3088V41.4568C46.4971 41.9642 46.0849 42.3738 45.5744 42.3738ZM43.5753 32.2258C42.305 32.2258 41.2716 33.2528 41.2716 34.5152V38.2504C41.2716 39.5128 42.305 40.5398 43.5753 40.5398H44.6517V32.2258H43.5753Z" fill="#227AA8"/>
<path d="M74.5585 42.3738H72.5594C72.0488 42.3738 71.6367 41.9642 71.6367 41.4568V31.3088C71.6367 30.8014 72.0488 30.3918 72.5594 30.3918H74.5585C76.8468 30.3918 78.7075 32.2411 78.7075 34.5152V38.2504C78.7075 40.5245 76.8468 42.3738 74.5585 42.3738ZM73.4821 40.5398H74.5585C75.8288 40.5398 76.8622 39.5128 76.8622 38.2504V34.5152C76.8622 33.2528 75.8288 32.2258 74.5585 32.2258H73.4821V40.5398Z" fill="#227AA8"/>
<path d="M62.2656 50.1192C61.955 50.1192 61.6382 50.1162 61.3184 50.107L61.3676 48.273C66.4731 48.4075 70.2222 47.3683 72.2183 45.2684C73.9868 43.41 73.833 41.3498 73.8268 41.2612L75.663 41.09C75.6753 41.2092 75.9182 44.0091 73.5962 46.488C71.3356 48.8996 67.5249 50.1192 62.2626 50.1192H62.2656Z" fill="#227AA8"/>
<path d="M60.4109 51.0087C61.4488 51.0087 62.2901 50.1725 62.2901 49.1411C62.2901 48.1096 61.4488 47.2735 60.4109 47.2735C59.3731 47.2735 58.5317 48.1096 58.5317 49.1411C58.5317 50.1725 59.3731 51.0087 60.4109 51.0087Z" fill="#227AA8"/>
<path d="M67.1004 35.7012H67.0912C66.7529 35.6951 66.4791 35.4169 66.4853 35.0807C66.4914 34.5397 66.3407 32.9686 65.5718 32.2044C65.2551 31.8896 64.8706 31.7368 64.3693 31.7459C62.2164 31.7734 62.1795 34.9554 62.1795 35.0899C62.1795 35.4261 61.9027 35.6981 61.5643 35.6981C61.226 35.6981 60.9492 35.423 60.9492 35.0868C60.9492 33.5218 61.6597 30.5538 64.3539 30.5202C65.1751 30.508 65.8856 30.7861 66.4422 31.3425C67.734 32.6293 67.7125 34.9982 67.7125 35.099C67.7063 35.4322 67.4326 35.7012 67.0973 35.7012H67.1004Z" fill="#227AA8"/>
<path d="M56.6278 35.7012H56.6185C56.2802 35.6951 56.0065 35.4169 56.0126 35.0807C56.0188 34.5397 55.8681 32.9686 55.0992 32.2044C54.7824 31.8896 54.3826 31.7368 53.8966 31.7459C51.7406 31.7734 51.7068 34.9554 51.7068 35.0899C51.7068 35.4261 51.43 35.6981 51.0917 35.6981C50.7534 35.6981 50.4766 35.423 50.4766 35.0868C50.4766 33.5218 51.187 30.5539 53.8813 30.5202C54.7086 30.5202 55.4129 30.7862 55.9696 31.3425C57.2613 32.6293 57.2398 34.9982 57.2398 35.099C57.2337 35.4322 56.9599 35.7012 56.6247 35.7012H56.6278Z" fill="#227AA8"/>
<path d="M59.0671 47.0809C57.3909 47.0809 56.0807 46.5582 55.1673 45.5282C53.488 43.6331 53.8386 40.7232 53.854 40.6009C53.894 40.2953 54.1554 40.066 54.463 40.066H63.6682C63.9789 40.066 64.2403 40.2953 64.2772 40.6009C64.2926 40.7232 64.6463 43.6331 62.9639 45.5282C62.0505 46.5582 60.7403 47.0809 59.0641 47.0809H59.0671ZM55.0473 41.2917C55.0381 42.1048 55.155 43.6698 56.0961 44.7273C56.7635 45.4793 57.7662 45.8613 59.0702 45.8613C60.3743 45.8613 61.3738 45.4793 62.0443 44.7273C62.9824 43.6698 63.1023 42.1048 63.0931 41.2917H55.0504H55.0473Z" fill="#227AA8"/>
<path d="M59.3285 39.4975C58.2367 39.4975 57.4093 39.0849 57.357 39.0574C57.0556 38.9045 56.9357 38.5347 57.0895 38.2351C57.2432 37.9356 57.6154 37.8164 57.9168 37.9692C57.9476 37.9845 59.3131 38.6417 60.5895 37.9723C60.8909 37.8164 61.2631 37.9295 61.4199 38.229C61.5768 38.5286 61.463 38.8984 61.1616 39.0543C60.528 39.3844 59.8913 39.4975 59.3285 39.4975Z" fill="#227AA8"/>
<path d="M74.2544 32.2258H72.5597C72.0738 32.2258 71.6709 31.8498 71.6401 31.3669L71.3449 26.8431C70.2592 25.9812 66.1163 23.1263 61.2815 25.4829C55.2718 28.4081 51.9717 29.5452 46.5063 29.6583L46.4971 31.3149C46.4971 31.8193 46.0819 32.2289 45.5744 32.2289H43.8798C43.5291 32.2289 43.2093 32.0332 43.0555 31.7215C41.2009 28.0321 39.2387 20.3876 44.5472 17.007C44.4487 16.2 44.4672 14.8429 45.3068 13.4674C46.5217 11.4714 48.9791 10.154 52.6083 9.54578C62.7116 7.85853 68.6845 10.744 72.7566 13.4491C75.4354 15.228 76.8041 18.7034 76.7118 23.4961C76.6626 26.0026 76.1951 28.5457 75.3247 31.0582L75.1309 31.6145C75.0017 31.9843 74.6511 32.2319 74.2575 32.2319L74.2544 32.2258ZM73.424 30.3918H73.5962C74.3897 28.0841 74.8172 25.7519 74.8603 23.4564C74.9156 20.571 74.4174 16.7594 71.7262 14.9713C67.9371 12.4557 62.3733 9.76891 52.9097 11.3522C49.8741 11.8596 47.7888 12.9172 46.8815 14.415C46.0327 15.8088 46.4448 17.172 46.451 17.1842C46.5894 17.6091 46.4017 18.0707 46.005 18.2816C40.8441 20.9897 43.6029 28.3867 44.4733 30.3949H44.6579L44.6671 28.7474C44.6671 28.2431 45.0823 27.8365 45.5898 27.8335C51.3012 27.8304 54.3153 26.8309 60.4726 23.8354C67.1436 20.5862 72.6366 25.5104 72.8704 25.7213C73.0457 25.8803 73.1502 26.1004 73.1656 26.3357L73.4301 30.3918H73.424Z" fill="#227AA8"/>
<path d="M59.0667 53.3959C51.1194 53.3959 44.6514 46.9678 44.6514 39.0696V31.3119L44.6637 28.8024C44.6637 28.8024 44.6637 28.7688 44.6637 28.7657V28.7138C44.6852 28.2217 45.0912 27.8335 45.5864 27.8335C51.2977 27.8304 54.3118 26.8309 60.4692 23.8354C67.1402 20.5863 72.6332 25.5105 72.8669 25.7214C73.0422 25.8803 73.1468 26.1004 73.1622 26.3357L73.482 31.2508C73.482 31.2691 73.482 31.2905 73.482 31.3088V39.0665C73.482 46.9648 67.0141 53.3928 59.0667 53.3928V53.3959ZM46.506 29.6583L46.4967 31.315V39.0696C46.4967 45.9592 52.1343 51.5619 59.0667 51.5619C65.9991 51.5619 71.6367 45.9592 71.6367 39.0696V31.3394L71.3445 26.8431C70.2588 25.9812 66.116 23.1263 61.2811 25.4829C55.2714 28.4081 51.9713 29.5452 46.506 29.6583Z" fill="#227AA8"/>
<path d="M76.4009 31.5412L73.9496 31.3272C73.9558 31.2691 74.4202 25.1498 70.5357 20.9561C68.0322 18.2541 64.24 16.8817 59.2575 16.8817C54.275 16.8817 50.4275 18.2571 47.8532 20.9745C43.8672 25.1803 44.1871 31.2966 44.1901 31.3578L41.7358 31.5106C41.7174 31.2202 41.3329 24.3092 46.0447 19.3178C49.1019 16.0778 53.5492 14.4364 59.2575 14.4364C64.9658 14.4364 69.3762 16.0808 72.3657 19.3208C76.9791 24.3245 76.4286 31.2508 76.4009 31.5412Z" fill="#227AA8"/>
<path d="M55.5974 64.2774C55.3791 64.2774 55.1669 64.201 54.9977 64.0574L49.0403 59.0017C48.7911 58.7878 48.6712 58.4607 48.7327 58.1398C48.7911 57.8188 49.0187 57.5529 49.3294 57.4428C50.9195 56.8804 52.5834 56.5931 54.278 56.5931H59.0237C59.3527 56.5931 59.6572 56.7673 59.8233 57.0516C59.9894 57.3359 59.9863 57.6874 59.8233 57.9686L56.3971 63.8189C56.2587 64.0543 56.0249 64.2163 55.7543 64.2621C55.702 64.2713 55.6497 64.2744 55.6005 64.2744L55.5974 64.2774ZM51.5469 58.7175L55.3575 61.9513L57.4213 58.4271H54.2811C53.3553 58.4271 52.4419 58.5249 51.5469 58.7175Z" fill="#227AA8"/>
<path d="M62.45 64.2774C62.3978 64.2774 62.3455 64.2744 62.2932 64.2652C62.0225 64.2193 61.7888 64.0573 61.6504 63.822L58.2242 57.9716C58.0581 57.6874 58.0581 57.3389 58.2242 57.0547C58.3903 56.7704 58.6947 56.5962 59.0238 56.5962H63.7695C65.5779 56.5962 67.3156 56.8743 68.7919 57.397C69.1026 57.507 69.3302 57.773 69.3886 58.0939C69.447 58.4148 69.3302 58.745 69.078 58.9589L63.0467 64.0635C62.8776 64.2071 62.6653 64.2835 62.45 64.2835V64.2774ZM60.6293 58.4271L62.693 61.9513L66.5529 58.6838C65.6764 58.5127 64.7352 58.4271 63.7664 58.4271H60.6262H60.6293Z" fill="#227AA8"/>
<path d="M59.0241 66.2C58.7657 66.2 58.5197 66.0931 58.3443 65.9035L55.5578 62.8867C55.2841 62.5902 55.238 62.1531 55.441 61.8046L58.2275 57.0485C58.3936 56.7673 58.695 56.5931 59.0241 56.5931C59.3531 56.5931 59.6576 56.7673 59.8206 57.0485L62.6071 61.8046C62.8101 62.1531 62.764 62.5902 62.4902 62.8867L59.7038 65.9035C59.5284 66.0931 59.2824 66.2 59.0241 66.2ZM57.3786 62.1439L59.0241 63.9259L60.6695 62.1439L59.0241 59.3318L57.3786 62.1439Z" fill="#227AA8"/>
<path d="M59.0667 90.9586C57.4182 90.9586 55.742 90.8332 54.0873 90.5918C53.5891 90.5184 53.2415 90.063 53.3092 89.5647L56.7231 63.6631C56.7692 63.3085 57.0184 63.015 57.3598 62.9081C57.7012 62.8011 58.0764 62.8989 58.3163 63.1618L59.0206 63.9259L59.7249 63.1618C59.9679 62.8989 60.34 62.8011 60.6814 62.9081C61.0228 63.015 61.2719 63.3085 61.3181 63.6631L64.732 89.577C64.7966 90.0752 64.449 90.5306 63.9508 90.604C62.3207 90.8394 60.6753 90.9586 59.0606 90.9586H59.0667ZM55.2561 88.8953C57.7657 89.1949 60.2662 89.201 62.7882 88.9045L59.7495 65.8516L59.7003 65.9035C59.525 66.0931 59.2789 66.2 59.0206 66.2C58.7622 66.2 58.5162 66.0931 58.3409 65.9035L58.2947 65.8516L55.2561 88.8953Z" fill="#227AA8"/>
<path d="M12.6315 67.9362H8.35333C7.84278 67.9362 7.43065 67.5266 7.43065 67.0192V65.7629C7.21228 65.6835 6.99699 65.5948 6.78477 65.497L5.89285 66.3834C5.54531 66.7258 4.93326 66.7258 4.5888 66.3834L1.5624 63.3757C1.20256 63.0181 1.20256 62.4373 1.5624 62.0797L2.45433 61.1933C2.35591 60.9824 2.26672 60.7684 2.18675 60.5514H0.92268C0.41213 60.5514 0 60.1418 0 59.6344V55.3827C0 54.8753 0.41213 54.4657 0.92268 54.4657H2.18675C2.26672 54.2487 2.35591 54.0347 2.45433 53.8238L1.5624 52.9374C1.39017 52.7662 1.29175 52.5309 1.29175 52.2894C1.29175 52.0479 1.39017 51.8126 1.5624 51.6414L4.5888 48.6337C4.76103 48.4625 4.99785 48.3647 5.24082 48.3647C5.48687 48.3647 5.72062 48.4625 5.89285 48.6337L6.78477 49.5201C6.99699 49.4223 7.21228 49.3337 7.43065 49.2542V47.9979C7.43065 47.4905 7.84278 47.0809 8.35333 47.0809H12.6315C13.142 47.0809 13.5542 47.4905 13.5542 47.9979V49.2542C13.7725 49.3337 13.9878 49.4223 14.2 49.5201L15.092 48.6337C15.4518 48.2761 16.0362 48.2761 16.396 48.6337L19.4224 51.6414C19.7823 51.999 19.7823 52.5798 19.4224 52.9374L18.5305 53.8238C18.6289 54.0347 18.7181 54.2487 18.7981 54.4657H20.0621C20.5727 54.4657 20.9848 54.8753 20.9848 55.3827V59.6344C20.9848 60.1418 20.5727 60.5514 20.0621 60.5514H18.7981C18.7181 60.7684 18.6289 60.9824 18.5305 61.1933L19.4224 62.0797C19.7823 62.4373 19.7823 63.0181 19.4224 63.3757L16.396 66.3834C16.0485 66.7258 15.4364 66.7258 15.092 66.3834L14.2 65.497C13.9878 65.5948 13.7725 65.6835 13.5542 65.7629V67.0192C13.5542 67.5266 13.142 67.9362 12.6315 67.9362ZM9.27601 66.1022H11.7088V65.0966C11.7088 64.6839 11.9856 64.3233 12.3824 64.2132C12.9206 64.0634 13.4373 63.8495 13.9232 63.5774C14.2831 63.3757 14.7352 63.4368 15.0274 63.7272L15.7409 64.4364L17.4633 62.7247L16.7497 62.0155C16.4575 61.7251 16.396 61.2758 16.599 60.9182C16.8727 60.4353 17.088 59.9217 17.2387 59.3868C17.3495 58.9895 17.7124 58.7174 18.1276 58.7174H19.1395V56.2997H18.1276C17.7124 56.2997 17.3495 56.0246 17.2387 55.6303C17.088 55.0954 16.8727 54.5819 16.599 54.0989C16.396 53.7413 16.4575 53.292 16.7497 53.0016L17.4633 52.2925L15.7409 50.5807L15.0274 51.2899C14.7352 51.5803 14.2831 51.6444 13.9232 51.4397C13.4373 51.1676 12.9206 50.9537 12.3824 50.8039C11.9825 50.6938 11.7088 50.3332 11.7088 49.9205V48.9149H9.27601V49.9205C9.27601 50.3301 8.99921 50.6938 8.60245 50.8039C8.06422 50.9537 7.54445 51.1676 7.06158 51.4397C6.70173 51.6414 6.24962 51.5803 5.95744 51.2899L5.2439 50.5807L3.52156 52.2894L4.2351 52.9985C4.52728 53.2889 4.5888 53.7382 4.38581 54.0958C4.11208 54.5788 3.89679 55.0923 3.74608 55.6272C3.63536 56.0246 3.27244 56.2966 2.85723 56.2966H1.84536V58.7144H2.85723C3.27244 58.7144 3.63536 58.9895 3.74608 59.3838C3.89679 59.9187 4.11208 60.4322 4.38581 60.9151C4.5888 61.2728 4.52728 61.7221 4.2351 62.0125L3.52156 62.7216L5.2439 64.4333L5.95744 63.7242C6.24962 63.4338 6.70173 63.3727 7.06158 63.5744C7.54752 63.8464 8.06422 64.0604 8.60245 64.2102C9.00228 64.3202 9.27601 64.6809 9.27601 65.0935V66.0992V66.1022ZM10.4939 63.3604C7.24919 63.3604 4.60725 60.7379 4.60725 57.5101C4.60725 54.2823 7.24611 51.6597 10.4939 51.6597C13.7418 51.6597 16.3806 54.2823 16.3806 57.5101C16.3806 60.7379 13.7418 63.3604 10.4939 63.3604ZM10.4939 53.4968C8.26721 53.4968 6.45261 55.2971 6.45261 57.5131C6.45261 59.7292 8.26414 61.5295 10.4939 61.5295C12.7238 61.5295 14.5353 59.7292 14.5353 57.5131C14.5353 55.2971 12.7238 53.4968 10.4939 53.4968Z" fill="#227AA8"/>
<path d="M19.7699 31.911C19.4069 31.911 19.0625 31.697 18.9148 31.3425L10.1986 10.2091C10.1063 9.98288 10.1063 9.73224 10.1986 9.50605C10.2909 9.27986 10.4723 9.10258 10.6999 9.01088L23.276 3.888C23.7466 3.69544 24.2848 3.91857 24.4786 4.38929L33.1949 25.5227C33.2871 25.7489 33.2871 25.9995 33.1949 26.2257C33.1026 26.4519 32.9211 26.6292 32.6935 26.7209L20.1174 31.8437C20.0036 31.8896 19.8837 31.914 19.7668 31.914L19.7699 31.911ZM12.2562 10.3619L20.2743 29.7958L31.1434 25.3668L23.1253 5.93287L12.2562 10.3619Z" fill="#227AA8"/>
<path d="M19.6928 26.1676C19.6128 26.1676 19.5329 26.1523 19.456 26.1187C19.3053 26.0576 19.1853 25.9353 19.1238 25.7855L13.637 12.4862C13.5754 12.3365 13.5754 12.1683 13.637 12.0186C13.6985 11.8688 13.8215 11.7496 13.9722 11.6885L22.8361 8.0786C23.1498 7.95023 23.5096 8.1 23.6388 8.41177L29.1257 21.7111C29.2549 22.0229 29.1041 22.3805 28.7904 22.5089L19.9266 26.1187C19.8527 26.1493 19.7728 26.1646 19.6928 26.1646V26.1676ZM15.0087 12.5902L20.0281 24.7585L27.754 21.6102L22.7346 9.44185L15.0087 12.5902Z" fill="#227AA8"/>
<path d="M26.0502 25.5318C26.2809 26.0912 26.0102 26.73 25.4474 26.9593C24.8845 27.1885 24.2417 26.9195 24.0111 26.3602C23.7804 25.8008 24.051 25.162 24.6139 24.9327C25.1767 24.7035 25.8195 24.9725 26.0502 25.5318Z" fill="#227AA8"/>
<path d="M16.759 9.95538C16.5776 9.95538 16.4053 9.8484 16.3315 9.67111C16.2362 9.43575 16.3469 9.16983 16.5837 9.07202L19.1272 8.03583C19.3641 7.93802 19.6316 8.05111 19.7301 8.28647C19.8254 8.52183 19.7147 8.78775 19.4779 8.88556L16.9343 9.92175C16.8759 9.94621 16.8175 9.95538 16.759 9.95538Z" fill="#227AA8"/>
<path d="M91.822 30.129C91.5237 30.129 91.2285 29.9854 91.0501 29.7164L84.4252 19.7457C84.2407 19.4707 84.2222 19.1191 84.3729 18.8227C84.5236 18.5292 84.822 18.3367 85.1541 18.3244L95.402 17.8873L99.8309 8.69305C99.9755 8.3935 100.268 8.19788 100.6 8.17343C100.929 8.15203 101.249 8.30792 101.433 8.58301L108.058 18.5537C108.193 18.7554 108.243 19.006 108.193 19.2414C108.144 19.4798 108.003 19.6877 107.797 19.8222L92.3264 29.9762C92.1696 30.0801 91.9943 30.129 91.819 30.129H91.822ZM86.8642 20.0881L92.0835 27.9436L106.013 18.8013L100.794 10.9458L96.8291 19.1772C96.6815 19.4829 96.377 19.6816 96.0356 19.6968L86.8611 20.0881H86.8642Z" fill="#227AA8"/>
<path d="M85.1939 20.1583C84.7972 20.1583 84.4404 19.9046 84.3174 19.5226C84.1882 19.1313 84.342 18.7003 84.6864 18.4741L100.157 8.32009C100.501 8.0939 100.959 8.12447 101.27 8.39345C101.584 8.66549 101.676 9.10869 101.498 9.4816L96.8289 19.1741C96.6813 19.4798 96.3768 19.6784 96.0354 19.6937L85.2339 20.1553C85.2339 20.1553 85.2062 20.1553 85.1939 20.1553V20.1583ZM98.3944 11.6762L88.4817 18.1838L95.4049 17.8873L98.3975 11.6762H98.3944Z" fill="#227AA8"/>
<path d="M101.784 62.2754C100.631 62.2754 99.4958 61.7435 98.773 60.744C98.1979 59.9462 97.9672 58.9742 98.1272 58.0022C98.2871 57.0302 98.8192 56.1835 99.6219 55.612L101.101 54.5574C101.516 54.264 102.092 54.3557 102.39 54.7683L105.629 59.2524C105.927 59.665 105.832 60.2366 105.416 60.5331L103.937 61.5876C103.285 62.0522 102.531 62.2754 101.784 62.2754ZM101.427 56.584L100.698 57.1036C100.295 57.3909 100.031 57.8158 99.9479 58.3018C99.8679 58.7878 99.9817 59.2738 100.271 59.6742C100.868 60.4995 102.027 60.689 102.857 60.096L103.586 59.5764L101.424 56.5809L101.427 56.584Z" fill="#227AA8"/>
<path d="M104.875 60.7043C104.589 60.7043 104.306 60.5728 104.124 60.3222L100.886 55.8381C100.587 55.4255 100.683 54.8539 101.098 54.5574C102.304 53.6985 103.045 51.5864 103.319 50.6847C103.377 50.434 103.506 50.0092 103.522 49.9572C103.522 49.948 103.528 49.9389 103.531 49.9266C104.035 48.4442 104.973 47.1818 106.246 46.274C109.593 43.8868 114.271 44.6509 116.673 47.9796C117.835 49.5904 118.3 51.5558 117.974 53.5121C117.651 55.4683 116.577 57.183 114.957 58.3384C113.683 59.2462 112.179 59.7261 110.608 59.7261C110.602 59.7261 110.586 59.7261 110.577 59.7261C110.525 59.7261 110.076 59.7078 109.817 59.6833C108.87 59.6497 106.619 59.6742 105.413 60.5331C105.25 60.6492 105.062 60.7043 104.875 60.7043ZM102.869 55.4377L105.139 58.583C106.714 57.8647 108.738 57.8096 109.913 57.8524C109.934 57.8524 109.959 57.8524 109.98 57.8585C110.109 57.8738 110.432 57.8891 110.617 57.8952C111.798 57.8952 112.924 57.5315 113.877 56.8529C115.098 55.9818 115.904 54.6919 116.15 53.2186C116.396 51.7453 116.045 50.2659 115.169 49.0525C113.36 46.5491 109.839 45.9714 107.32 47.7687C106.366 48.4473 105.662 49.3948 105.281 50.5043C105.228 50.6816 105.139 50.9873 105.112 51.1157C105.105 51.1371 105.102 51.1585 105.096 51.1799C104.761 52.2986 104.06 54.1876 102.869 55.4408V55.4377Z" fill="#227AA8"/>
<path d="M104.124 59.2035C104.1 59.2035 104.075 59.2035 104.051 59.1974C103.931 59.176 103.823 59.1118 103.749 59.0109L102.015 56.6084C101.867 56.4036 101.913 56.1163 102.119 55.9696L107.972 51.7973C108.07 51.727 108.193 51.6995 108.316 51.7178C108.436 51.7392 108.544 51.8034 108.618 51.9043L110.352 54.3068C110.5 54.5116 110.454 54.7989 110.248 54.9456L104.395 59.1179C104.315 59.1729 104.223 59.2035 104.127 59.2035H104.124ZM103.033 56.4464L104.229 58.1062L109.331 54.4688L108.135 52.809L103.033 56.4464Z" fill="#227AA8"/>
<path d="M107.861 50.8552L107.111 51.3897L110.349 55.8749L111.099 55.3403L107.861 50.8552Z" fill="#227AA8"/>
<path d="M36.3134 7.52232C36.4703 7.52232 36.6302 7.48564 36.7778 7.40923C37.7466 6.90794 38.7462 6.43111 39.7489 5.99707C40.2594 5.77394 40.4931 5.18401 40.2686 4.67662C40.0472 4.16922 39.4505 3.93692 38.94 4.16005C37.8973 4.61243 36.8547 5.1076 35.8459 5.63028C35.3507 5.88703 35.1601 6.49224 35.4184 6.9813C35.5968 7.32364 35.9505 7.51926 36.3134 7.51926V7.52232Z" fill="#227AA8"/>
<path d="M42.4708 4.85083C42.5846 4.85083 42.6984 4.83249 42.8091 4.79275C43.8394 4.42596 44.8943 4.09279 45.9493 3.7963C46.4844 3.64652 46.7981 3.09328 46.6474 2.55837C46.4967 2.02652 45.9401 1.71475 45.4018 1.86452C44.3038 2.17324 43.2028 2.52169 42.1294 2.90071C41.6035 3.08716 41.3328 3.66181 41.5204 4.18143C41.668 4.59101 42.0556 4.84777 42.4708 4.84777V4.85083Z" fill="#227AA8"/>
<path d="M48.9452 3.03827C49.0129 3.03827 49.0836 3.03215 49.1513 3.01687C50.2216 2.79374 51.3134 2.60728 52.3991 2.45751C52.9497 2.38109 53.3372 1.87675 53.2603 1.32657C53.1834 0.779432 52.6729 0.391243 52.1223 0.470715C50.9905 0.626602 49.8525 0.822225 48.7392 1.05147C48.1948 1.16456 47.8442 1.69641 47.958 2.23743C48.0564 2.71121 48.4777 3.03521 48.9452 3.03521V3.03827Z" fill="#227AA8"/>
<path d="M30.5777 11.0068C30.7807 11.0068 30.9837 10.9457 31.159 10.8234C32.0509 10.1938 32.9767 9.58856 33.9086 9.02003C34.3853 8.72966 34.5329 8.11528 34.2438 7.6415C33.9516 7.17079 33.3335 7.02101 32.8567 7.30833C31.8848 7.89826 30.9191 8.53098 29.9903 9.18509C29.5351 9.50603 29.4305 10.1296 29.7504 10.582C29.9472 10.8571 30.2579 11.0038 30.5746 11.0038L30.5777 11.0068Z" fill="#227AA8"/>
<path d="M10.9736 39.1154C10.4262 39.0023 9.89409 39.3538 9.78337 39.8948C9.55578 41.0044 9.36202 42.1353 9.20824 43.2602C9.13442 43.8073 9.52195 44.3147 10.0725 44.3881C10.1186 44.3942 10.1647 44.3972 10.2078 44.3972C10.7061 44.3972 11.1366 44.0304 11.2074 43.5292C11.3519 42.4502 11.5395 41.3651 11.7579 40.2983C11.8686 39.7573 11.518 39.2254 10.9736 39.1154Z" fill="#227AA8"/>
<path d="M11.2905 37.8102C11.3797 37.8347 11.472 37.8469 11.5612 37.8469C12.0041 37.8469 12.407 37.5565 12.5331 37.1133C12.8253 36.0649 13.1605 35.0134 13.5265 33.9895C13.711 33.4668 13.4373 32.8952 12.9114 32.7088C12.3855 32.5254 11.8103 32.7974 11.6227 33.3201C11.2413 34.3868 10.8938 35.4811 10.5893 36.5754C10.4386 37.1072 10.7554 37.6605 11.2905 37.8102Z" fill="#227AA8"/>
<path d="M16.3777 25.4493C16.5408 25.5471 16.7222 25.596 16.9006 25.596C17.1036 25.596 17.2974 25.5288 17.4665 25.4157L16.5684 23.2394C16.39 23.5175 16.2086 23.7926 16.0394 24.0738C15.7503 24.5476 15.901 25.162 16.3777 25.4493Z" fill="#227AA8"/>
<path d="M9.94036 45.7207C9.38368 45.6871 8.90389 46.1028 8.86698 46.6561C8.83622 47.1023 8.81777 47.5517 8.79932 48.001H10.8169C10.8323 47.5944 10.8507 47.1879 10.8784 46.7875C10.9153 46.2343 10.494 45.7574 9.93729 45.7207H9.94036Z" fill="#227AA8"/>
<path d="M55.6069 2.12434C55.6315 2.12434 55.653 2.12434 55.6776 2.12434C56.7664 2.05098 57.8766 2.01124 58.9746 2.00819C59.5313 2.00819 59.9834 1.55887 59.9804 1.00256C59.9804 0.449317 59.5282 0.00305176 58.9716 0.00305176C57.8305 0.00305176 56.6741 0.0458443 55.5392 0.125316C54.9825 0.161995 54.5642 0.641883 54.6042 1.19513C54.6411 1.72392 55.084 2.12739 55.6099 2.12739L55.6069 2.12434Z" fill="#227AA8"/>
<path d="M13.4067 31.4586C13.5358 31.5136 13.6742 31.5411 13.8065 31.5411C14.1971 31.5411 14.5662 31.315 14.7322 30.9359C15.169 29.9364 15.6426 28.94 16.147 27.9741C16.4023 27.482 16.2085 26.8768 15.7164 26.6231C15.2213 26.3694 14.6123 26.5619 14.357 27.054C13.8311 28.0627 13.3359 29.0989 12.8838 30.1412C12.6624 30.6486 12.8961 31.2385 13.4097 31.4586H13.4067Z" fill="#227AA8"/>
<path d="M103.331 30.7739C103.768 31.7704 104.177 32.7944 104.546 33.8153C104.693 34.2248 105.081 34.4785 105.496 34.4785C105.61 34.4785 105.724 34.4602 105.838 34.4205C106.36 34.234 106.634 33.6594 106.447 33.1398C106.062 32.0761 105.638 31.0093 105.179 29.9731C104.958 29.4657 104.361 29.2365 103.851 29.4565C103.34 29.6797 103.106 30.2696 103.331 30.777V30.7739Z" fill="#227AA8"/>
<path d="M93.6488 13.6905C93.5443 13.5927 93.4428 13.4888 93.3351 13.391C92.9261 13.015 92.2894 13.0364 91.9111 13.443C91.5451 13.8342 91.5574 14.4394 91.9265 14.8215L93.6488 13.6905Z" fill="#227AA8"/>
<path d="M101.91 27.8243C102.088 28.1666 102.442 28.3622 102.805 28.3622C102.962 28.3622 103.122 28.3256 103.269 28.2492C103.764 27.9924 103.955 27.3872 103.697 26.8981C103.171 25.8956 102.602 24.8961 102.005 23.9302C101.716 23.4594 101.095 23.3097 100.618 23.6001C100.144 23.8904 99.9937 24.5048 100.286 24.9786C100.858 25.9047 101.402 26.8645 101.91 27.8273V27.8243Z" fill="#227AA8"/>
<path d="M107.763 42.2148C107.212 42.2912 106.825 42.7986 106.902 43.3458C107.053 44.4186 107.166 45.516 107.243 46.6041C107.243 46.6439 107.256 46.6775 107.262 46.7142C107.88 46.3504 108.538 46.0937 109.212 45.95C109.135 44.9872 109.033 44.0182 108.901 43.0707C108.824 42.5235 108.31 42.1415 107.763 42.2148Z" fill="#227AA8"/>
<path d="M106.247 35.6981C105.712 35.8479 105.398 36.4012 105.549 36.9361C105.847 37.9814 106.111 39.0512 106.336 40.118C106.434 40.5918 106.856 40.9158 107.323 40.9158C107.391 40.9158 107.462 40.9097 107.532 40.8944C108.077 40.7813 108.427 40.2494 108.314 39.7084C108.08 38.5989 107.803 37.4832 107.495 36.392C107.345 35.8601 106.785 35.5484 106.25 35.7012L106.247 35.6981Z" fill="#227AA8"/>
<path d="M68.8013 2.98019C69.8747 3.19721 70.9511 3.45702 72.006 3.7474C72.0952 3.77185 72.1875 3.78408 72.2767 3.78408C72.7196 3.78408 73.1225 3.4937 73.2486 3.05049C73.3962 2.51558 73.0825 1.96539 72.5474 1.81562C71.4494 1.51302 70.3268 1.24403 69.2073 1.01785C68.6598 0.904751 68.1277 1.25626 68.017 1.79728C67.9063 2.3383 68.2569 2.87015 68.8044 2.98019H68.8013Z" fill="#227AA8"/>
<path d="M86.8426 10.7317C87.7376 11.3583 88.6233 12.0247 89.4722 12.7094C89.6598 12.8591 89.8843 12.9325 90.1058 12.9325C90.398 12.9325 90.6901 12.8072 90.89 12.5626C91.2407 12.1317 91.1761 11.502 90.7424 11.1535C89.8567 10.4383 88.934 9.74751 88.0021 9.09339C87.5469 8.77551 86.9164 8.88249 86.5965 9.33486C86.2766 9.78724 86.3843 10.4138 86.8395 10.7317H86.8426Z" fill="#227AA8"/>
<path d="M62.2717 2.10905C63.3635 2.17935 64.4677 2.28939 65.5534 2.43305C65.5995 2.43917 65.6426 2.44222 65.6887 2.44222C66.1869 2.44222 66.6175 2.07543 66.6883 1.57415C66.7621 1.02396 66.3746 0.519615 65.824 0.446257C64.6953 0.296483 63.545 0.183388 62.407 0.106973C61.8504 0.070294 61.3706 0.489049 61.3367 1.0423C61.2998 1.59554 61.7212 2.07237 62.2779 2.10905H62.2717Z" fill="#227AA8"/>
<path d="M75.1492 4.72858C76.1826 5.08926 77.216 5.49273 78.2217 5.92677C78.3509 5.98179 78.4863 6.0093 78.6216 6.0093C79.0122 6.0093 79.3843 5.78311 79.5473 5.40409C79.7688 4.89669 79.532 4.30677 79.0214 4.08669C77.9726 3.63737 76.8962 3.21556 75.8197 2.83959C75.2938 2.6562 74.7186 2.92824 74.5341 3.45092C74.3496 3.9736 74.6233 4.54518 75.1492 4.72858Z" fill="#227AA8"/>
<path d="M81.2052 7.33279C82.1771 7.83408 83.1459 8.37204 84.084 8.93751C84.247 9.03532 84.4284 9.08423 84.6068 9.08423C84.9482 9.08423 85.2804 8.91306 85.471 8.60129C85.7601 8.12751 85.6094 7.51313 85.1327 7.22581C84.1578 6.63894 83.149 6.07653 82.134 5.55385C81.6388 5.30015 81.0299 5.49271 80.7746 5.98483C80.5193 6.47694 80.7131 7.08215 81.2083 7.33585L81.2052 7.33279Z" fill="#227AA8"/>
<path d="M28.5386 12.8072C28.9692 12.4557 29.0338 11.826 28.6832 11.3981C28.3295 10.9702 27.6959 10.906 27.2653 11.2544C27.0285 11.447 26.7948 11.6487 26.561 11.8443L27.3638 13.7945C27.7513 13.4582 28.145 13.1281 28.5386 12.8072Z" fill="#227AA8"/>
<path d="M92.031 85.0776C91.2283 85.8234 90.3948 86.5479 89.549 87.2325C89.1184 87.581 89.0507 88.2137 89.4044 88.6416C89.6044 88.8862 89.8935 89.0115 90.1856 89.0115C90.4102 89.0115 90.6347 88.9381 90.8223 88.7853C91.705 88.0731 92.5754 87.3181 93.4089 86.5418C93.8148 86.1627 93.8364 85.53 93.4581 85.1265C93.0767 84.7231 92.4401 84.7017 92.0341 85.0776H92.031Z" fill="#227AA8"/>
<path d="M68.9244 96.9984C67.851 97.2185 66.7592 97.4049 65.6766 97.5517C65.126 97.6281 64.7385 98.1324 64.8154 98.6795C64.8861 99.1808 65.3167 99.5446 65.8119 99.5446C65.858 99.5446 65.9041 99.5446 65.9503 99.5354C67.079 99.3826 68.217 99.1869 69.3334 98.9577C69.8778 98.8446 70.2284 98.3158 70.1177 97.7717C70.0039 97.2307 69.4718 96.8792 68.9244 96.9923V96.9984Z" fill="#227AA8"/>
<path d="M97.9518 80.1473C97.5212 79.7989 96.8846 79.863 96.534 80.291C95.8419 81.1346 95.113 81.966 94.3657 82.7607C93.9843 83.1642 94.0058 83.8 94.4149 84.1759C94.6086 84.3563 94.8578 84.4449 95.1038 84.4449C95.3745 84.4449 95.642 84.3379 95.8419 84.127C96.6201 83.2987 97.3797 82.4337 98.0994 81.5564C98.4501 81.1285 98.3855 80.4958 97.9549 80.1473H97.9518Z" fill="#227AA8"/>
<path d="M75.2663 95.2317C74.2359 95.5954 73.1779 95.9317 72.1261 96.222C71.5909 96.3718 71.2772 96.9251 71.4279 97.4569C71.554 97.9001 71.9569 98.1905 72.3998 98.1905C72.489 98.1905 72.5813 98.1783 72.6735 98.1538C73.7715 97.8481 74.8726 97.4997 75.946 97.1207C76.4719 96.9342 76.7456 96.3626 76.558 95.84C76.3704 95.3173 75.7953 95.0452 75.2693 95.2317H75.2663Z" fill="#227AA8"/>
<path d="M81.3003 92.6183C80.3284 93.1196 79.3288 93.5933 78.3261 94.0274C77.8156 94.2475 77.5819 94.8404 77.8033 95.3478C77.9694 95.7238 78.3384 95.95 78.729 95.95C78.8644 95.95 78.9997 95.9225 79.132 95.8675C80.1746 95.4151 81.2172 94.923 82.2291 94.4003C82.7242 94.1466 82.9149 93.5414 82.6597 93.0493C82.4044 92.5572 81.7954 92.3676 81.3003 92.6213V92.6183Z" fill="#227AA8"/>
<path d="M86.9226 89.2132C86.0307 89.8398 85.1019 90.445 84.17 91.0136C83.6932 91.3009 83.5456 91.9183 83.8347 92.3921C84.0254 92.7008 84.3576 92.872 84.6959 92.872C84.8743 92.872 85.0557 92.8261 85.2187 92.7252C86.1906 92.1353 87.1564 91.5057 88.0883 90.8516C88.5435 90.5306 88.6511 89.9071 88.3282 89.4547C88.0083 89.0023 87.3778 88.8953 86.9226 89.2163V89.2132Z" fill="#227AA8"/>
<path d="M106.493 59.0781C106.45 59.3074 106.41 59.5366 106.364 59.7659C106.25 60.3069 106.601 60.8387 107.148 60.9488C107.216 60.964 107.286 60.9702 107.354 60.9702C107.822 60.9702 108.243 60.6431 108.341 60.1693C108.437 59.7078 108.523 59.2432 108.606 58.7755C107.945 58.8061 107.2 58.8917 106.496 59.0781H106.493Z" fill="#227AA8"/>
<path d="M106.828 62.2509C106.29 62.1011 105.736 62.4129 105.586 62.9478C105.29 63.9962 104.955 65.0446 104.589 66.0716C104.401 66.5943 104.678 67.1659 105.201 67.3524C105.312 67.3921 105.426 67.4104 105.539 67.4104C105.955 67.4104 106.342 67.1537 106.49 66.7441C106.871 65.6773 107.222 64.5831 107.526 63.4888C107.677 62.957 107.363 62.4037 106.825 62.2539L106.828 62.2509Z" fill="#227AA8"/>
<path d="M101.725 74.6057C101.249 74.3184 100.63 74.4681 100.338 74.9389C99.7662 75.8681 99.1572 76.7912 98.5267 77.6776C98.2038 78.13 98.3145 78.7535 98.7666 79.0745C98.945 79.1998 99.148 79.2579 99.3479 79.2579C99.6647 79.2579 99.9754 79.1111 100.172 78.833C100.83 77.9099 101.467 76.9471 102.061 75.9781C102.35 75.5043 102.199 74.89 101.725 74.5996V74.6057Z" fill="#227AA8"/>
<path d="M104.706 68.6025C104.195 68.3824 103.602 68.6147 103.38 69.1221C102.943 70.1186 102.467 71.1151 101.962 72.084C101.707 72.5761 101.898 73.1813 102.393 73.435C102.54 73.5114 102.7 73.5481 102.857 73.5481C103.223 73.5481 103.574 73.3525 103.752 73.0071C104.278 71.9984 104.776 70.9622 105.232 69.923C105.453 69.4156 105.219 68.8257 104.709 68.6056L104.706 68.6025Z" fill="#227AA8"/>
<path d="M42.9264 95.25C41.893 94.8863 40.8595 94.4828 39.8569 94.0488C39.3464 93.8287 38.7528 94.061 38.5313 94.5684C38.3099 95.0758 38.5436 95.6657 39.0542 95.8858C40.0999 96.3382 41.1794 96.76 42.2559 97.139C42.3666 97.1787 42.4804 97.1971 42.5942 97.1971C43.0094 97.1971 43.3969 96.9403 43.5445 96.5307C43.7322 96.0081 43.4554 95.4365 42.9294 95.25H42.9264Z" fill="#227AA8"/>
<path d="M23.7927 82.7852C23.4113 82.3817 22.7747 82.3603 22.3687 82.7393C21.9627 83.1183 21.9412 83.7511 22.3225 84.1545C23.1037 84.9829 23.9219 85.7959 24.7523 86.5662C24.946 86.7465 25.1952 86.8352 25.4412 86.8352C25.7119 86.8352 25.9794 86.7282 26.1793 86.5173C26.5607 86.1138 26.5361 85.478 26.1301 85.1021C25.3305 84.3624 24.5462 83.5829 23.7958 82.7852H23.7927Z" fill="#227AA8"/>
<path d="M62.3947 97.8848C61.3029 97.9582 60.1957 97.9949 59.0977 97.9979C58.541 97.9979 58.0889 98.4473 58.0889 99.0005C58.0889 99.5537 58.541 100.003 59.0977 100.003C60.2387 100.003 61.3951 99.9633 62.53 99.8869C63.0867 99.8502 63.505 99.3703 63.4681 98.8201C63.4312 98.2669 62.9483 97.8482 62.3947 97.8879V97.8848Z" fill="#227AA8"/>
<path d="M17.817 74.9755C17.2449 74.0463 16.7005 73.0866 16.1961 72.1237C15.9378 71.6316 15.3288 71.4421 14.8367 71.6958C14.3415 71.9526 14.1509 72.5578 14.4061 73.0468C14.9321 74.0494 15.498 75.0489 16.0946 76.0178C16.2853 76.3266 16.6175 76.4977 16.9558 76.4977C17.1342 76.4977 17.3156 76.4519 17.4817 76.351C17.9584 76.0637 18.1061 75.4463 17.817 74.9725V74.9755Z" fill="#227AA8"/>
<path d="M31.2419 89.2346C30.35 88.608 29.4673 87.9417 28.6123 87.2539C28.1786 86.9055 27.545 86.9697 27.1944 87.4006C26.8438 87.8316 26.9084 88.4613 27.342 88.8097C28.2309 89.528 29.1505 90.2219 30.0793 90.873C30.2546 90.9983 30.4576 91.0563 30.6606 91.0563C30.9774 91.0563 31.288 90.9096 31.4849 90.6315C31.8047 90.1791 31.6971 89.5525 31.2419 89.2346Z" fill="#227AA8"/>
<path d="M19.6286 77.7082C19.3057 77.2558 18.6782 77.1488 18.2231 77.4697C17.7679 77.7907 17.6602 78.4142 17.9832 78.8666C18.6413 79.7897 19.3426 80.7036 20.0623 81.5809C20.2622 81.8224 20.5513 81.9507 20.8435 81.9507C21.068 81.9507 21.2925 81.8774 21.4801 81.7245C21.9107 81.3761 21.9753 80.7434 21.6247 80.3155C20.9327 79.4718 20.2622 78.5946 19.6286 77.7082Z" fill="#227AA8"/>
<path d="M49.2742 97.0106C48.2008 96.7906 47.1243 96.5307 46.0694 96.2404C45.5311 96.0906 44.9775 96.4024 44.8268 96.9373C44.6761 97.4691 44.9898 98.0224 45.5281 98.1721C46.6261 98.4747 47.7487 98.7468 48.8651 98.976C48.9328 98.9913 49.0035 98.9974 49.0681 98.9974C49.5356 98.9974 49.9569 98.6704 50.0554 98.1966C50.1692 97.6556 49.8155 97.1237 49.2711 97.0137L49.2742 97.0106Z" fill="#227AA8"/>
<path d="M55.8039 97.8879C54.709 97.8145 53.6049 97.7045 52.5253 97.5578C51.9748 97.4844 51.4642 97.8665 51.3904 98.4167C51.3166 98.9638 51.7011 99.4712 52.2547 99.5446C53.3803 99.6974 54.5306 99.8105 55.6717 99.8869C55.6932 99.8869 55.7178 99.8869 55.7393 99.8869C56.2652 99.8869 56.7081 99.4804 56.745 98.9516C56.7819 98.3984 56.3606 97.9215 55.807 97.8848L55.8039 97.8879Z" fill="#227AA8"/>
<path d="M14.7785 69.171C14.3418 68.1746 13.9327 67.1506 13.5667 66.1297C13.4221 65.7232 13.0377 65.4725 12.6286 65.4664V67.0192H11.749C12.1119 68.0126 12.5056 69.006 12.9301 69.9719C13.0961 70.3478 13.4652 70.574 13.8558 70.574C13.9911 70.574 14.1265 70.5465 14.2587 70.4915C14.7693 70.2714 15.003 69.6784 14.7785 69.171Z" fill="#227AA8"/>
<path d="M36.8764 92.6397C35.9015 92.1384 34.9357 91.5974 34.0007 91.0319C33.524 90.7446 32.9058 90.8944 32.6137 91.3681C32.3245 91.8419 32.4752 92.4563 32.952 92.7467C33.9269 93.3366 34.9327 93.899 35.9476 94.4217C36.0952 94.4981 36.2552 94.5348 36.412 94.5348C36.778 94.5348 37.1286 94.3361 37.307 93.9938C37.5623 93.5016 37.3685 92.8964 36.8764 92.6427V92.6397Z" fill="#227AA8"/>
<path d="M89.6109 44.709C89.6109 45.2439 89.1741 45.681 88.6328 45.681C88.0915 45.681 87.6548 45.247 87.6548 44.709C87.6548 44.171 88.0915 43.737 88.6328 43.737C89.1741 43.737 89.6109 44.171 89.6109 44.709Z" fill="#227AA8"/>
<path d="M92.6187 44.709C92.6187 45.2439 92.1819 45.681 91.6406 45.681C91.0993 45.681 90.6626 45.247 90.6626 44.709C90.6626 44.171 91.0993 43.737 91.6406 43.737C92.1819 43.737 92.6187 44.171 92.6187 44.709Z" fill="#227AA8"/>
<path d="M95.6299 44.709C95.6299 45.2439 95.1932 45.681 94.6519 45.681C94.1106 45.681 93.6738 45.247 93.6738 44.709C93.6738 44.171 94.1106 43.737 94.6519 43.737C95.1932 43.737 95.6299 44.171 95.6299 44.709Z" fill="#227AA8"/>
<path d="M84.8498 53.4417C83.4719 53.4417 82.4662 53.2706 82.3616 53.2522C81.9649 53.1819 81.6604 52.864 81.6081 52.4667C81.5558 52.0693 81.7711 51.6842 82.1371 51.5161C83.638 50.8253 84.3054 49.7402 84.5884 49.0677C82.2109 47.6158 80.8115 45.464 80.8115 43.199C80.8115 38.9442 85.671 35.4811 91.6407 35.4811C97.6104 35.4811 102.47 38.9442 102.47 43.199C102.47 47.4538 97.8411 50.7519 92.0651 50.9109C90.0937 53.0199 87.0089 53.4417 84.8467 53.4417H84.8498ZM91.6438 37.3151C86.689 37.3151 82.66 39.9529 82.66 43.199C82.66 44.9994 83.921 46.6866 86.1169 47.8206C86.4706 48.004 86.6675 48.3922 86.6029 48.7835C86.5875 48.866 86.3384 50.269 85.1143 51.6017C86.9966 51.5711 89.5185 51.1646 90.9302 49.4254C91.1056 49.2083 91.3701 49.083 91.6499 49.083C96.6047 49.083 100.634 46.4421 100.634 43.199C100.634 39.956 96.6047 37.3151 91.6499 37.3151H91.6438Z" fill="#227AA8"/>
<path d="M29.2949 58.8428V60.2824H24.8506V59.1423L26.8559 57.2992C27.2373 56.9446 27.2926 56.7337 27.2926 56.5442C27.2926 56.2752 27.1112 56.1102 26.7544 56.1102C26.4223 56.1102 26.1055 56.2905 25.9394 56.6206L24.5308 55.9207C24.9337 55.1657 25.7364 54.6461 26.9297 54.6461C28.2461 54.6461 29.1718 55.3216 29.1718 56.37C29.1718 56.9141 29.0304 57.4001 28.2215 58.1245L27.428 58.8397H29.2979L29.2949 58.8428Z" fill="#227AA8"/>
<path d="M35.0525 59.341H34.3143V60.2855H32.4997V59.341H29.624V58.1612L31.9769 54.7744H33.893L31.8015 57.8983H32.5551V57.0547H34.3143V57.8983H35.0525V59.338V59.341Z" fill="#227AA8"/>
<path d="M41.0005 54.7744V60.2855H39.1305V58.2529H37.4051V60.2855H35.5352V54.7744H37.4051V56.7276H39.1305V54.7744H41.0005Z" fill="#227AA8"/>
<path d="M43.5995 86.6029C43.2612 86.6029 42.9844 86.3278 42.9844 85.9915V76.0056C42.9844 75.6694 43.2612 75.3943 43.5995 75.3943C43.9378 75.3943 44.2146 75.6694 44.2146 76.0056V85.9915C44.2146 86.3278 43.9378 86.6029 43.5995 86.6029Z" fill="#227AA8"/>
<path d="M43.5995 73.3586C43.2612 73.3586 42.9844 73.0835 42.9844 72.7473V69.9444C42.9844 69.6081 43.2612 69.333 43.5995 69.333C43.9378 69.333 44.2146 69.6081 44.2146 69.9444V72.7473C44.2146 73.0835 43.9378 73.3586 43.5995 73.3586Z" fill="#227AA8"/>
<path d="M51.7777 26.2074C51.5008 26.2074 51.2486 26.0179 51.181 25.7397C51.101 25.4126 51.304 25.0825 51.6362 25.0031C53.1832 24.6332 54.6872 24.1044 56.1081 23.4259C56.6986 23.1446 57.2953 22.8268 57.8735 22.5211C59.0976 21.8731 60.3647 21.2006 61.7334 20.7697C64.1139 20.0238 66.3283 20.1155 68.3121 21.0448C68.6196 21.1884 68.7519 21.5522 68.6073 21.8578C68.4628 22.1635 68.0968 22.2949 67.7892 22.1512C66.0946 21.3565 64.1815 21.2862 62.1055 21.9373C60.8445 22.3316 59.6819 22.949 58.4548 23.6001C57.8673 23.9119 57.2584 24.2359 56.6432 24.5293C55.1424 25.2445 53.5553 25.8039 51.9253 26.1921C51.8761 26.2043 51.8299 26.2104 51.7807 26.2104L51.7777 26.2074Z" fill="#227AA8"/>
<path d="M46.9923 26.834C46.6601 26.834 46.3864 26.5711 46.3772 26.2379C46.368 25.9017 46.6355 25.6205 46.9769 25.6113C47.469 25.5991 47.9703 25.5685 48.4686 25.5227C48.8069 25.4921 49.1052 25.7397 49.1391 26.0759C49.1698 26.4122 48.9207 26.7087 48.5824 26.7423C48.0595 26.7912 47.5305 26.8218 47.0077 26.834C47.0015 26.834 46.9954 26.834 46.9923 26.834Z" fill="#227AA8"/>
<path d="M54.9488 23.2394C54.7212 23.2394 54.5029 23.1141 54.3952 22.8971C54.2445 22.5945 54.3706 22.2277 54.6751 22.0779C55.4256 21.7111 56.1668 21.2679 56.8803 20.84C57.5569 20.4334 58.2582 20.0147 58.984 19.6479C60.4757 18.8929 62.9454 18.3488 64.7231 18.3519C65.0614 18.3549 65.3351 18.63 65.3321 18.9693C65.329 19.3055 65.0553 19.5745 64.7169 19.5745C64.6923 19.5745 64.6677 19.5745 64.6431 19.5745C63.0653 19.5745 60.8417 20.0789 59.5407 20.736C58.8548 21.0845 58.1721 21.491 57.5139 21.8853C56.7757 22.3255 56.013 22.784 55.2164 23.1722C55.1303 23.2149 55.038 23.2363 54.9458 23.2363L54.9488 23.2394Z" fill="#227AA8"/>
<path d="M48.1886 24.8044C47.9118 24.8044 47.632 24.7983 47.3552 24.783C47.0168 24.7646 46.7554 24.4773 46.7739 24.1411C46.7923 23.8049 47.0876 23.5451 47.4197 23.5634C49.1052 23.652 50.7906 23.4503 52.4207 22.9612C52.7436 22.8634 53.0881 23.0468 53.1865 23.3708C53.2849 23.6948 53.1004 24.0341 52.7744 24.1319C51.2735 24.5782 49.7357 24.8044 48.1886 24.8044Z" fill="#227AA8"/>
<path d="M48.4745 15.7262C48.2684 15.7262 48.0685 15.6254 47.9516 15.4389C47.7732 15.1516 47.8594 14.7756 48.1485 14.5953C52.525 11.881 58.7039 11.0924 64.2708 12.5321C64.5998 12.6177 64.7967 12.9508 64.7106 13.2779C64.6245 13.6049 64.2892 13.8006 63.9601 13.715C58.707 12.3548 52.9003 13.0914 48.8005 15.6315C48.699 15.6957 48.5852 15.7232 48.4745 15.7232V15.7262Z" fill="#227AA8"/>
<path d="M69.8314 16.2703C69.6715 16.2703 69.5116 16.2092 69.3885 16.0839C68.6781 15.3564 66.6297 14.5892 65.9008 14.3569C65.5779 14.253 65.3995 13.9076 65.504 13.5866C65.6086 13.2657 65.9531 13.0884 66.2791 13.1923C66.5774 13.2871 69.2255 14.1552 70.2743 15.2341C70.5111 15.4756 70.505 15.8638 70.262 16.0992C70.142 16.2153 69.9883 16.2703 69.8345 16.2703H69.8314Z" fill="#227AA8"/>
<path d="M48.8407 22.787C48.65 22.787 48.4624 22.6984 48.3425 22.5333C48.1426 22.2582 48.2041 21.8761 48.4809 21.6805C51.741 19.3361 55.5732 17.82 59.5623 17.3004C59.8944 17.2545 60.2081 17.493 60.2512 17.8261C60.2943 18.1624 60.0574 18.468 59.7222 18.5108C55.9361 19.006 52.2977 20.4426 49.2036 22.6678C49.096 22.7473 48.9699 22.7839 48.8438 22.7839L48.8407 22.787Z" fill="#227AA8"/>
<path d="M42.9633 42.007C42.6249 42.007 42.3481 41.7319 42.3481 41.3956V36.3828C42.3481 36.0466 42.6249 35.7715 42.9633 35.7715C43.3016 35.7715 43.5784 36.0466 43.5784 36.3828V41.3956C43.5784 41.7319 43.3016 42.007 42.9633 42.007Z" fill="#227AA8"/>
<path d="M74.7831 42.007C74.4448 42.007 74.168 41.7319 74.168 41.3956V36.3828C74.168 36.0466 74.4448 35.7715 74.7831 35.7715C75.1214 35.7715 75.3982 36.0466 75.3982 36.3828V41.3956C75.3982 41.7319 75.1214 42.007 74.7831 42.007Z" fill="#227AA8"/>
<path d="M28.8889 42.3432L24.5708 46.3902H26.7206V50.6205H31.0572V46.3902H33.2071L28.8889 42.3432Z" fill="#227AA8"/>
<path d="M37.0856 52.1305L41.4037 48.0835H39.2569V43.8562H34.9173V48.0835H32.7705L37.0856 52.1305Z" fill="#227AA8"/>
<path d="M89.7645 65.1119C89.7645 64.6259 89.2909 64.3722 88.7066 64.3722C88.0268 64.3722 87.3933 64.7818 87.0642 65.4389L84.25 64.0421C85.0558 62.5352 86.652 61.4959 89.1802 61.4959C91.7083 61.4959 93.5106 62.5321 93.5106 64.4975C93.5106 66.9 90.9825 67.3249 90.9825 68.5353H87.7254C87.7254 66.6341 89.7645 66.0686 89.7645 65.1119ZM87.2672 71.0172C87.2672 69.9658 88.1222 69.1649 89.3524 69.1649C90.5827 69.1649 91.4377 69.9658 91.4377 71.0172C91.4377 72.0687 90.5827 72.9032 89.3524 72.9032C88.1222 72.9032 87.2672 72.0565 87.2672 71.0172Z" fill="#227AA8"/>
</g>
<defs>
<clipPath id="clip0_16_2317">
<rect width="118.072" height="100" fill="white"/>
</clipPath>
</defs>
</svg>
