<svg width="34" height="35" viewBox="0 0 34 35" fill="none" xmlns="http://www.w3.org/2000/svg">
<g clip-path="url(#clip0_161_111253)">
<path fill-rule="evenodd" clip-rule="evenodd" d="M17.3661 16.1794C17.297 16.1794 17.2288 16.183 17.1617 16.1899L13.157 9.47156C12.738 8.76855 11.4974 9.29488 12.062 10.238L15.9677 16.7628C15.6334 17.1035 15.428 17.566 15.428 18.0756C15.428 19.1228 16.2957 19.9718 17.3662 19.9718C18.4366 19.9718 19.3044 19.1228 19.3044 18.0756C19.3044 17.7147 19.2013 17.3774 19.0224 17.0903L27.7519 9.19204C28.3627 8.63939 27.5693 7.56895 26.7501 8.31197L17.9719 16.2739C17.7814 16.2126 17.5777 16.1793 17.3662 16.1793L17.3661 16.1794Z" fill="#469CC5"/>
<path fill-rule="evenodd" clip-rule="evenodd" d="M33.837 21.9229C33.6694 21.6457 33.4193 21.4682 33.0978 21.3984L32.6836 21.3085C32.0929 21.1802 31.5042 21.5206 31.3338 22.0887C29.1874 29.2396 21.7089 33.6354 14.1622 31.9969C6.28867 30.2874 1.32244 22.6571 3.06965 14.954C4.81657 7.25205 12.6135 2.39368 20.4857 4.1007L20.1896 5.40608L25.588 3.74202L21.4159 0L21.0748 1.50373C11.7365 -0.521676 2.48747 5.24137 0.415121 14.3776C-1.65752 23.515 4.23342 32.5661 13.573 34.5939C22.536 36.5399 31.4177 31.3103 33.9513 22.8094C34.0434 22.5001 34.0047 22.2002 33.837 21.9229Z" fill="#469CC5"/>
<path fill-rule="evenodd" clip-rule="evenodd" d="M17.2936 29.4023C17.0054 29.4023 16.7695 29.6331 16.7695 29.9151V31.4021C16.7695 31.6841 17.0054 31.9148 17.2936 31.9148C17.5818 31.9148 17.8177 31.6841 17.8177 31.4021V29.9151C17.8177 29.6331 17.5818 29.4023 17.2936 29.4023Z" fill="#469CC5"/>
<path fill-rule="evenodd" clip-rule="evenodd" d="M23.099 27.9165C22.8495 28.0574 22.7631 28.3727 22.9072 28.6169L23.6671 29.9047C23.8112 30.1489 24.1334 30.2334 24.3831 30.0923C24.6326 29.9513 24.719 29.636 24.5749 29.3919L23.815 28.1041C23.6709 27.8599 23.3487 27.7754 23.0991 27.9165H23.099Z" fill="#469CC5"/>
<path fill-rule="evenodd" clip-rule="evenodd" d="M28.0832 23.602C27.8337 23.461 27.5115 23.5454 27.3674 23.7897C27.2233 24.0339 27.3096 24.3491 27.5592 24.4901L28.8754 25.2336C29.125 25.3746 29.4472 25.2902 29.5913 25.0459C29.7353 24.8017 29.6491 24.4865 29.3994 24.3455L28.0831 23.602H28.0832Z" fill="#469CC5"/>
<path d="M30.9986 17.6152H29.4787C29.1892 17.6152 28.9546 17.8448 28.9546 18.128C28.9546 18.4112 29.1892 18.6407 29.4787 18.6407H30.9986C31.288 18.6407 31.5227 18.4112 31.5227 18.128C31.5227 17.8448 31.288 17.6152 30.9986 17.6152Z" fill="#469CC5"/>
<path fill-rule="evenodd" clip-rule="evenodd" d="M27.436 12.4483C27.5801 12.6925 27.9022 12.777 28.1518 12.636L29.4682 11.8924C29.7178 11.7514 29.8041 11.4363 29.66 11.1921C29.5159 10.9478 29.1939 10.8633 28.9442 11.0043L27.6278 11.7479C27.3782 11.889 27.2919 12.204 27.4361 12.4483H27.436Z" fill="#469CC5"/>
<path fill-rule="evenodd" clip-rule="evenodd" d="M23.2179 8.27249C23.4676 8.41343 23.7897 8.32904 23.9338 8.08478L24.6937 6.79699C24.8378 6.55283 24.7515 6.23758 24.5019 6.09664C24.2523 5.9556 23.9301 6.04009 23.786 6.28425L23.0261 7.57204C22.882 7.8162 22.9683 8.13145 23.2179 8.27239V8.27249Z" fill="#469CC5"/>
<path d="M17.4311 4.20703C17.7204 4.20703 17.9552 4.43674 17.9552 4.71977V6.20677C17.9552 6.48971 17.7204 6.71952 17.4311 6.71952C17.1419 6.71952 16.907 6.4898 16.907 6.20677V4.71977C16.907 4.43674 17.1418 4.20703 17.4311 4.20703Z" fill="#469CC5"/>
<path fill-rule="evenodd" clip-rule="evenodd" d="M11.8177 7.50518L11.0578 6.21738C10.9137 5.97322 10.5915 5.88873 10.3419 6.02968C10.0924 6.17072 10.006 6.48587 10.1501 6.73012L10.91 8.01792C11.0541 8.26208 11.3763 8.34657 11.6259 8.20562C11.8754 8.06458 11.9618 7.74943 11.8177 7.50518Z" fill="#469CC5"/>
<path fill-rule="evenodd" clip-rule="evenodd" d="M7.16588 11.6316L5.84959 10.8881C5.60003 10.7472 5.27781 10.8315 5.13375 11.0758C4.98968 11.3201 5.07595 11.6353 5.3256 11.7762L6.64189 12.5197C6.89145 12.6607 7.21367 12.5763 7.35773 12.332C7.5018 12.0878 7.41553 11.7725 7.16598 11.6316H7.16588Z" fill="#469CC5"/>
<path d="M3.72623 17.4811H5.24613C5.53542 17.4811 5.77022 17.7108 5.77022 17.9938C5.77022 18.2768 5.53542 18.5065 5.24613 18.5065H3.72623C3.43704 18.5065 3.20215 18.2768 3.20215 17.9938C3.20215 17.7108 3.43694 17.481 3.72623 17.481V17.4811Z" fill="#469CC5"/>
<path fill-rule="evenodd" clip-rule="evenodd" d="M5.06498 24.9297C5.20914 25.1739 5.53126 25.2583 5.78082 25.1174L7.09711 24.3739C7.34667 24.2329 7.43303 23.9177 7.28887 23.6735C7.14471 23.4293 6.82258 23.3448 6.57302 23.4857L5.25673 24.2292C5.00717 24.3702 4.92081 24.6854 5.06488 24.9296L5.06498 24.9297Z" fill="#469CC5"/>
<path fill-rule="evenodd" clip-rule="evenodd" d="M11.5068 27.8491C11.2572 27.708 10.935 27.7925 10.7909 28.0367L10.031 29.3245C9.8869 29.5687 9.97316 29.8839 10.2228 30.0249C10.4724 30.1659 10.7946 30.0815 10.9387 29.8372L11.6986 28.5494C11.8427 28.3053 11.7564 27.99 11.5069 27.8491H11.5068Z" fill="#469CC5"/>
</g>
<defs>
<clipPath id="clip0_161_111253">
<rect width="34" height="35" fill="white"/>
</clipPath>
</defs>
</svg>
