<svg width="27" height="24" viewBox="0 0 27 24" fill="none" xmlns="http://www.w3.org/2000/svg">
<g clip-path="url(#clip0_161_111275)">
<path d="M4.22937 10.3421C5.69136 10.3421 6.88 9.0544 6.88 7.47058C6.88 5.88675 5.69136 4.59906 4.22937 4.59906C2.76738 4.59906 1.57873 5.88675 1.57873 7.47058C1.57873 9.0544 2.76738 10.3421 4.22937 10.3421ZM22.7838 10.3421C24.2458 10.3421 25.4344 9.0544 25.4344 7.47058C25.4344 5.88675 24.2458 4.59906 22.7838 4.59906C21.3218 4.59906 20.1332 5.88675 20.1332 7.47058C20.1332 9.0544 21.3218 10.3421 22.7838 10.3421ZM24.1091 11.7779H21.4585C20.7296 11.7779 20.071 12.0964 19.5906 12.6124C21.2597 13.604 22.4442 15.3942 22.701 17.5209H25.4344C26.1675 17.5209 26.7597 16.8793 26.7597 16.0851V14.6494C26.7597 13.0656 25.5711 11.7779 24.1091 11.7779ZM13.5066 11.7779C16.0702 11.7779 18.1452 9.52999 18.1452 6.7527C18.1452 3.9754 16.0702 1.72754 13.5066 1.72754C10.9429 1.72754 8.86797 3.9754 8.86797 6.7527C8.86797 9.52999 10.9429 11.7779 13.5066 11.7779ZM16.6873 13.2136H16.3436C15.4821 13.6623 14.5254 13.9315 13.5066 13.9315C12.4877 13.9315 11.5352 13.6623 10.6696 13.2136H10.3258C7.69176 13.2136 5.55468 15.5288 5.55468 18.3823V19.6745C5.55468 20.8635 6.44513 21.8282 7.54266 21.8282H19.4705C20.568 21.8282 21.4585 20.8635 21.4585 19.6745V18.3823C21.4585 15.5288 19.3214 13.2136 16.6873 13.2136ZM7.42255 12.6124C6.94212 12.0964 6.28361 11.7779 5.55468 11.7779H2.90405C1.44206 11.7779 0.253418 13.0656 0.253418 14.6494V16.0851C0.253418 16.8793 0.845669 17.5209 1.57873 17.5209H4.30806C4.56898 15.3942 5.75348 13.604 7.42255 12.6124Z" fill="#469CC5"/>
</g>
<defs>
<clipPath id="clip0_161_111275">
<rect width="26.5063" height="22.9722" fill="white" transform="translate(0.253418 0.291992)"/>
</clipPath>
</defs>
</svg>
