<svg width="18" height="18" viewBox="0 0 18 18" fill="none" xmlns="http://www.w3.org/2000/svg">
<path d="M17.4329 12.1152C18.1896 10.1073 18.1896 7.89251 17.4329 5.88454C17.4221 5.84379 17.4075 5.80416 17.3893 5.76616C16.7356 4.07106 15.5846 2.61327 14.0874 1.5842C12.5902 0.555131 10.8167 0.00289324 8.99995 0H8.9958C7.17775 0.00385219 5.40341 0.557755 3.90606 1.58889C2.4087 2.62002 1.25842 4.08012 0.606436 5.77723C0.593208 5.80639 0.582102 5.83647 0.573206 5.86723C-0.191069 7.88575 -0.191069 10.114 0.573206 12.1325C0.582102 12.1633 0.593208 12.1934 0.606436 12.2225C1.25569 13.9213 2.40512 15.383 3.90281 16.4145C5.4005 17.4461 7.17596 17.9989 8.99454 18C10.8131 18.001 12.5892 17.4503 14.0881 16.4204C15.587 15.3906 16.7381 13.9302 17.3893 12.2322C17.4075 12.1947 17.4221 12.1555 17.4329 12.1152ZM6.67034 11.2291C6.35464 9.75972 6.35464 8.24005 6.67034 6.77068H11.3296C11.6453 8.24005 11.6453 9.75972 11.3296 11.2291H6.67034ZM10.9502 12.6137C10.5015 13.9204 9.8428 15.1452 8.99995 16.2399C8.15831 15.1449 7.50056 13.9201 7.0525 12.6137H10.9502ZM1.38459 8.99988C1.38522 8.24416 1.49886 7.49279 1.72174 6.77068H5.26012C4.98227 8.24383 4.98227 9.75594 5.26012 11.2291H1.72174C1.49886 10.507 1.38522 9.7556 1.38459 8.99988ZM7.0525 5.38608C7.50162 4.07943 8.16055 2.85465 9.00341 1.75982C9.84504 2.85478 10.5026 4.07959 10.9502 5.38608H7.0525ZM12.7453 6.77068H16.2837C16.7305 8.22324 16.7305 9.77653 16.2837 11.2291H12.7419C13.0206 9.75602 13.0206 8.24374 12.7419 6.77068H12.7453ZM15.7042 5.38608H12.4158C12.003 4.01846 11.3791 2.72371 10.5666 1.54867C11.6493 1.77829 12.6691 2.24037 13.5556 2.90295C14.4421 3.56552 15.174 4.41277 15.7008 5.38608H15.7042ZM7.43326 1.54867C6.62056 2.72366 5.99642 4.01841 5.58342 5.38608H2.29843C2.82524 4.41267 3.55728 3.56534 4.44388 2.90276C5.33049 2.24018 6.35048 1.77815 7.43326 1.54867ZM2.29843 12.6137H5.58342C5.99642 13.9814 6.62056 15.2761 7.43326 16.4511C6.35048 16.2216 5.33049 15.7596 4.44388 15.097C3.55728 14.4344 2.82524 13.5871 2.29843 12.6137ZM10.5666 16.4511C11.3791 15.2761 12.003 13.9813 12.4158 12.6137H15.7008C15.174 13.587 14.4421 14.4342 13.5556 15.0968C12.6691 15.7594 11.6493 16.2215 10.5666 16.4511Z" fill="#227AA8"/>
</svg>
