<svg width="12" height="17" viewBox="0 0 12 17" fill="none" xmlns="http://www.w3.org/2000/svg">
<path d="M10.2428 10.199L6 14.4237L1.75725 10.199C0.918169 9.36343 0.346755 8.29888 0.115268 7.13995C-0.116218 5.98102 0.00262021 4.77976 0.456755 3.68808C0.91089 2.59641 1.67993 1.66333 2.66661 1.00686C3.6533 0.35039 4.81333 0 6 0C7.18668 0 8.3467 0.35039 9.33339 1.00686C10.3201 1.66333 11.0891 2.59641 11.5433 3.68808C11.9974 4.77976 12.1162 5.98102 11.8847 7.13995C11.6533 8.29888 11.0818 9.36343 10.2428 10.199ZM0.750003 14.936H11.25V16.4296H0.750003V14.936Z" fill="#227AA8"/>
</svg>
