<svg width="15" height="15" viewBox="0 0 15 15" fill="none" xmlns="http://www.w3.org/2000/svg">
<path d="M0.18225 4.24675L7.1175 0.106428C7.23406 0.036787 7.36744 0 7.50338 0C7.63931 0 7.77269 0.036787 7.88925 0.106428L14.8177 4.2475C14.8733 4.28067 14.9194 4.32762 14.9513 4.38377C14.9832 4.43992 15 4.50335 15 4.56788V14.0643C15 14.2624 14.921 14.4524 14.7803 14.5924C14.6397 14.7325 14.4489 14.8112 14.25 14.8112H0.75C0.551088 14.8112 0.360322 14.7325 0.21967 14.5924C0.0790176 14.4524 8.25545e-09 14.2624 8.25545e-09 14.0643V4.56713C-1.35884e-05 4.5026 0.0167683 4.43917 0.0487091 4.38302C0.0806499 4.32687 0.126659 4.27992 0.18225 4.24675ZM12.2595 5.28482L7.54575 9.34673L2.73525 5.28034L1.76475 6.41848L7.55475 11.3138L13.2405 6.41475L12.2595 5.28482Z" fill="#227AA8"/>
</svg>
