<svg width="14" height="15" viewBox="0 0 14 15" fill="none" xmlns="http://www.w3.org/2000/svg">
<path d="M6.08398 2.04907L6.69102 1.44204C6.94805 1.18501 7.36367 1.18501 7.61797 1.44204L12.9336 6.75493C13.1906 7.01196 13.1906 7.42759 12.9336 7.68188L7.61797 12.9975C7.36094 13.2545 6.94531 13.2545 6.69102 12.9975L6.08398 12.3905C5.82422 12.1307 5.82969 11.7069 6.09492 11.4526L9.38984 8.31353H1.53125C1.16758 8.31353 0.875 8.02095 0.875 7.65728V6.78228C0.875 6.4186 1.16758 6.12603 1.53125 6.12603H9.38984L6.09492 2.98696C5.82695 2.73267 5.82148 2.30884 6.08398 2.04907Z" fill="white"/>
</svg>
