<svg width="44" height="44" viewBox="0 0 44 44" fill="none" xmlns="http://www.w3.org/2000/svg">
<g clip-path="url(#clip0_36_3688)">
<path d="M40.7773 23.1602H34.8003C34.7085 26.7532 31.7593 29.6484 28.1445 29.6484H22.0859V36.6953C22.0859 38.4723 23.5316 39.918 25.3086 39.918H37.1592L41.9056 43.7151C42.7496 44.3903 43.9999 43.7895 43.9999 42.7085V26.3828C44 24.6058 42.5544 23.1602 40.7773 23.1602ZM37.5547 35.4062H27.2422C26.5303 35.4062 25.9531 34.8291 25.9531 34.1172C25.9531 33.4053 26.5303 32.8281 27.2422 32.8281H37.5547C38.2666 32.8281 38.8438 33.4053 38.8438 34.1172C38.8438 34.8291 38.2666 35.4062 37.5547 35.4062ZM37.5547 30.25H34.9766C34.2647 30.25 33.6875 29.6728 33.6875 28.9609C33.6875 28.249 34.2647 27.6719 34.9766 27.6719H37.5547C38.2666 27.6719 38.8438 28.249 38.8438 28.9609C38.8438 29.6728 38.2666 30.25 37.5547 30.25Z" fill="white"/>
<path d="M7.08984 17.4023H9.66797V19.9805H7.08984V17.4023Z" fill="white"/>
<path d="M17.4023 13.9648H19.9805V19.9805H17.4023V13.9648Z" fill="white"/>
<path d="M12.2461 7.08984H14.8242V19.9805H12.2461V7.08984Z" fill="white"/>
<path d="M22.5586 10.5273H25.1367V19.9805H22.5586V10.5273Z" fill="white"/>
<path d="M32.2266 22.9883V4.08203C32.2266 1.82755 30.399 0 28.1445 0H4.08203C1.82755 0 0 1.82755 0 4.08203V32.2266C0 33.3279 1.29181 33.922 2.12798 33.2053L9.28546 27.0703H28.1445C30.399 27.0703 32.2266 25.2428 32.2266 22.9883ZM27.7148 21.2695C27.7148 21.9814 27.1377 22.5586 26.4258 22.5586H5.80078C5.08887 22.5586 4.51172 21.9814 4.51172 21.2695V16.1133C4.51172 15.4014 5.08887 14.8242 5.80078 14.8242H9.66797V5.80078C9.66797 5.08887 10.2451 4.51172 10.957 4.51172H16.1133C16.8252 4.51172 17.4023 5.08887 17.4023 5.80078V11.3867H19.9805V9.23828C19.9805 8.52637 20.5576 7.94922 21.2695 7.94922H26.4258C27.1377 7.94922 27.7148 8.52637 27.7148 9.23828V21.2695Z" fill="white"/>
</g>
<defs>
<clipPath id="clip0_36_3688">
<rect width="44" height="44" fill="white"/>
</clipPath>
</defs>
</svg>
