<svg width="25" height="26" viewBox="0 0 25 26" fill="none" xmlns="http://www.w3.org/2000/svg">
<g clip-path="url(#clip0_16_2500)">
<path d="M25 22.876C25 24.1704 23.9507 25.2197 22.6562 25.2197H2.34375C1.04932 25.2197 0 24.1704 0 22.876V10.0207C4.31745e-06 9.66531 0.0808345 9.31456 0.236376 8.995C0.391917 8.67544 0.618096 8.39544 0.897803 8.17618C2.11426 7.22261 3.11953 6.44937 8.91538 2.24303C9.73691 1.64405 11.367 0.202791 12.5 0.219881C13.6327 0.202595 15.2635 1.64429 16.0846 2.24298C21.8799 6.44888 22.8865 7.2232 24.1022 8.17618C24.3819 8.39544 24.6081 8.67544 24.7636 8.995C24.9192 9.31456 25 9.66531 25 10.0207V22.876ZM21.7937 13.2761C21.6685 13.0941 21.4177 13.0518 21.24 13.183C20.1245 14.0069 18.5319 15.1706 16.0846 16.9466C15.2631 17.5456 13.633 18.9867 12.5 18.9696C11.3667 18.9864 9.73833 17.5466 8.91538 16.9466C6.46841 15.1708 4.87563 14.007 3.76001 13.183C3.58232 13.0518 3.33149 13.0941 3.20635 13.2761L2.76338 13.9205C2.70596 14.0039 2.68323 14.1065 2.69999 14.2064C2.71674 14.3063 2.77167 14.3958 2.85317 14.456C3.9707 15.2811 5.56089 16.4428 7.99492 18.2093C8.98486 18.931 10.7549 20.5439 12.5 20.5322C14.2443 20.544 16.0137 18.932 17.005 18.2093C19.4391 16.4427 21.0293 15.2811 22.1468 14.456C22.2283 14.3958 22.2832 14.3063 22.3 14.2064C22.3167 14.1065 22.294 14.0039 22.2366 13.9205L21.7937 13.2761Z" fill="white"/>
</g>
<defs>
<clipPath id="clip0_16_2500">
<rect width="25" height="25" fill="white" transform="translate(0 0.219727)"/>
</clipPath>
</defs>
</svg>
