<svg width="129" height="161" viewBox="0 0 129 161" fill="none" xmlns="http://www.w3.org/2000/svg">
<g id="Icon">
<rect id="Background" y="160.54" width="160" height="129" rx="23" transform="rotate(-90 0 160.54)" fill="#57B8E8"/>
<g id="Icon_2">
<path id="Vector" d="M81.6645 90.4034L72.9814 99.0599C71.8689 100.168 70.3702 100.787 68.7995 100.787H45.9226C42.6523 100.787 40 98.1318 40 94.8579V60.4691C40 57.1952 42.6523 54.54 45.9226 54.54H77.4826C80.7529 54.54 83.4052 57.1952 83.4052 60.4691V86.2015C83.4103 87.7791 82.782 89.2897 81.6645 90.4034Z" stroke="white" stroke-width="2.5" stroke-miterlimit="10"/>
<path id="Vector_2" d="M86.9281 95.9354L78.245 104.592C77.1326 105.7 75.6339 106.319 74.0631 106.319H51.1914C47.9211 106.319 45.2688 103.664 45.2688 100.39V66.0011C45.2688 62.7272 47.9211 60.072 51.1914 60.072H82.7514C86.0217 60.072 88.674 62.7272 88.674 66.0011V91.7334C88.674 93.3111 88.0457 94.8217 86.9281 95.9354Z" fill="white"/>
<path id="Rectangle 297" d="M53.7258 74.0892C53.7258 73.4459 54.2474 72.9243 54.8908 72.9243H79.7427C80.386 72.9243 80.9076 73.4459 80.9076 74.0892C80.9076 74.7326 80.386 75.2542 79.7427 75.2542H54.8908C54.2474 75.2542 53.7258 74.7326 53.7258 74.0892Z" fill="#56B7E8"/>
<path id="Rectangle 298" d="M53.7258 79.526C53.7258 78.8826 54.2474 78.3611 54.8908 78.3611H79.7427C80.386 78.3611 80.9076 78.8826 80.9076 79.526C80.9076 80.1694 80.386 80.6909 79.7427 80.6909H54.8908C54.2474 80.6909 53.7258 80.1694 53.7258 79.526Z" fill="#56B7E8"/>
<path id="Rectangle 299" d="M53.7258 84.9622C53.7258 84.3188 54.2474 83.7972 54.8908 83.7972H79.7427C80.386 83.7972 80.9076 84.3188 80.9076 84.9622C80.9076 85.6055 80.386 86.1271 79.7427 86.1271H54.8908C54.2474 86.1271 53.7258 85.6055 53.7258 84.9622Z" fill="#56B7E8"/>
<path id="Rectangle 300" d="M53.7258 90.3985C53.7258 89.7551 54.2474 89.2335 54.8908 89.2335H67.3167C67.9601 89.2335 68.4816 89.7551 68.4816 90.3985C68.4816 91.0418 67.9601 91.5634 67.3167 91.5634H54.8908C54.2474 91.5634 53.7258 91.0418 53.7258 90.3985Z" fill="#56B7E8"/>
</g>
</g>
</svg>
