<svg width="129" height="161" viewBox="0 0 129 161" fill="none" xmlns="http://www.w3.org/2000/svg">
<g id="Icon">
<rect id="Background" y="160.54" width="160" height="129" rx="23" transform="rotate(-90 0 160.54)" fill="#57B8E8"/>
<g id="Icon_2">
<path id="Vector" d="M89.1213 69.8669C89.1213 55.2785 76.9173 43.5712 62.27 44.6034C49.969 45.4658 39.9822 55.5007 39.0708 67.9331C38.2693 78.8826 44.3518 88.4863 53.4014 92.7916C54.7588 93.4384 55.625 94.8169 55.625 96.3325V102.336V106.87C55.625 111.248 58.7988 115.089 63.1038 115.573C68.191 116.141 72.5024 112.13 72.5024 107.099V96.3325C72.5024 94.8169 73.3751 93.4384 74.7325 92.7916C83.2326 88.7345 89.1213 79.9998 89.1213 69.8669Z" stroke="white" stroke-width="2.5" stroke-miterlimit="10"/>
<path id="Vector_2" d="M72.4961 101.99H55.6187" stroke="white" stroke-width="2.5" stroke-miterlimit="10"/>
<g id="Pattern">
<path id="Vector_3" d="M64.0603 71.4935C59.1542 71.4935 55.1594 75.531 55.1594 80.4896V85.7292C57.7644 87.2971 60.8089 88.2052 64.0603 88.2052C67.3117 88.2052 70.3562 87.3036 72.9612 85.7292V80.4896C72.9612 75.531 68.9665 71.4935 64.0603 71.4935Z" fill="#9ADAFA"/>
<path id="Vector_4" d="M50.7705 80.4896C50.7705 73.0811 56.7303 67.0576 64.0604 67.0576C71.3906 67.0576 77.3503 73.0811 77.3503 80.4896V81.9727C79.923 78.9021 81.4743 74.9365 81.4743 70.6051C81.4743 60.8838 73.6788 53.0049 64.0604 53.0049C54.442 53.0049 46.6465 60.8838 46.6465 70.6051C46.6465 74.943 48.1978 78.9086 50.7705 81.9727V80.4896Z" fill="#9ADAFA"/>
</g>
</g>
</g>
</svg>
