<svg width="129" height="161" viewBox="0 0 129 161" fill="none" xmlns="http://www.w3.org/2000/svg">
<g id="Icon">
<rect id="Background" y="160.54" width="160" height="129" rx="23" transform="rotate(-90 0 160.54)" fill="#57B8E8"/>
<g id="Icon_2">
<path id="Vector" d="M89.1617 109.508C92.2443 109.508 94.4919 106.619 93.7598 103.633C91.1176 92.874 81.3723 84.8848 69.7569 84.8848C58.1414 84.8848 48.3904 92.874 45.7539 103.638C45.0219 106.624 47.2695 109.508 50.352 109.508H89.1617Z" stroke="white" stroke-width="2.5" stroke-miterlimit="10"/>
<path id="Vector_2" d="M69.7565 79.5054C77.1507 79.5054 83.1449 73.5328 83.1449 66.1653C83.1449 58.7978 77.1507 52.8252 69.7565 52.8252C62.3623 52.8252 56.3682 58.7978 56.3682 66.1653C56.3682 73.5328 62.3623 79.5054 69.7565 79.5054Z" stroke="white" stroke-width="2.5" stroke-miterlimit="10"/>
<path id="Vector_3" d="M41.413 101.758C43.6205 92.766 49.3053 85.7056 59.2851 82.4233C48.0414 82.7994 37.7185 89.951 35.1392 100.453C34.4071 103.439 36.6547 106.323 39.7373 106.323H42.2422C41.373 105.046 41.0069 103.416 41.413 101.758Z" fill="white"/>
<path id="Vector_4" d="M52.3592 63.5102C52.3592 55.2588 59.0734 48.5688 67.3546 48.5688C70.2828 48.5688 73.0165 49.4065 75.3213 50.8539C72.7763 47.0531 68.4298 44.54 63.4942 44.54C55.6591 44.54 49.3052 50.871 49.3052 58.6836C49.3052 62.4389 50.7807 65.8523 53.177 68.3881C52.6508 66.8552 52.3592 65.2197 52.3592 63.5102Z" fill="white"/>
</g>
</g>
</svg>
