<svg width="48" height="66" viewBox="0 0 48 66" fill="none" xmlns="http://www.w3.org/2000/svg">
<path d="M24.6496 34.2375C31.5305 34.2375 37.1086 28.6595 37.1086 21.7786C37.1086 14.8977 31.5305 9.31958 24.6496 9.31958C17.7687 9.31958 12.1907 14.8977 12.1907 21.7786C12.1907 28.6595 17.7687 34.2375 24.6496 34.2375Z" fill="#9ADAFA"/>
<path d="M45.8695 21.8708C45.8695 23.9615 41.7641 25.3712 41.152 27.256C40.5188 29.2095 42.9883 32.7626 41.8063 34.3888C40.6138 36.0307 36.4609 34.7742 34.8198 35.9674C33.1946 37.15 33.1154 41.4951 31.163 42.1287C29.2792 42.7411 26.6724 39.2935 24.5828 39.2935C22.4932 39.2935 19.8864 42.7411 18.0026 42.1287C16.0502 41.4951 15.9711 37.15 14.3458 35.9674C12.7047 34.7742 8.55185 36.0307 7.35929 34.3888C6.17728 32.7626 8.64683 29.2095 8.01362 27.256C7.4015 25.3712 3.29614 23.9563 3.29614 21.8708C3.29614 19.7854 7.4015 18.3704 8.01362 16.4856C8.64683 14.5321 6.17728 10.979 7.35929 9.35285C8.55185 7.71089 12.7047 8.96744 14.3458 7.77425C15.9711 6.59161 16.0502 2.24649 18.0026 1.61294C19.8864 1.00051 22.4932 4.44809 24.5828 4.44809C26.6724 4.44809 29.2792 1.00051 31.163 1.61294C33.1154 2.24649 33.1946 6.59161 34.8198 7.77425C36.4609 8.96744 40.6138 7.71089 41.8063 9.35285C42.9883 10.979 40.5188 14.5321 41.152 16.4856C41.7588 18.3651 45.8695 19.7801 45.8695 21.8708Z" stroke="white" stroke-width="2.5" stroke-miterlimit="10"/>
<path d="M24.2502 43.0209L33.1733 63.416C33.7696 64.7782 35.6165 64.9313 36.0756 63.6589L37.5478 58.7647C37.8328 57.9675 38.7509 57.656 39.5741 58.0783L44.3813 60.7973C45.6952 61.4679 46.9405 60.2799 46.3495 58.9231L35.9806 35.2229" stroke="white" stroke-width="2.5" stroke-miterlimit="10"/>
<path d="M25.7384 39.6208L15.3272 63.416C14.731 64.7782 12.8841 64.9313 12.425 63.6589L10.9528 58.7647C10.6678 57.9675 9.74965 57.656 8.92647 58.0783L4.11929 60.7973C2.80537 61.4679 1.56004 60.2799 2.15104 58.9231L12.5253 35.2229" stroke="white" stroke-width="2.5" stroke-miterlimit="10"/>
</svg>
