<svg width="54" height="74" viewBox="0 0 54 74" fill="none" xmlns="http://www.w3.org/2000/svg">
<path d="M52.1213 26.8669C52.1213 12.2785 39.9173 0.571208 25.27 1.60344C12.969 2.46581 2.98221 12.5007 2.07079 24.9331C1.26925 35.8826 7.35185 45.4863 16.4014 49.7916C17.7588 50.4384 18.625 51.8169 18.625 53.3325V59.3365V63.8704C18.625 68.2476 21.7988 72.0891 26.1038 72.5725C31.191 73.1409 35.5024 69.1296 35.5024 64.0991V53.3325C35.5024 51.8169 36.3751 50.4384 37.7325 49.7916C46.2326 45.7345 52.1213 36.9998 52.1213 26.8669Z" stroke="white" stroke-width="2.5" stroke-miterlimit="10"/>
<path d="M35.4961 58.9902H18.6187" stroke="white" stroke-width="2.5" stroke-miterlimit="10"/>
<path d="M27.0603 28.4935C22.1542 28.4935 18.1594 32.531 18.1594 37.4896V42.7292C20.7644 44.2971 23.8089 45.2052 27.0603 45.2052C30.3117 45.2052 33.3562 44.3036 35.9612 42.7292V37.4896C35.9612 32.531 31.9665 28.4935 27.0603 28.4935Z" fill="#9ADAFA"/>
<path d="M13.7705 37.4896C13.7705 30.0811 19.7303 24.0576 27.0604 24.0576C34.3906 24.0576 40.3503 30.0811 40.3503 37.4896V38.9727C42.923 35.9021 44.4743 31.9365 44.4743 27.6051C44.4743 17.8838 36.6788 10.0049 27.0604 10.0049C17.442 10.0049 9.64648 17.8838 9.64648 27.6051C9.64648 31.943 11.1978 35.9086 13.7705 38.9727V37.4896Z" fill="#9ADAFA"/>
</svg>
