<svg width="61" height="67" viewBox="0 0 61 67" fill="none" xmlns="http://www.w3.org/2000/svg">
<path d="M54.1617 65.5078C57.2443 65.5078 59.4919 62.6187 58.7598 59.6327C56.1176 48.874 46.3723 40.8848 34.7569 40.8848C23.1414 40.8848 13.3904 48.874 10.7539 59.6384C10.0219 62.6244 12.2695 65.5078 15.352 65.5078H54.1617Z" stroke="white" stroke-width="2.5" stroke-miterlimit="10"/>
<path d="M34.7565 35.5054C42.1507 35.5054 48.1449 29.5328 48.1449 22.1653C48.1449 14.7978 42.1507 8.8252 34.7565 8.8252C27.3623 8.8252 21.3682 14.7978 21.3682 22.1653C21.3682 29.5328 27.3623 35.5054 34.7565 35.5054Z" stroke="white" stroke-width="2.5" stroke-miterlimit="10"/>
<path d="M6.41298 57.7582C8.62055 48.766 14.3053 41.7056 24.2851 38.4233C13.0414 38.7994 2.71846 45.951 0.139152 56.4532C-0.59289 59.4392 1.65471 62.3226 4.73729 62.3226H7.24225C6.37295 61.0462 6.00693 59.4164 6.41298 57.7582Z" fill="white"/>
<path d="M17.3592 19.5102C17.3592 11.2588 24.0734 4.56885 32.3546 4.56885C35.2828 4.56885 38.0165 5.40652 40.3213 6.85392C37.7763 3.05306 33.4298 0.540039 28.4942 0.540039C20.6591 0.540039 14.3052 6.87102 14.3052 14.6836C14.3052 18.4389 15.7807 21.8523 18.177 24.3881C17.6508 22.8552 17.3592 21.2197 17.3592 19.5102Z" fill="white"/>
</svg>
