<svg width="51" height="54" viewBox="0 0 51 54" fill="none" xmlns="http://www.w3.org/2000/svg">
<path d="M43.6645 37.4034L34.9814 46.0599C33.8689 47.1684 32.3702 47.7871 30.7995 47.7871H7.92264C4.65231 47.7871 2 45.1318 2 41.8579V7.46914C2 4.19525 4.65231 1.54004 7.92264 1.54004H39.4826C42.7529 1.54004 45.4052 4.19525 45.4052 7.46914V33.2015C45.4103 34.7791 44.782 36.2897 43.6645 37.4034Z" stroke="white" stroke-width="2.5" stroke-miterlimit="10"/>
<path d="M48.9281 42.9354L40.245 51.5919C39.1326 52.7004 37.6339 53.319 36.0631 53.319H13.1914C9.92111 53.319 7.2688 50.6638 7.2688 47.3899V13.0011C7.2688 9.72723 9.92111 7.07202 13.1914 7.07202H44.7514C48.0217 7.07202 50.674 9.72723 50.674 13.0011V38.7334C50.674 40.3111 50.0457 41.8217 48.9281 42.9354Z" fill="white"/>
<path d="M15.7258 21.0892C15.7258 20.4459 16.2474 19.9243 16.8908 19.9243H41.7427C42.386 19.9243 42.9076 20.4459 42.9076 21.0892C42.9076 21.7326 42.386 22.2542 41.7427 22.2542H16.8908C16.2474 22.2542 15.7258 21.7326 15.7258 21.0892Z" fill="#56B7E8"/>
<path d="M15.7258 26.526C15.7258 25.8826 16.2474 25.3611 16.8908 25.3611H41.7427C42.386 25.3611 42.9076 25.8826 42.9076 26.526C42.9076 27.1694 42.386 27.6909 41.7427 27.6909H16.8908C16.2474 27.6909 15.7258 27.1694 15.7258 26.526Z" fill="#56B7E8"/>
<path d="M15.7258 31.9622C15.7258 31.3188 16.2474 30.7972 16.8908 30.7972H41.7427C42.386 30.7972 42.9076 31.3188 42.9076 31.9622C42.9076 32.6055 42.386 33.1271 41.7427 33.1271H16.8908C16.2474 33.1271 15.7258 32.6055 15.7258 31.9622Z" fill="#56B7E8"/>
<path d="M15.7258 37.3985C15.7258 36.7551 16.2474 36.2335 16.8908 36.2335H29.3167C29.9601 36.2335 30.4816 36.7551 30.4816 37.3985C30.4816 38.0418 29.9601 38.5634 29.3167 38.5634H16.8908C16.2474 38.5634 15.7258 38.0418 15.7258 37.3985Z" fill="#56B7E8"/>
</svg>
