<svg width="129" height="161" viewBox="0 0 129 161" fill="none" xmlns="http://www.w3.org/2000/svg">
<g id="Icon">
<rect id="Background" y="160.54" width="160" height="129" rx="23" transform="rotate(-90 0 160.54)" fill="#57B8E8"/>
<g id="Icon_2">
<path id="Vector" d="M64.6496 82.2375C71.5305 82.2375 77.1086 76.6595 77.1086 69.7786C77.1086 62.8977 71.5305 57.3196 64.6496 57.3196C57.7687 57.3196 52.1907 62.8977 52.1907 69.7786C52.1907 76.6595 57.7687 82.2375 64.6496 82.2375Z" fill="#9ADAFA"/>
<g id="Group">
<path id="Vector_2" d="M85.8695 69.8708C85.8695 71.9615 81.7641 73.3712 81.152 75.256C80.5188 77.2095 82.9883 80.7626 81.8063 82.3888C80.6138 84.0307 76.4609 82.7742 74.8198 83.9674C73.1946 85.15 73.1154 89.4951 71.163 90.1287C69.2792 90.7411 66.6724 87.2935 64.5828 87.2935C62.4932 87.2935 59.8864 90.7411 58.0026 90.1287C56.0502 89.4951 55.9711 85.15 54.3458 83.9674C52.7047 82.7742 48.5519 84.0307 47.3593 82.3888C46.1773 80.7626 48.6468 77.2095 48.0136 75.256C47.4015 73.3712 43.2961 71.9563 43.2961 69.8708C43.2961 67.7854 47.4015 66.3704 48.0136 64.4856C48.6468 62.5321 46.1773 58.979 47.3593 57.3528C48.5519 55.7109 52.7047 56.9674 54.3458 55.7742C55.9711 54.5916 56.0502 50.2465 58.0026 49.6129C59.8864 49.0005 62.4932 52.4481 64.5828 52.4481C66.6724 52.4481 69.2792 49.0005 71.163 49.6129C73.1154 50.2465 73.1946 54.5916 74.8198 55.7742C76.4609 56.9674 80.6138 55.7109 81.8063 57.3528C82.9883 58.979 80.5188 62.5321 81.152 64.4856C81.7588 66.3651 85.8695 67.7801 85.8695 69.8708Z" stroke="white" stroke-width="2.5" stroke-miterlimit="10"/>
</g>
<path id="Vector_3" d="M64.2502 91.0209L73.1733 111.416C73.7696 112.778 75.6165 112.931 76.0756 111.659L77.5478 106.765C77.8328 105.967 78.7509 105.656 79.5741 106.078L84.3813 108.797C85.6952 109.468 86.9405 108.28 86.3495 106.923L75.9806 83.2229" stroke="white" stroke-width="2.5" stroke-miterlimit="10"/>
<path id="Vector_4" d="M65.7384 87.6208L55.3272 111.416C54.731 112.778 52.8841 112.931 52.425 111.659L50.9528 106.765C50.6678 105.967 49.7497 105.656 48.9265 106.078L44.1193 108.797C42.8054 109.468 41.56 108.28 42.151 106.923L52.5253 83.2229" stroke="white" stroke-width="2.5" stroke-miterlimit="10"/>
</g>
</g>
</svg>
