<svg width="23" height="23" viewBox="0 0 23 23" fill="none" xmlns="http://www.w3.org/2000/svg">
<g id="Insta">
<path id="Vector" d="M15.9867 2.76225C17.2195 2.7658 18.4007 3.23896 19.2725 4.07839C20.1442 4.91782 20.6355 6.05532 20.6392 7.24246V16.2019C20.6355 17.389 20.1442 18.5265 19.2725 19.366C18.4007 20.2054 17.2195 20.6786 15.9867 20.6821H6.68266C5.44987 20.6786 4.26862 20.2054 3.3969 19.366C2.52518 18.5265 2.03382 17.389 2.03014 16.2019V7.24246C2.03382 6.05532 2.52518 4.91782 3.3969 4.07839C4.26862 3.23896 5.44987 2.7658 6.68266 2.76225H15.9867ZM15.9867 0.970459H6.68266C3.10031 0.970459 0.169434 3.79279 0.169434 7.24246V16.2019C0.169434 19.6516 3.10031 22.4739 6.68266 22.4739H15.9867C19.5691 22.4739 22.4999 19.6516 22.4999 16.2019V7.24246C22.4999 3.79279 19.5691 0.970459 15.9867 0.970459Z" fill="#274C5B"/>
<path id="Vector_2" d="M17.3825 7.24311C17.1065 7.24311 16.8366 7.16429 16.6071 7.01661C16.3776 6.86893 16.1987 6.65903 16.0931 6.41346C15.9874 6.16788 15.9598 5.89765 16.0137 5.63695C16.0675 5.37624 16.2004 5.13677 16.3956 4.94881C16.5908 4.76086 16.8395 4.63286 17.1102 4.581C17.381 4.52914 17.6616 4.55576 17.9166 4.65748C18.1716 4.7592 18.3896 4.93146 18.5429 5.15247C18.6963 5.37349 18.7782 5.63333 18.7782 5.89914C18.7786 6.07574 18.7427 6.25068 18.6727 6.4139C18.6027 6.57713 18.4999 6.72544 18.3703 6.85032C18.2406 6.97519 18.0866 7.07417 17.9171 7.14158C17.7476 7.20898 17.5659 7.24349 17.3825 7.24311ZM11.3348 8.13876C12.071 8.13876 12.7905 8.34897 13.4026 8.74279C14.0147 9.13661 14.4917 9.69637 14.7734 10.3513C15.0551 11.0062 15.1288 11.7268 14.9852 12.422C14.8416 13.1173 14.4871 13.7559 13.9666 14.2572C13.4461 14.7584 12.7829 15.0997 12.0609 15.238C11.339 15.3763 10.5906 15.3054 9.91051 15.0341C9.23042 14.7628 8.64913 14.3034 8.24016 13.714C7.8312 13.1246 7.61291 12.4317 7.61291 11.7228C7.61396 10.7726 8.00643 9.86156 8.7042 9.18964C9.40196 8.51771 10.348 8.13978 11.3348 8.13876ZM11.3348 6.34697C10.2307 6.34697 9.15134 6.66226 8.23328 7.25297C7.31523 7.84367 6.59969 8.68327 6.17715 9.66558C5.75462 10.6479 5.64406 11.7288 5.85947 12.7716C6.07488 13.8144 6.60657 14.7723 7.38731 15.5241C8.16806 16.276 9.16279 16.788 10.2457 16.9954C11.3286 17.2028 12.4511 17.0964 13.4712 16.6895C14.4913 16.2826 15.3632 15.5936 15.9766 14.7095C16.59 13.8254 16.9174 12.7861 16.9174 11.7228C16.9174 10.2971 16.3293 8.92969 15.2823 7.92152C14.2354 6.91335 12.8154 6.34697 11.3348 6.34697Z" fill="#274C5B"/>
</g>
</svg>
