<svg width="25" height="26" viewBox="0 0 25 26" fill="none" xmlns="http://www.w3.org/2000/svg">
<g clip-path="url(#clip0_16_2507)">
<path d="M11.5365 24.7153C4.44189 14.4302 3.125 13.3747 3.125 9.59473C3.125 4.41704 7.32231 0.219727 12.5 0.219727C17.6777 0.219727 21.875 4.41704 21.875 9.59473C21.875 13.3747 20.5581 14.4302 13.4635 24.7153C12.9979 25.3879 12.0021 25.3878 11.5365 24.7153ZM12.5 13.501C14.6574 13.501 16.4062 11.7521 16.4062 9.59473C16.4062 7.43735 14.6574 5.68848 12.5 5.68848C10.3426 5.68848 8.59375 7.43735 8.59375 9.59473C8.59375 11.7521 10.3426 13.501 12.5 13.501Z" fill="white"/>
</g>
<defs>
<clipPath id="clip0_16_2507">
<rect width="25" height="25" fill="white" transform="translate(0 0.219727)"/>
</clipPath>
</defs>
</svg>
