<svg width="25" height="26" viewBox="0 0 25 26" fill="none" xmlns="http://www.w3.org/2000/svg">
<g clip-path="url(#clip0_16_2495)">
<path d="M24.2866 17.8858L18.8179 15.542C18.5843 15.4425 18.3246 15.4215 18.078 15.4823C17.8315 15.543 17.6113 15.6822 17.4507 15.879L15.0288 18.8379C11.2279 17.0458 8.16904 13.987 6.37695 10.1861L9.33594 7.76421C9.53305 7.60389 9.67256 7.38372 9.73335 7.13703C9.79414 6.89034 9.7729 6.63056 9.67285 6.39702L7.3291 0.928268C7.21929 0.676515 7.02508 0.470966 6.77996 0.347066C6.53483 0.223167 6.25416 0.188681 5.98633 0.249557L0.908203 1.42143C0.649985 1.48106 0.419602 1.62645 0.254656 1.83388C0.0897096 2.0413 -5.94829e-05 2.29851 2.95713e-08 2.56352C2.95713e-08 15.0879 10.1514 25.2198 22.6562 25.2198C22.9213 25.2199 23.1787 25.1302 23.3862 24.9653C23.5937 24.8003 23.7392 24.5699 23.7988 24.3116L24.9707 19.2334C25.0312 18.9643 24.996 18.6825 24.8711 18.4365C24.7463 18.1906 24.5396 17.9958 24.2866 17.8858Z" fill="white"/>
</g>
<defs>
<clipPath id="clip0_16_2495">
<rect width="25" height="25" fill="white" transform="translate(0 0.219727)"/>
</clipPath>
</defs>
</svg>
