<svg width="25" height="20" viewBox="0 0 25 20" fill="none" xmlns="http://www.w3.org/2000/svg">
<g id="Twiter">
<path id="Vector" d="M24.2561 2.4845C23.3586 2.87446 22.409 3.13138 21.4374 3.24713C22.4585 2.64918 23.2265 1.69923 23.5972 0.575444C22.6317 1.13998 21.5772 1.53609 20.4789 1.7468C20.0163 1.26207 19.4601 0.876459 18.8439 0.613398C18.2277 0.350338 17.5645 0.215323 16.8945 0.216561C14.182 0.216561 11.9868 2.37983 11.9868 5.04653C11.9849 5.41746 12.0274 5.78728 12.1134 6.1481C10.1683 6.05691 8.26364 5.56072 6.52129 4.69126C4.77894 3.8218 3.23726 2.59823 1.99489 1.09882C1.55903 1.83359 1.32853 2.67194 1.32746 3.52626C1.32746 5.20105 2.20124 6.68144 3.52064 7.54874C2.73894 7.53019 1.97325 7.32329 1.28859 6.94562V7.00543C1.28859 9.34814 2.98331 11.2971 5.22633 11.7407C4.80453 11.8531 4.36988 11.9101 3.93335 11.9102C3.62361 11.9107 3.31456 11.8807 3.01073 11.8204C3.63428 13.7395 5.44914 15.1351 7.59895 15.175C5.85207 16.5213 3.70737 17.2489 1.50192 17.2436C1.11045 17.243 0.719339 17.2197 0.330566 17.1738C2.57417 18.6064 5.18219 19.3642 7.84418 19.357C16.8841 19.357 21.8227 11.9949 21.8227 5.60978C21.8227 5.40043 21.8172 5.19108 21.8072 4.98671C22.7658 4.30487 23.5951 3.45753 24.2561 2.4845Z" fill="#274C5B"/>
</g>
</svg>
