<svg width="54" height="42" viewBox="0 0 54 42" fill="none" xmlns="http://www.w3.org/2000/svg">
<path fill-rule="evenodd" clip-rule="evenodd" d="M20.4366 13.3988V13.416L20.4322 13.472V13.4892V13.528V13.5797V13.584V13.64L20.4277 13.6701V13.696V13.752V13.7606V13.808V13.851V13.864V13.92V13.9415V14.0319V14.0406V14.0535V14.075C20.4366 15.6471 20.9721 17.1029 21.8706 18.2745L21.8972 18.3089L21.9237 18.3434L21.9768 18.4123L21.9901 18.4295L22.03 18.4812V18.4898L22.0831 18.5458L22.1318 18.6018L22.1406 18.6104L22.1804 18.6578L22.2291 18.7138L22.2513 18.7396L22.2778 18.7698C22.5478 19.0627 22.8444 19.334 23.163 19.5795L23.2029 19.6097L23.2206 19.6226L23.3356 19.7087H23.3401L23.3932 19.7518L23.4507 19.7949L23.4817 19.8164L23.5127 19.8379L23.5525 19.8681L23.5702 19.881L23.6233 19.9155H23.6322L23.6941 19.9585H23.6986L23.7561 19.9973L23.7738 20.0102L23.8181 20.0361L23.8491 20.0533L23.88 20.0748L23.9243 20.1007L23.9464 20.1136L23.9995 20.1437H24.0084L24.0704 20.1825L24.1323 20.217L24.15 20.2256L24.1987 20.2514L24.2297 20.2687L24.2651 20.2859L24.3094 20.3074L24.3315 20.3203L24.3846 20.3462H24.3935L24.4598 20.3849L24.5218 20.4151L24.5395 20.4237L24.6192 20.4625L24.659 20.4797L24.6989 20.4969L24.8626 20.5658L24.929 20.5917H24.9423L24.9954 20.6175L25.022 20.6261L25.0618 20.6434L25.1016 20.6563L25.1857 20.6864H25.199L25.2698 20.7166C25.3539 20.7467 25.438 20.7726 25.5221 20.7984L25.5531 20.807L25.6062 20.8243L25.77 20.8673H25.7788L25.8408 20.8846H25.8673L26.0399 20.9319L26.0576 20.9363L26.124 20.9492H26.1285L26.2037 20.9664H26.2126L26.2789 20.9793H26.3011L26.3498 20.9922L26.3896 21.0009L26.5666 21.031H26.5755L26.7481 21.0569L26.8012 21.0655H26.8366L27.0181 21.087H27.0269L27.1022 21.0956H27.1066L27.1774 21.0999H27.1951L27.2881 21.1042H27.3323L27.381 21.1085H27.4076H27.474H27.6643H27.8546H27.921H27.9476H27.9962L28.0405 21.1042H28.0759L28.1335 21.0999H28.1512L28.2264 21.0956L28.3061 21.087H28.3149L28.3813 21.0784H28.4079L28.461 21.0698H28.5008L28.5362 21.0612L28.5893 21.0525L28.6823 21.0396H28.6867L28.7619 21.0267H28.7708L28.8372 21.0138H28.8593L28.9124 21.0009L28.9523 20.9922L28.9877 20.9836L29.0408 20.975H29.0629L29.1293 20.9578H29.1382L29.2134 20.9406H29.2178L29.2842 20.9233H29.3064L29.3595 20.9061L29.3949 20.8975L29.4347 20.8889L29.4834 20.876H29.5055L29.5675 20.8544H29.5763L29.6472 20.8329L29.7135 20.8113H29.7312L29.7844 20.7898L29.8153 20.7812L29.8552 20.7683L29.8994 20.7554L29.926 20.7467L29.9835 20.7295H29.9968L30.0676 20.7037L30.1384 20.6778H30.1517L30.2048 20.652L30.2358 20.6391L30.2756 20.6261L30.3199 20.6089L30.3465 20.6003L30.404 20.5788H30.4173L30.4881 20.5443L30.5545 20.5142H30.5678L30.6209 20.484L30.6474 20.4711L30.6873 20.4539L30.7271 20.4366L30.7537 20.4237L30.8068 20.3979L30.8201 20.3893L30.8864 20.3591L30.9528 20.3246H30.9661L31.0192 20.2902L31.0458 20.2773L31.0856 20.2557L31.121 20.2385L31.1476 20.2213L31.1963 20.1954L31.2095 20.1868L31.2715 20.1524L31.3335 20.1136H31.3423L31.3954 20.0791L31.4176 20.0662L31.4574 20.0404L31.4884 20.0188L31.5194 20.0016C31.7451 19.8638 31.9664 19.7087 32.1744 19.5494C32.5683 19.2436 32.9313 18.8947 33.2544 18.5157L33.3031 18.4554V18.4467L33.3517 18.3951L33.365 18.3778L33.4004 18.3348L33.4181 18.3089L33.4447 18.2745L33.4712 18.24L33.4889 18.2142L33.5199 18.1711L33.5332 18.1539L33.6217 18.0333C34.4184 16.9091 34.8964 15.5524 34.9141 14.0879V13.9113V13.8812V13.8209V13.7606V13.7304V13.7003V13.64L34.9097 13.5495V13.5151L34.9053 13.4591L34.9008 13.3945V13.3686L34.8964 13.3342C34.8876 13.2567 34.8787 13.1791 34.8699 13.1016C34.6618 11.5037 33.9094 10.0737 32.7985 8.99261C31.4795 7.7134 29.6604 6.92089 27.651 6.92089C25.6416 6.92089 23.8181 7.7134 22.5035 8.99261C21.3306 10.134 20.5561 11.663 20.4012 13.3686L20.4366 13.3988ZM17.9934 13.3213C18.1705 10.9997 19.215 8.90647 20.8128 7.3516C21.0828 7.08456 21.3705 6.83475 21.6715 6.60647C21.4369 4.98268 20.6358 3.53549 19.4717 2.45871C18.1705 1.25703 16.4045 0.520508 14.4659 0.520508C12.5273 0.520508 10.6329 1.31302 9.31841 2.59223C8.00388 3.87145 7.18949 5.64598 7.18949 7.60141C7.18949 9.55685 8.00388 11.3314 9.31841 12.6106C10.6374 13.8898 12.4565 14.6823 14.4659 14.6823H14.5013C15.236 14.6823 15.9397 14.5746 16.5904 14.3808C17.0728 14.2387 17.5375 14.0449 17.9713 13.8123V13.7434L17.9757 13.6745V13.6012V13.5495V13.5323V13.4634L17.9846 13.3945V13.3256H17.989L17.9934 13.3213ZM19.7196 21.4962C19.8302 21.466 19.9453 21.4359 20.0604 21.41L20.1755 21.3842L20.2905 21.3584L20.5207 21.311L20.7508 21.2679L20.8659 21.2507L20.981 21.2334L21.2156 21.2033L21.3306 21.1904C21.22 21.0956 21.1093 21.0009 21.0031 20.9018L20.9943 20.8932C20.8748 20.7812 20.7597 20.6692 20.6446 20.5529L20.6313 20.54C20.5561 20.4625 20.4853 20.3893 20.4145 20.3117L20.4056 20.3031L20.3613 20.2514L20.3304 20.217L20.3082 20.1911L20.2064 20.0705L20.1799 20.0404L20.1533 20.0102C19.423 19.1402 18.8476 18.1409 18.467 17.0555H9.38923C7.03016 17.0555 4.88353 17.9945 3.32557 19.5106C1.76761 21.0267 0.802734 23.1157 0.802734 25.4114V33.3408C2.57757 33.8964 4.40995 34.3486 6.27773 34.6803C8.00831 34.9861 9.77872 35.2014 11.5801 35.3091V31.8419C11.5801 28.8915 12.8194 26.2082 14.82 24.2614L14.8996 24.1838L14.9793 24.1063L15.0634 24.0288L15.1475 23.9555L15.2316 23.8823L15.3157 23.8091L15.3998 23.7359L15.4839 23.6627L15.5724 23.5894L15.6609 23.5205L15.7494 23.4516L15.8379 23.3827L15.9265 23.3138L16.015 23.2492L16.1079 23.1846L16.2009 23.12L16.2938 23.0554L16.3868 22.9908L16.4797 22.9305L16.5727 22.8702L16.6656 22.8099L16.763 22.7496L16.8604 22.6893L16.9577 22.6333L17.1436 22.5256H17.1525V22.5213L17.2499 22.4653L17.3517 22.4093L17.4534 22.3576L17.5552 22.3059L17.657 22.2542L17.7588 22.2025L17.8606 22.1552L17.9624 22.1078L18.1705 22.0173L18.2767 21.9743L18.4891 21.8881L18.5954 21.8451L18.7016 21.8063L18.8078 21.7675L18.914 21.7288L19.1309 21.6555L19.2416 21.6211L19.4629 21.5522L19.5735 21.522L19.6842 21.4919L19.7196 21.4962ZM36.897 17.0598C36.5119 18.1711 35.9188 19.1919 35.162 20.0748L35.1133 20.1351L35.0602 20.1954L35.0381 20.2213L35.0071 20.2557L34.9584 20.3074L34.9495 20.316L34.8964 20.3763L34.8787 20.3936L34.799 20.4754L34.7858 20.4883L34.7327 20.5443L34.7194 20.5572L34.6751 20.6003L34.6353 20.6391L34.6176 20.6563L34.56 20.7123L34.5512 20.7209L34.5423 20.7338L34.5335 20.7424L34.5246 20.7511L34.5158 20.7597L34.5069 20.7683H34.5025V20.7769L34.4937 20.7855L34.4848 20.7941L34.476 20.8027L34.4671 20.8113L34.4582 20.82L34.4405 20.8372L34.4317 20.8458L34.4228 20.8544L34.4007 20.876L34.3919 20.8846L34.383 20.8932L34.3786 20.9018L34.3697 20.9104L34.3609 20.919L34.352 20.9276L34.3432 20.9363L34.3343 20.9449L34.3255 20.9535V20.9621L34.3166 20.9707L34.3078 20.9793L34.2989 20.9879L34.2901 20.9966L34.2812 21.0052L34.2724 21.0138L34.2635 21.0224L34.2547 21.031L34.2458 21.0396L34.2369 21.0482L34.2281 21.0569L34.2192 21.0655L34.2104 21.0741H34.2015V21.0827H34.1927L34.1838 21.0956L34.175 21.1042L34.1661 21.1128L34.1573 21.1215L34.1484 21.1301L34.1396 21.1387V21.1473L34.1307 21.1559L34.1219 21.1645L34.113 21.1731L34.1042 21.1818L34.0953 21.1904L34.0865 21.199H34.082V21.2076L34.0732 21.2162L34.0643 21.2248L34.0555 21.2334L34.0466 21.2421L34.0378 21.2507L34.0289 21.2593L34.0201 21.2679L34.1351 21.2808L34.2547 21.2981L34.3741 21.3153L34.4937 21.3325L34.6087 21.3497L34.7238 21.3713L34.8389 21.3928L34.954 21.4143L35.069 21.4402L35.1841 21.466L35.2992 21.4919L35.4143 21.5177L35.5293 21.5436L35.64 21.5737L35.7506 21.6039L35.8613 21.634L35.9719 21.6685L36.0826 21.7029L36.1932 21.7374L36.3039 21.7718L36.4101 21.8106L36.5208 21.8494L36.627 21.8881L36.7332 21.9269L36.8394 21.9657L36.9457 22.0087L37.0519 22.0518L37.1581 22.0949L37.2643 22.1423L37.3706 22.1896L37.4724 22.237L37.5742 22.2844L37.676 22.3361L37.7778 22.3878L37.8796 22.4394L37.9814 22.4911L38.0832 22.5428L38.1805 22.5988L38.2779 22.6548L38.3753 22.7108L38.4727 22.7668L38.57 22.8271L38.663 22.8874L38.7559 22.9477L38.8489 23.008L38.9418 23.0683L39.0348 23.1329L39.1277 23.1975L39.2206 23.2621L39.3136 23.3267L39.4065 23.3913L39.4951 23.4602L39.5836 23.5291L39.6721 23.5981L39.7606 23.667L39.8491 23.7402L39.9332 23.8134L40.0218 23.8866L40.1059 23.9599L40.1899 24.0331L40.274 24.1063L40.3537 24.1838L40.4378 24.2614L40.5175 24.3389C42.5136 26.2814 43.7573 28.9647 43.7573 31.9194V35.3436C45.4436 35.2187 47.1078 35.0033 48.7278 34.7018C50.4937 34.3745 52.2243 33.9438 53.9062 33.4183V25.4846C53.9062 23.1889 52.9413 21.0999 51.3834 19.5838C49.8254 18.0677 47.6788 17.1288 45.3197 17.1288H36.8704L36.897 17.0598ZM33.1393 6.20591C33.6483 6.54186 34.1219 6.9252 34.5556 7.34729C36.1313 8.88493 37.167 10.9394 37.3706 13.2265V13.3083H37.375V13.3859L37.3839 13.4246V13.4634L37.3883 13.5452V13.6271V13.6658L37.3927 13.7864V13.8683V13.9113V13.9501V14.1138C37.7247 14.2559 38.0743 14.3722 38.4328 14.4627C38.9993 14.6048 39.6013 14.6823 40.2342 14.6866H40.2652C42.2746 14.6866 44.0981 13.8941 45.4127 12.6149C46.7272 11.3357 47.5416 9.56115 47.5416 7.60572C47.5416 5.65029 46.7272 3.87575 45.4127 2.59654C44.0981 1.31733 42.2746 0.524815 40.2652 0.524815C38.3797 0.524815 36.6668 1.21826 35.3744 2.35965C34.2414 3.3589 33.4358 4.69841 33.126 6.21021L33.1393 6.20591ZM41.3407 37.7728V31.8462C41.3407 29.5505 40.3758 27.4615 38.8179 25.9454C37.2599 24.4293 35.1133 23.4904 32.7542 23.4904H22.623C20.264 23.4904 18.1174 24.4293 16.5594 25.9454C15.0014 27.4615 14.0366 29.5505 14.0366 31.8462V39.7799C16.0548 40.4087 18.1439 40.9041 20.295 41.2486C22.6762 41.632 25.1459 41.8301 27.6908 41.8301C30.2358 41.8301 32.7055 41.6277 35.0823 41.2486C37.2334 40.9041 39.3224 40.4087 41.3407 39.7799V37.7771V37.7728Z" fill="white"/>
</svg>
