<svg width="54" height="54" viewBox="0 0 54 54" fill="none" xmlns="http://www.w3.org/2000/svg">
<path d="M31.4874 11.8413C30.5447 9.81271 28.498 8.4375 26.1562 8.4375C23.0894 8.4375 20.5615 10.7858 20.2764 13.7793C18.2988 14.4682 16.875 16.3518 16.875 18.5617C16.875 21.3533 19.1459 23.6242 21.9375 23.6242L32.0625 23.625C35.3188 23.625 37.9688 20.9751 37.9688 17.7188C37.9688 14.2704 34.9151 11.506 31.4874 11.8413ZM32.0625 20.25L21.9375 20.2492C21.0064 20.2492 20.25 19.4919 20.25 18.5617C20.25 17.6545 20.9685 16.9129 21.8666 16.8758C21.9062 16.8791 21.9457 16.8816 21.9754 16.8824C22.5456 16.9088 22.9839 16.674 23.3152 16.2817C23.6464 15.8871 23.7799 15.3638 23.6761 14.8587C23.6431 14.6923 23.625 14.5201 23.625 14.3438C23.625 12.9479 24.7604 11.8125 26.1562 11.8125C27.4367 11.8125 28.5095 12.7823 28.6512 14.0677C28.7106 14.6049 29.0253 15.0812 29.495 15.349C29.963 15.6135 30.5349 15.6423 31.0276 15.4174C32.7003 14.661 34.5938 15.9719 34.5938 17.7188C34.5938 19.1146 33.4583 20.25 32.0625 20.25Z" fill="#57B8E8"/>
<path d="M18.5625 28.6875C18.5625 27.7556 19.3173 27 20.25 27H25.3125C26.2452 27 27 27.7556 27 28.6875C27 29.6194 26.2452 30.375 25.3125 30.375H20.25C19.3173 30.375 18.5625 29.6194 18.5625 28.6875Z" fill="#57B8E8"/>
<path d="M35.4375 28.6875C35.4375 29.6194 34.6827 30.375 33.75 30.375H32.0625C31.1298 30.375 30.375 29.6194 30.375 28.6875C30.375 27.7556 31.1298 27 32.0625 27H33.75C34.6827 27 35.4375 27.7556 35.4375 28.6875Z" fill="#57B8E8"/>
<path d="M37.125 1.6875H16.875C13.1523 1.6875 10.125 4.71561 10.125 8.4375V45.5625C10.125 49.2844 13.1523 52.3125 16.875 52.3125H37.125C40.8477 52.3125 43.875 49.2844 43.875 45.5625V8.4375C43.875 4.71561 40.8477 1.6875 37.125 1.6875ZM40.5 45.5625C40.5 47.4239 38.9855 48.9375 37.125 48.9375H16.875C15.0145 48.9375 13.5 47.4239 13.5 45.5625V8.4375C13.5 6.57614 15.0145 5.0625 16.875 5.0625H37.125C38.9855 5.0625 40.5 6.57614 40.5 8.4375V45.5625Z" fill="#57B8E8"/>
<path d="M30.375 45.5616C30.375 46.4936 29.6202 47.2491 28.6875 47.2491H25.3125C24.3798 47.2491 23.625 46.4936 23.625 45.5616C23.625 44.6297 24.3798 43.8741 25.3125 43.8741H28.6875C29.6202 43.8741 30.375 44.6297 30.375 45.5616Z" fill="#57B8E8"/>
<path d="M25.3125 37.125H20.25C19.3173 37.125 18.5625 36.3694 18.5625 35.4375C18.5625 34.5056 19.3173 33.75 20.25 33.75H25.3125C26.2452 33.75 27 34.5056 27 35.4375C27 36.3694 26.2452 37.125 25.3125 37.125Z" fill="#57B8E8"/>
<path d="M35.4375 35.4375C35.4375 36.3694 34.6827 37.125 33.75 37.125H32.0625C31.1298 37.125 30.375 36.3694 30.375 35.4375C30.375 34.5056 31.1298 33.75 32.0625 33.75H33.75C34.6827 33.75 35.4375 34.5056 35.4375 35.4375Z" fill="#57B8E8"/>
</svg>
