<svg width="84" height="83" viewBox="0 0 84 83" fill="none" xmlns="http://www.w3.org/2000/svg">
<g id="Icon">
<rect id="Rectangle 33" x="0.115967" width="83" height="83" rx="20" fill="#57B8E8"/>
<g id="Iocn">
<path id="Vector" d="M21.1858 31.0158C21.1998 31.0944 21.2112 31.173 21.2158 31.2523C21.2752 32.2695 22.0442 40.3854 31.7122 50.2673C31.7122 50.2673 40.0637 58.7782 48.8534 60.5676C48.8914 60.5755 48.9287 60.584 48.9667 60.5945C49.499 60.7392 54.0235 61.8828 56.3558 59.5439L59.6785 56.2807C59.7085 56.2512 59.7399 56.2224 59.7719 56.1949C60.1034 55.91 62.411 53.778 60.1027 51.5111C57.7664 49.2167 54.8212 46.4192 54.4877 46.1022C54.4717 46.0871 54.4564 46.0721 54.441 46.0563C54.2603 45.8716 52.5436 44.2106 50.5327 45.7282C50.4747 45.7721 50.42 45.8212 50.368 45.8723L47.1146 49.0758C46.3857 49.7668 45.2278 49.7577 44.5095 49.0555L33.3949 38.1821C32.6486 37.4517 32.6679 36.259 33.4376 35.5523L36.0387 33.1655C36.0387 33.1655 38.8885 30.5744 35.8279 27.7756L31.2847 23.3138C31.2567 23.2863 31.23 23.2581 31.2033 23.2287C30.9099 22.9038 28.7323 20.6794 26.1772 23.1553C26.0992 23.2306 26.0145 23.2987 25.9245 23.359C25.0574 23.9433 20.5009 27.2077 21.1858 31.0158Z" fill="white"/>
<path id="Ellipse 44" d="M51.8087 38.9644C52.5124 38.9641 53.0918 38.3905 52.9921 37.6939C52.8691 36.8338 52.6218 35.9938 52.2562 35.2006C51.7122 34.0206 50.9192 32.9724 49.9316 32.128C48.944 31.2836 47.7853 30.663 46.5351 30.309C45.6948 30.071 44.8265 29.9573 43.9577 29.9693C43.2541 29.9791 42.7775 30.6406 42.8865 31.3358C42.9954 32.031 43.6507 32.4929 44.3538 32.5224C44.8556 32.5435 45.3547 32.6232 45.8408 32.7608C46.737 33.0146 47.5676 33.4595 48.2756 34.0648C48.9835 34.6701 49.552 35.4215 49.942 36.2674C50.1535 36.7262 50.3097 37.2069 50.4085 37.6993C50.547 38.3892 51.105 38.9648 51.8087 38.9644Z" fill="white"/>
<path id="Ellipse 45" d="M57.0701 39.109C57.9177 39.1753 58.6679 38.5404 58.6363 37.6908C58.5786 36.1455 58.2526 34.618 57.669 33.1776C56.8922 31.2602 55.6802 29.5498 54.1287 28.1814C52.5773 26.8129 50.7289 25.824 48.7295 25.2926C47.2275 24.8935 45.6712 24.7608 44.1309 24.8966C43.284 24.9712 42.7477 25.7948 42.9194 26.6275C43.091 27.4602 43.9065 27.9837 44.7555 27.9384C45.8242 27.8814 46.8984 27.9917 47.9388 28.2682C49.4768 28.6769 50.8987 29.4377 52.0921 30.4903C53.2856 31.543 54.218 32.8588 54.8155 34.3337C55.2198 35.3314 55.4633 36.3835 55.5402 37.4509C55.6013 38.2989 56.2225 39.0426 57.0701 39.109Z" fill="white"/>
</g>
</g>
</svg>
